SplineFontDB: 3.2
FontName: Kilroy5W60-8ptRegular
FullName: Kilroy5W60 8pt Regular
FamilyName: Kilroy5W60 8pt
Weight: Regular
Copyright: Copyright 2020 The Roboto Serif Project Authors (https://github.com/googlefonts/RobotoSerif) OFL
Version: 1.008
ItalicAngle: 0
UnderlinePosition: -200
UnderlineWidth: 100
Ascent: 800
Descent: 200
InvalidEm: 0
sfntRevision: 0x0001020c
LayerCount: 2
Layer: 0 1 "Back" 1
Layer: 1 1 "Fore" 0
XUID: [1021 1018 -1064020043 14037]
StyleMap: 0x0040
FSType: 0
OS2Version: 4
OS2_WeightWidthSlopeOnly: 0
OS2_UseTypoMetrics: 1
CreationTime: 1586430965
ModificationTime: 1751912262
PfmFamily: 81
TTFWeight: 400
TTFWidth: 2
LineGap: 0
VLineGap: 0
Panose: 0 0 0 0 0 0 0 0 0 0
OS2TypoAscent: 927
OS2TypoAOffset: 0
OS2TypoDescent: -244
OS2TypoDOffset: 0
OS2TypoLinegap: 0
OS2WinAscent: 1048
OS2WinAOffset: 0
OS2WinDescent: 251
OS2WinDOffset: 0
HheadAscent: 927
HheadAOffset: 0
HheadDescent: -244
HheadDOffset: 0
OS2SubXSize: 650
OS2SubYSize: 600
OS2SubXOff: 0
OS2SubYOff: 75
OS2SupXSize: 650
OS2SupYSize: 600
OS2SupXOff: 0
OS2SupYOff: 350
OS2StrikeYSize: 100
OS2StrikeYPos: 311
OS2CapHeight: 710
OS2XHeight: 518
OS2Vendor: 'COMM'
OS2CodePages: 20000193.00000000
OS2UnicodeRanges: a10000ef.4000267a.00000000.00000000
Lookup: 5 0 0 "'locl' Localized Forms in Latin lookup 0" { "'locl' Localized Forms in Latin lookup 0 subtable"  } ['locl' ('latn' <'AZE ' 'CRT ' 'TRK ' > ) ]
Lookup: 1 0 0 "Single Substitution lookup 1" { "Single Substitution lookup 1 subtable"  } []
Lookup: 5 0 0 "'locl' Localized Forms in Latin lookup 2" { "'locl' Localized Forms in Latin lookup 2 subtable"  } ['locl' ('latn' <'PLK ' > ) ]
Lookup: 1 0 0 "Single Substitution lookup 3" { "Single Substitution lookup 3 subtable"  } []
Lookup: 6 0 0 "'locl' Localized Forms in Latin lookup 4" { "'locl' Localized Forms in Latin lookup 4 subtable"  } ['locl' ('latn' <'CAT ' > ) ]
Lookup: 4 0 0 "Ligature Substitution lookup 5" { "Ligature Substitution lookup 5 subtable"  } []

StartChar: .notdef
Encoding: 65536 -1 0
Width: 400
GlyphClass: 1
Flags: W
LayerCount: 2
Fore
SplineSet
0 0 m 1,0,-1
 0 700 l 1,1,-1
 400 700 l 1,2,-1
 400 0 l 1,3,-1
 0 0 l 1,0,-1
50 650 m 1,4,-1
 50 50 l 1,5,-1
 350 50 l 1,6,-1
 350 650 l 1,7,-1
 50 650 l 1,4,-1
EndSplineSet
EndChar

StartChar: A
Encoding: 65 65 6
Width: 640
GlyphClass: 2
Flags: W
AnchorPoint: "Anchor-2" 506 0 basechar 0
AnchorPoint: "Anchor-1" 320 0 basechar 0
AnchorPoint: "Anchor-0" 320 721 basechar 0
LayerCount: 2
Fore
SplineSet
191 302 m 1,0,-1
 423 302 l 1,1,-1
 438 229 l 1,2,-1
 175 229 l 1,3,-1
 191 302 l 1,0,-1
294 692 m 1,4,-1
 326 687 l 1,5,-1
 157 95 l 2,6,7
 157 89 157 89 165 83.5 c 128,-1,8
 173 78 173 78 188 75 c 128,-1,9
 203 72 203 72 222 72 c 2,10,-1
 231 72 l 1,11,-1
 231 0 l 1,12,-1
 16 0 l 1,13,-1
 16 72 l 1,14,-1
 21 72 l 2,15,16
 41 72 41 72 57 84 c 128,-1,17
 73 96 73 96 85 136 c 2,18,-1
 259 722 l 1,19,-1
 378 722 l 1,20,-1
 553 136 l 2,21,22
 564 96 564 96 581.5 84 c 128,-1,23
 599 72 599 72 622 72 c 2,24,-1
 626 72 l 1,25,-1
 626 0 l 1,26,-1
 389 0 l 1,27,-1
 389 72 l 1,28,-1
 398 72 l 2,29,30
 420 72 420 72 436 73.5 c 128,-1,31
 452 75 452 75 460 77.5 c 128,-1,32
 468 80 468 80 468 83 c 2,33,-1
 294 692 l 1,4,-1
EndSplineSet
EndChar

StartChar: Aogonek
Encoding: 260 260 15
Width: 640
GlyphClass: 1
Flags: W
LayerCount: 2
Fore
SplineSet
191 302 m 1,0,-1
 423 302 l 1,1,-1
 438 229 l 1,2,-1
 175 229 l 1,3,-1
 191 302 l 1,0,-1
513 40 m 1,4,-1
 541 5 l 1,5,6
 500 -33 500 -33 477 -57 c 128,-1,7
 454 -81 454 -81 444.5 -101.5 c 128,-1,8
 435 -122 435 -122 435 -147 c 0,9,10
 435 -166 435 -166 445 -178 c 128,-1,11
 455 -190 455 -190 474 -190 c 0,12,13
 500 -190 500 -190 517.5 -175 c 128,-1,14
 535 -160 535 -160 546 -143 c 1,15,-1
 588 -179 l 1,16,17
 565 -211 565 -211 533.5 -231.5 c 128,-1,18
 502 -252 502 -252 454 -252 c 0,19,20
 402 -252 402 -252 366.5 -230.5 c 128,-1,21
 331 -209 331 -209 331 -158 c 0,22,23
 331 -131 331 -131 339 -111 c 128,-1,24
 347 -91 347 -91 366.5 -70.5 c 128,-1,25
 386 -50 386 -50 422 -24.5 c 128,-1,26
 458 1 458 1 513 40 c 1,4,-1
626 0 m 1,27,-1
 494 0 l 1,28,-1
 294 692 l 1,29,-1
 323 670 l 1,30,-1
 159 95 l 2,31,32
 159 89 159 89 167 83.5 c 128,-1,33
 175 78 175 78 190 75 c 128,-1,34
 205 72 205 72 225 72 c 2,35,-1
 233 72 l 1,36,-1
 233 0 l 1,37,-1
 16 0 l 1,38,-1
 16 72 l 1,39,-1
 21 72 l 2,40,41
 40 72 40 72 56.5 84 c 128,-1,42
 73 96 73 96 85 136 c 2,43,-1
 259 722 l 1,44,-1
 378 722 l 1,45,-1
 553 136 l 2,46,47
 564 96 564 96 581 84 c 128,-1,48
 598 72 598 72 621 72 c 2,49,-1
 626 72 l 1,50,-1
 626 0 l 1,27,-1
EndSplineSet
EndChar

StartChar: Acaron
Encoding: 461 461 16
Width: 640
GlyphClass: 1
Flags: W
LayerCount: 2
Fore
SplineSet
281 806 m 1,0,-1
 350 806 l 1,1,-1
 467 961 l 1,2,-1
 467 981 l 1,3,-1
 419 981 l 1,4,-1
 259 841 l 1,5,-1
 378 844 l 1,6,-1
 221 981 l 1,7,-1
 163 981 l 1,8,-1
 163 961 l 1,9,-1
 281 806 l 1,0,-1
191 302 m 1,10,-1
 423 302 l 1,11,-1
 438 229 l 1,12,-1
 175 229 l 1,13,-1
 191 302 l 1,10,-1
294 692 m 1,14,-1
 326 687 l 1,15,-1
 157 95 l 2,16,17
 157 89 157 89 165 83.5 c 128,-1,18
 173 78 173 78 188 75 c 128,-1,19
 203 72 203 72 222 72 c 2,20,-1
 231 72 l 1,21,-1
 231 0 l 1,22,-1
 16 0 l 1,23,-1
 16 72 l 1,24,-1
 21 72 l 2,25,26
 41 72 41 72 57 84 c 128,-1,27
 73 96 73 96 85 136 c 2,28,-1
 259 722 l 1,29,-1
 378 722 l 1,30,-1
 553 136 l 2,31,32
 564 96 564 96 581 84 c 128,-1,33
 598 72 598 72 621 72 c 2,34,-1
 626 72 l 1,35,-1
 626 0 l 1,36,-1
 389 0 l 1,37,-1
 389 72 l 1,38,-1
 398 72 l 2,39,40
 420 72 420 72 435.5 73.5 c 128,-1,41
 451 75 451 75 459.5 77.5 c 128,-1,42
 468 80 468 80 468 83 c 2,43,-1
 294 692 l 1,14,-1
EndSplineSet
EndChar

StartChar: Adblgrave
Encoding: 512 512 18
Width: 640
GlyphClass: 1
Flags: W
LayerCount: 2
Fore
SplineSet
403 924 m 2,0,-1
 442 824 l 1,1,-1
 442 793 l 1,2,-1
 403 793 l 1,3,-1
 337 859 l 2,4,5
 318 878 318 878 308 895 c 128,-1,6
 298 912 298 912 298 933 c 0,7,8
 298 950 298 950 310.5 962 c 128,-1,9
 323 974 323 974 344 974 c 0,10,11
 360 974 360 974 371 967 c 128,-1,12
 382 960 382 960 390 949 c 128,-1,13
 398 938 398 938 403 924 c 2,0,-1
229 924 m 2,14,-1
 265 824 l 1,15,-1
 265 793 l 1,16,-1
 227 793 l 1,17,-1
 161 859 l 2,18,19
 142 878 142 878 131.5 895 c 128,-1,20
 121 912 121 912 121 933 c 0,21,22
 121 950 121 950 133.5 962 c 128,-1,23
 146 974 146 974 168 974 c 0,24,25
 184 974 184 974 195.5 967.5 c 128,-1,26
 207 961 207 961 215.5 949.5 c 128,-1,27
 224 938 224 938 229 924 c 2,14,-1
191 302 m 1,28,-1
 423 302 l 1,29,-1
 438 229 l 1,30,-1
 175 229 l 1,31,-1
 191 302 l 1,28,-1
294 692 m 1,32,-1
 326 687 l 1,33,-1
 157 95 l 2,34,35
 157 89 157 89 165 83.5 c 128,-1,36
 173 78 173 78 188 75 c 128,-1,37
 203 72 203 72 222 72 c 2,38,-1
 231 72 l 1,39,-1
 231 0 l 1,40,-1
 16 0 l 1,41,-1
 16 72 l 1,42,-1
 21 72 l 2,43,44
 41 72 41 72 57 84 c 128,-1,45
 73 96 73 96 85 136 c 2,46,-1
 259 722 l 1,47,-1
 378 722 l 1,48,-1
 553 136 l 2,49,50
 564 96 564 96 581 84 c 128,-1,51
 598 72 598 72 621 72 c 2,52,-1
 626 72 l 1,53,-1
 626 0 l 1,54,-1
 389 0 l 1,55,-1
 389 72 l 1,56,-1
 398 72 l 2,57,58
 420 72 420 72 435.5 73.5 c 128,-1,59
 451 75 451 75 459.5 77.5 c 128,-1,60
 468 80 468 80 468 83 c 2,61,-1
 294 692 l 1,32,-1
EndSplineSet
EndChar

StartChar: Ainvertedbreve
Encoding: 514 514 19
Width: 640
GlyphClass: 1
Flags: W
LayerCount: 2
Fore
SplineSet
322 929 m 0,0,1
 271 929 271 929 236.5 913 c 128,-1,2
 202 897 202 897 183.5 861 c 128,-1,3
 165 825 165 825 164 765 c 1,4,-1
 233 765 l 1,5,6
 235 801 235 801 243 820.5 c 128,-1,7
 251 840 251 840 270 847.5 c 128,-1,8
 289 855 289 855 323 855 c 0,9,10
 353 855 353 855 371.5 847.5 c 128,-1,11
 390 840 390 840 398.5 820.5 c 128,-1,12
 407 801 407 801 409 765 c 1,13,-1
 482 765 l 1,14,15
 481 825 481 825 461.5 861 c 128,-1,16
 442 897 442 897 407 913 c 128,-1,17
 372 929 372 929 322 929 c 0,0,1
191 302 m 1,18,-1
 423 302 l 1,19,-1
 438 229 l 1,20,-1
 175 229 l 1,21,-1
 191 302 l 1,18,-1
294 692 m 1,22,-1
 326 687 l 1,23,-1
 157 95 l 2,24,25
 157 89 157 89 165 83.5 c 128,-1,26
 173 78 173 78 188 75 c 128,-1,27
 203 72 203 72 222 72 c 2,28,-1
 231 72 l 1,29,-1
 231 0 l 1,30,-1
 16 0 l 1,31,-1
 16 72 l 1,32,-1
 21 72 l 2,33,34
 41 72 41 72 57 84 c 128,-1,35
 73 96 73 96 85 136 c 2,36,-1
 259 722 l 1,37,-1
 378 722 l 1,38,-1
 553 136 l 2,39,40
 564 96 564 96 581.5 84 c 128,-1,41
 599 72 599 72 621 72 c 2,42,-1
 626 72 l 1,43,-1
 626 0 l 1,44,-1
 389 0 l 1,45,-1
 389 72 l 1,46,-1
 398 72 l 2,47,48
 420 72 420 72 436 73.5 c 128,-1,49
 452 75 452 75 460 77.5 c 128,-1,50
 468 80 468 80 468 83 c 2,51,-1
 294 692 l 1,22,-1
EndSplineSet
EndChar

StartChar: B
Encoding: 66 66 32
Width: 625
GlyphClass: 2
Flags: W
AnchorPoint: "Anchor-0" 319 741 basechar 0
LayerCount: 2
Fore
SplineSet
335 710 m 2,0,1
 385 710 385 710 424 699.5 c 128,-1,2
 463 689 463 689 489.5 667 c 128,-1,3
 516 645 516 645 530 611.5 c 128,-1,4
 544 578 544 578 544 533 c 0,5,6
 544 489 544 489 525 453 c 128,-1,7
 506 417 506 417 469.5 396.5 c 128,-1,8
 433 376 433 376 378 374 c 1,9,-1
 386 389 l 1,10,-1
 386 354 l 1,11,-1
 378 372 l 1,12,13
 441 369 441 369 483.5 346.5 c 128,-1,14
 526 324 526 324 548 286.5 c 128,-1,15
 570 249 570 249 570 197 c 0,16,17
 570 147 570 147 555 109.5 c 128,-1,18
 540 72 540 72 511 48 c 128,-1,19
 482 24 482 24 440 12 c 128,-1,20
 398 0 398 0 343 0 c 2,21,-1
 52 0 l 1,22,-1
 52 72 l 1,23,-1
 61 72 l 2,24,25
 86 72 86 72 105 79 c 128,-1,26
 124 86 124 86 124 108 c 2,27,-1
 124 602 l 2,28,29
 124 624 124 624 105 631 c 128,-1,30
 86 638 86 638 61 638 c 2,31,-1
 52 638 l 1,32,-1
 52 710 l 1,33,-1
 335 710 l 2,0,1
185 406 m 1,34,-1
 328 406 l 2,35,36
 369 406 369 406 394 419.5 c 128,-1,37
 419 433 419 433 431 460.5 c 128,-1,38
 443 488 443 488 443 529 c 0,39,40
 443 565 443 565 432 589.5 c 128,-1,41
 421 614 421 614 396 626.5 c 128,-1,42
 371 639 371 639 329 639 c 2,43,-1
 222 639 l 1,44,-1
 222 71 l 1,45,-1
 336 71 l 2,46,47
 383 71 383 71 411.5 85.5 c 128,-1,48
 440 100 440 100 454 129.5 c 128,-1,49
 468 159 468 159 468 201 c 0,50,51
 468 245 468 245 453 275.5 c 128,-1,52
 438 306 438 306 407 322 c 128,-1,53
 376 338 376 338 327 338 c 2,54,-1
 185 338 l 1,55,-1
 185 406 l 1,34,-1
EndSplineSet
EndChar

StartChar: C
Encoding: 67 67 33
Width: 664
GlyphClass: 2
Flags: W
AnchorPoint: "Anchor-1" 351 0 basechar 0
AnchorPoint: "Anchor-0" 351 741 basechar 0
LayerCount: 2
Fore
SplineSet
340 662 m 0,0,1
 293 662 293 662 258.5 643.5 c 128,-1,2
 224 625 224 625 201.5 588 c 128,-1,3
 179 551 179 551 168.5 493 c 128,-1,4
 158 435 158 435 158 357 c 0,5,6
 158 277 158 277 169 219 c 128,-1,7
 180 161 180 161 203 123 c 128,-1,8
 226 85 226 85 262.5 66.5 c 128,-1,9
 299 48 299 48 349 48 c 0,10,11
 408 48 408 48 446 74 c 128,-1,12
 484 100 484 100 507 141.5 c 128,-1,13
 530 183 530 183 544 227 c 1,14,-1
 611 199 l 1,15,16
 591 132 591 132 555 82 c 128,-1,17
 519 32 519 32 466.5 4.5 c 128,-1,18
 414 -23 414 -23 344 -23 c 0,19,20
 277 -23 277 -23 223.5 1 c 128,-1,21
 170 25 170 25 131.5 73 c 128,-1,22
 93 121 93 121 72.5 192 c 128,-1,23
 52 263 52 263 52 357 c 0,24,25
 52 450 52 450 73 520.5 c 128,-1,26
 94 591 94 591 132 638.5 c 128,-1,27
 170 686 170 686 222 709.5 c 128,-1,28
 274 733 274 733 336 733 c 0,29,30
 394 733 394 733 436.5 707.5 c 128,-1,31
 479 682 479 682 505 631 c 128,-1,32
 531 580 531 580 537 504 c 1,33,-1
 516 536 l 1,34,-1
 529 720 l 1,35,-1
 601 720 l 1,36,-1
 601 470 l 1,37,-1
 522 470 l 1,38,39
 505 531 505 531 480.5 574 c 128,-1,40
 456 617 456 617 421 639.5 c 128,-1,41
 386 662 386 662 340 662 c 0,0,1
EndSplineSet
EndChar

StartChar: Ccaron
Encoding: 268 268 38
Width: 664
GlyphClass: 1
Flags: W
LayerCount: 2
Fore
SplineSet
299 806 m 1,0,-1
 368 806 l 1,1,-1
 485 961 l 1,2,-1
 485 981 l 1,3,-1
 437 981 l 1,4,-1
 277 841 l 1,5,-1
 396 844 l 1,6,-1
 239 981 l 1,7,-1
 181 981 l 1,8,-1
 181 961 l 1,9,-1
 299 806 l 1,0,-1
340 662 m 0,10,11
 293 662 293 662 258.5 643.5 c 128,-1,12
 224 625 224 625 201.5 588 c 128,-1,13
 179 551 179 551 168.5 493 c 128,-1,14
 158 435 158 435 158 357 c 0,15,16
 158 277 158 277 169 219 c 128,-1,17
 180 161 180 161 203 123 c 128,-1,18
 226 85 226 85 262.5 66.5 c 128,-1,19
 299 48 299 48 349 48 c 0,20,21
 408 48 408 48 446 74 c 128,-1,22
 484 100 484 100 507 141.5 c 128,-1,23
 530 183 530 183 544 227 c 1,24,-1
 611 199 l 1,25,26
 591 132 591 132 555 82 c 128,-1,27
 519 32 519 32 466.5 4.5 c 128,-1,28
 414 -23 414 -23 344 -23 c 0,29,30
 277 -23 277 -23 223.5 1 c 128,-1,31
 170 25 170 25 131.5 73 c 128,-1,32
 93 121 93 121 72.5 192 c 128,-1,33
 52 263 52 263 52 357 c 0,34,35
 52 450 52 450 73 520.5 c 128,-1,36
 94 591 94 591 132 638.5 c 128,-1,37
 170 686 170 686 222 709.5 c 128,-1,38
 274 733 274 733 336 733 c 0,39,40
 394 733 394 733 436.5 707.5 c 128,-1,41
 479 682 479 682 505 631 c 128,-1,42
 531 580 531 580 537 504 c 1,43,-1
 516 536 l 1,44,-1
 529 720 l 1,45,-1
 601 720 l 1,46,-1
 601 470 l 1,47,-1
 522 470 l 1,48,49
 505 531 505 531 480.5 574 c 128,-1,50
 456 617 456 617 421 639.5 c 128,-1,51
 386 662 386 662 340 662 c 0,10,11
EndSplineSet
EndChar

StartChar: D
Encoding: 68 68 40
Width: 690
GlyphClass: 2
Flags: W
AnchorPoint: "Anchor-1" 348 0 basechar 0
AnchorPoint: "Anchor-0" 348 741 basechar 0
LayerCount: 2
Fore
SplineSet
52 638 m 1,0,-1
 52 710 l 1,1,-1
 311 710 l 2,2,3
 388 710 388 710 448.5 689 c 128,-1,4
 509 668 509 668 551.5 625 c 128,-1,5
 594 582 594 582 616 515.5 c 128,-1,6
 638 449 638 449 638 359 c 256,7,8
 638 269 638 269 616 201.5 c 128,-1,9
 594 134 594 134 551.5 89.5 c 128,-1,10
 509 45 509 45 448.5 22.5 c 128,-1,11
 388 0 388 0 311 0 c 2,12,-1
 52 0 l 1,13,-1
 52 72 l 1,14,-1
 61 72 l 2,15,16
 86 72 86 72 105 79 c 128,-1,17
 124 86 124 86 124 108 c 2,18,-1
 124 602 l 2,19,20
 124 624 124 624 105 631 c 128,-1,21
 86 638 86 638 61 638 c 2,22,-1
 52 638 l 1,0,-1
308 639 m 2,23,-1
 222 639 l 1,24,-1
 222 71 l 1,25,-1
 308 71 l 2,26,27
 366 71 366 71 408.5 88.5 c 128,-1,28
 451 106 451 106 478.5 141.5 c 128,-1,29
 506 177 506 177 520 231.5 c 128,-1,30
 534 286 534 286 534 359 c 0,31,32
 534 433 534 433 520 486 c 128,-1,33
 506 539 506 539 478.5 573 c 128,-1,34
 451 607 451 607 408.5 623 c 128,-1,35
 366 639 366 639 308 639 c 2,23,-1
EndSplineSet
EndChar

StartChar: Dcaron
Encoding: 270 270 41
Width: 690
GlyphClass: 1
Flags: W
LayerCount: 2
Fore
SplineSet
306 806 m 1,0,-1
 376 806 l 1,1,-1
 492 961 l 1,2,-1
 492 981 l 1,3,-1
 444 981 l 1,4,-1
 285 841 l 1,5,-1
 403 844 l 1,6,-1
 246 981 l 1,7,-1
 189 981 l 1,8,-1
 189 961 l 1,9,-1
 306 806 l 1,0,-1
52 638 m 1,10,-1
 52 710 l 1,11,-1
 311 710 l 2,12,13
 388 710 388 710 448.5 689 c 128,-1,14
 509 668 509 668 551.5 625 c 128,-1,15
 594 582 594 582 616 515.5 c 128,-1,16
 638 449 638 449 638 359 c 256,17,18
 638 269 638 269 616 201.5 c 128,-1,19
 594 134 594 134 551.5 89.5 c 128,-1,20
 509 45 509 45 448.5 22.5 c 128,-1,21
 388 0 388 0 311 0 c 2,22,-1
 52 0 l 1,23,-1
 52 72 l 1,24,-1
 61 72 l 2,25,26
 86 72 86 72 105 79 c 128,-1,27
 124 86 124 86 124 108 c 2,28,-1
 124 602 l 2,29,30
 124 624 124 624 105 631 c 128,-1,31
 86 638 86 638 61 638 c 2,32,-1
 52 638 l 1,10,-1
308 639 m 2,33,-1
 222 639 l 1,34,-1
 222 71 l 1,35,-1
 308 71 l 2,36,37
 366 71 366 71 408.5 88.5 c 128,-1,38
 451 106 451 106 478.5 141.5 c 128,-1,39
 506 177 506 177 520 231.5 c 128,-1,40
 534 286 534 286 534 359 c 0,41,42
 534 433 534 433 520 486 c 128,-1,43
 506 539 506 539 478.5 573 c 128,-1,44
 451 607 451 607 408.5 623 c 128,-1,45
 366 639 366 639 308 639 c 2,33,-1
EndSplineSet
EndChar

StartChar: E
Encoding: 69 69 44
Width: 618
GlyphClass: 2
Flags: W
AnchorPoint: "Anchor-2" 427 0 basechar 0
AnchorPoint: "Anchor-1" 366 0 basechar 0
AnchorPoint: "Anchor-0" 366 741 basechar 0
LayerCount: 2
Fore
SplineSet
557 224 m 1,0,-1
 557 0 l 1,1,-1
 52 0 l 1,2,-1
 52 72 l 1,3,-1
 61 72 l 2,4,5
 86 72 86 72 105 79 c 128,-1,6
 124 86 124 86 124 109 c 2,7,-1
 124 601 l 2,8,9
 124 624 124 624 105 631 c 128,-1,10
 86 638 86 638 61 638 c 2,11,-1
 52 638 l 1,12,-1
 52 710 l 1,13,-1
 538 710 l 1,14,-1
 538 511 l 1,15,-1
 467 511 l 1,16,-1
 456 594 l 2,17,18
 454 612 454 612 442.5 622 c 128,-1,19
 431 632 431 632 408.5 635.5 c 128,-1,20
 386 639 386 639 352 639 c 2,21,-1
 222 639 l 1,22,-1
 222 71 l 1,23,-1
 366 71 l 2,24,25
 393 71 393 71 412.5 73 c 128,-1,26
 432 75 432 75 444.5 80 c 128,-1,27
 457 85 457 85 464 94 c 128,-1,28
 471 103 471 103 472 116 c 2,29,-1
 484 224 l 1,30,-1
 557 224 l 1,0,-1
207 398 m 1,31,32
 249 401 249 401 290.5 403 c 128,-1,33
 332 405 332 405 373 407.5 c 128,-1,34
 414 410 414 410 455 412 c 1,35,-1
 455 319 l 1,36,37
 414 321 414 321 373 323.5 c 128,-1,38
 332 326 332 326 290.5 328 c 128,-1,39
 249 330 249 330 207 332 c 1,40,-1
 207 398 l 1,31,32
EndSplineSet
Substitution2: "'ss01' Style Set 1 lookup 61 subtable" E.alt
EndChar

StartChar: Ecaron
Encoding: 282 282 53
Width: 618
GlyphClass: 1
Flags: W
LayerCount: 2
Fore
SplineSet
283 806 m 1,0,-1
 352 806 l 1,1,-1
 469 961 l 1,2,-1
 469 981 l 1,3,-1
 421 981 l 1,4,-1
 261 841 l 1,5,-1
 380 844 l 1,6,-1
 222 981 l 1,7,-1
 165 981 l 1,8,-1
 165 961 l 1,9,-1
 283 806 l 1,0,-1
557 224 m 1,10,-1
 557 0 l 1,11,-1
 52 0 l 1,12,-1
 52 72 l 1,13,-1
 61 72 l 2,14,15
 86 72 86 72 105 79 c 128,-1,16
 124 86 124 86 124 109 c 2,17,-1
 124 601 l 2,18,19
 124 624 124 624 105 631 c 128,-1,20
 86 638 86 638 61 638 c 2,21,-1
 52 638 l 1,22,-1
 52 710 l 1,23,-1
 538 710 l 1,24,-1
 538 511 l 1,25,-1
 467 511 l 1,26,-1
 456 594 l 2,27,28
 454 612 454 612 442.5 622 c 128,-1,29
 431 632 431 632 408.5 635.5 c 128,-1,30
 386 639 386 639 352 639 c 2,31,-1
 222 639 l 1,32,-1
 222 71 l 1,33,-1
 366 71 l 2,34,35
 393 71 393 71 412.5 73 c 128,-1,36
 432 75 432 75 444.5 80 c 128,-1,37
 457 85 457 85 464 94 c 128,-1,38
 471 103 471 103 472 116 c 2,39,-1
 484 224 l 1,40,-1
 557 224 l 1,10,-1
207 398 m 1,41,42
 249 401 249 401 290.5 403 c 128,-1,43
 332 405 332 405 373 407.5 c 128,-1,44
 414 410 414 410 455 412 c 1,45,-1
 455 319 l 1,46,47
 414 321 414 321 373 323.5 c 128,-1,48
 332 326 332 326 290.5 328 c 128,-1,49
 249 330 249 330 207 332 c 1,50,-1
 207 398 l 1,41,42
EndSplineSet
Substitution2: "'ss01' Style Set 1 lookup 61 subtable" Ecaron.alt
EndChar

StartChar: Edblgrave
Encoding: 516 516 54
Width: 618
GlyphClass: 1
Flags: W
LayerCount: 2
Fore
SplineSet
386 924 m 2,0,-1
 425 824 l 1,1,-1
 425 793 l 1,2,-1
 386 793 l 1,3,-1
 320 859 l 2,4,5
 301 878 301 878 291 895 c 128,-1,6
 281 912 281 912 281 933 c 0,7,8
 281 950 281 950 293.5 962 c 128,-1,9
 306 974 306 974 327 974 c 0,10,11
 344 974 344 974 354.5 967 c 128,-1,12
 365 960 365 960 373 949 c 128,-1,13
 381 938 381 938 386 924 c 2,0,-1
212 924 m 2,14,-1
 248 824 l 1,15,-1
 248 793 l 1,16,-1
 209 793 l 1,17,-1
 144 859 l 2,18,19
 125 878 125 878 114.5 895 c 128,-1,20
 104 912 104 912 104 933 c 0,21,22
 104 950 104 950 116.5 962 c 128,-1,23
 129 974 129 974 151 974 c 0,24,25
 167 974 167 974 178.5 967.5 c 128,-1,26
 190 961 190 961 198.5 949.5 c 128,-1,27
 207 938 207 938 212 924 c 2,14,-1
557 224 m 1,28,-1
 557 0 l 1,29,-1
 52 0 l 1,30,-1
 52 72 l 1,31,-1
 61 72 l 2,32,33
 86 72 86 72 105 79 c 128,-1,34
 124 86 124 86 124 108 c 2,35,-1
 124 602 l 2,36,37
 124 624 124 624 105 631 c 128,-1,38
 86 638 86 638 61 638 c 2,39,-1
 52 638 l 1,40,-1
 52 710 l 1,41,-1
 538 710 l 1,42,-1
 538 511 l 1,43,-1
 467 511 l 1,44,-1
 456 594 l 2,45,46
 454 612 454 612 442.5 621.5 c 128,-1,47
 431 631 431 631 409 635 c 128,-1,48
 387 639 387 639 352 639 c 2,49,-1
 222 639 l 1,50,-1
 222 71 l 1,51,-1
 366 71 l 2,52,53
 393 71 393 71 412.5 73 c 128,-1,54
 432 75 432 75 444.5 80 c 128,-1,55
 457 85 457 85 464 94 c 128,-1,56
 471 103 471 103 472 116 c 2,57,-1
 484 224 l 1,58,-1
 557 224 l 1,28,-1
207 398 m 1,59,60
 249 401 249 401 290.5 403 c 128,-1,61
 332 405 332 405 373 407.5 c 128,-1,62
 414 410 414 410 455 412 c 1,63,-1
 455 319 l 1,64,65
 414 321 414 321 373 323 c 128,-1,66
 332 325 332 325 290.5 327.5 c 128,-1,67
 249 330 249 330 207 332 c 1,68,-1
 207 398 l 1,59,60
EndSplineSet
Substitution2: "'ss01' Style Set 1 lookup 61 subtable" Edblgrave.alt
EndChar

StartChar: Einvertedbreve
Encoding: 518 518 55
Width: 618
GlyphClass: 1
Flags: W
LayerCount: 2
Fore
SplineSet
304 929 m 0,0,1
 253 929 253 929 218.5 913 c 128,-1,2
 184 897 184 897 165.5 861 c 128,-1,3
 147 825 147 825 146 765 c 1,4,-1
 214 765 l 1,5,6
 217 801 217 801 225 820.5 c 128,-1,7
 233 840 233 840 252 847.5 c 128,-1,8
 271 855 271 855 304 855 c 0,9,10
 334 855 334 855 352.5 847.5 c 128,-1,11
 371 840 371 840 380 820.5 c 128,-1,12
 389 801 389 801 390 765 c 1,13,-1
 463 765 l 1,14,15
 462 825 462 825 443 861 c 128,-1,16
 424 897 424 897 388.5 913 c 128,-1,17
 353 929 353 929 304 929 c 0,0,1
557 224 m 1,18,-1
 557 0 l 1,19,-1
 52 0 l 1,20,-1
 52 72 l 1,21,-1
 61 72 l 2,22,23
 86 72 86 72 105 79 c 128,-1,24
 124 86 124 86 124 109 c 2,25,-1
 124 601 l 2,26,27
 124 624 124 624 105 631 c 128,-1,28
 86 638 86 638 61 638 c 2,29,-1
 52 638 l 1,30,-1
 52 710 l 1,31,-1
 538 710 l 1,32,-1
 538 511 l 1,33,-1
 467 511 l 1,34,-1
 456 594 l 2,35,36
 454 612 454 612 442.5 622 c 128,-1,37
 431 632 431 632 409 635.5 c 128,-1,38
 387 639 387 639 352 639 c 2,39,-1
 222 639 l 1,40,-1
 222 71 l 1,41,-1
 366 71 l 2,42,43
 393 71 393 71 412.5 73 c 128,-1,44
 432 75 432 75 444.5 80 c 128,-1,45
 457 85 457 85 464 94 c 128,-1,46
 471 103 471 103 472 116 c 2,47,-1
 484 224 l 1,48,-1
 557 224 l 1,18,-1
207 398 m 1,49,50
 249 401 249 401 290.5 403 c 128,-1,51
 332 405 332 405 373.5 407.5 c 128,-1,52
 415 410 415 410 455 412 c 1,53,-1
 455 319 l 1,54,55
 414 321 414 321 373 323 c 128,-1,56
 332 325 332 325 290.5 327.5 c 128,-1,57
 249 330 249 330 207 332 c 1,58,-1
 207 398 l 1,49,50
EndSplineSet
Substitution2: "'ss01' Style Set 1 lookup 61 subtable" Einvertedbreve.alt
EndChar

StartChar: F
Encoding: 70 70 67
Width: 592
GlyphClass: 2
Flags: W
AnchorPoint: "Anchor-0" 312 741 basechar 0
LayerCount: 2
Fore
SplineSet
222 639 m 1,0,-1
 222 83 l 2,1,2
 222 80 222 80 228.5 78 c 128,-1,3
 235 76 235 76 246.5 74.5 c 128,-1,4
 258 73 258 73 272 72.5 c 128,-1,5
 286 72 286 72 301 72 c 2,6,-1
 318 72 l 1,7,-1
 318 0 l 1,8,-1
 52 0 l 1,9,-1
 52 72 l 1,10,-1
 61 72 l 2,11,12
 86 72 86 72 105 79 c 128,-1,13
 124 86 124 86 124 109 c 2,14,-1
 124 601 l 2,15,16
 124 624 124 624 105 631 c 128,-1,17
 86 638 86 638 61 638 c 2,18,-1
 52 638 l 1,19,-1
 52 710 l 1,20,-1
 538 710 l 1,21,-1
 538 507 l 1,22,-1
 467 507 l 1,23,-1
 456 594 l 2,24,25
 454 612 454 612 442.5 622 c 128,-1,26
 431 632 431 632 408.5 635.5 c 128,-1,27
 386 639 386 639 352 639 c 2,28,-1
 222 639 l 1,0,-1
207 391 m 1,29,30
 249 393 249 393 290.5 395 c 128,-1,31
 332 397 332 397 373 399.5 c 128,-1,32
 414 402 414 402 455 404 c 1,33,-1
 455 311 l 1,34,35
 414 315 414 315 373 317 c 128,-1,36
 332 319 332 319 290.5 321 c 128,-1,37
 249 323 249 323 207 325 c 1,38,-1
 207 391 l 1,29,30
EndSplineSet
Substitution2: "'ss01' Style Set 1 lookup 61 subtable" F.alt
EndChar

StartChar: G
Encoding: 71 71 68
Width: 703
GlyphClass: 2
Flags: W
AnchorPoint: "Anchor-1" 358 0 basechar 0
AnchorPoint: "Anchor-0" 358 741 basechar 0
LayerCount: 2
Fore
SplineSet
599 234 m 2,0,-1
 599 86 l 1,1,2
 582 64 582 64 557.5 44.5 c 128,-1,3
 533 25 533 25 502 9.5 c 128,-1,4
 471 -6 471 -6 434.5 -14.5 c 128,-1,5
 398 -23 398 -23 356 -23 c 0,6,7
 286 -23 286 -23 230 1 c 128,-1,8
 174 25 174 25 134 73 c 128,-1,9
 94 121 94 121 73 192 c 128,-1,10
 52 263 52 263 52 357 c 0,11,12
 52 450 52 450 74 520.5 c 128,-1,13
 96 591 96 591 135 638.5 c 128,-1,14
 174 686 174 686 227.5 709.5 c 128,-1,15
 281 733 281 733 343 733 c 0,16,17
 401 733 401 733 441.5 710.5 c 128,-1,18
 482 688 482 688 507 643 c 128,-1,19
 532 598 532 598 541 531 c 1,20,-1
 518 560 l 1,21,-1
 531 720 l 1,22,-1
 603 720 l 1,23,-1
 603 500 l 1,24,-1
 529 500 l 1,25,26
 514 548 514 548 489.5 584.5 c 128,-1,27
 465 621 465 621 430 641.5 c 128,-1,28
 395 662 395 662 347 662 c 0,29,30
 301 662 301 662 265.5 643.5 c 128,-1,31
 230 625 230 625 206 587.5 c 128,-1,32
 182 550 182 550 170 492.5 c 128,-1,33
 158 435 158 435 158 357 c 0,34,35
 158 277 158 277 170 218 c 128,-1,36
 182 159 182 159 206.5 121.5 c 128,-1,37
 231 84 231 84 269 66 c 128,-1,38
 307 48 307 48 358 48 c 0,39,40
 392 48 392 48 420 56.5 c 128,-1,41
 448 65 448 65 469.5 78.5 c 128,-1,42
 491 92 491 92 505 108 c 1,43,-1
 505 234 l 2,44,45
 505 259 505 259 481.5 266.5 c 128,-1,46
 458 274 458 274 426 274 c 2,47,-1
 400 274 l 1,48,-1
 400 347 l 1,49,-1
 682 347 l 1,50,-1
 682 274 l 1,51,-1
 661 274 l 2,52,53
 631 274 631 274 615 266.5 c 128,-1,54
 599 259 599 259 599 234 c 2,0,-1
EndSplineSet
EndChar

StartChar: Gcaron
Encoding: 486 486 73
Width: 703
GlyphClass: 1
Flags: W
LayerCount: 2
Fore
SplineSet
318 806 m 1,0,-1
 388 806 l 1,1,-1
 504 961 l 1,2,-1
 504 981 l 1,3,-1
 456 981 l 1,4,-1
 297 841 l 1,5,-1
 415 844 l 1,6,-1
 258 981 l 1,7,-1
 201 981 l 1,8,-1
 201 961 l 1,9,-1
 318 806 l 1,0,-1
599 234 m 2,10,-1
 599 86 l 1,11,12
 582 64 582 64 557.5 44.5 c 128,-1,13
 533 25 533 25 502 9.5 c 128,-1,14
 471 -6 471 -6 434.5 -14.5 c 128,-1,15
 398 -23 398 -23 356 -23 c 0,16,17
 286 -23 286 -23 230 1 c 128,-1,18
 174 25 174 25 134 73 c 128,-1,19
 94 121 94 121 73 192 c 128,-1,20
 52 263 52 263 52 357 c 0,21,22
 52 450 52 450 74 520.5 c 128,-1,23
 96 591 96 591 135 638.5 c 128,-1,24
 174 686 174 686 227.5 709.5 c 128,-1,25
 281 733 281 733 343 733 c 0,26,27
 401 733 401 733 441.5 710.5 c 128,-1,28
 482 688 482 688 507 643 c 128,-1,29
 532 598 532 598 541 531 c 1,30,-1
 518 560 l 1,31,-1
 531 720 l 1,32,-1
 603 720 l 1,33,-1
 603 500 l 1,34,-1
 529 500 l 1,35,36
 514 548 514 548 489.5 584.5 c 128,-1,37
 465 621 465 621 430 641.5 c 128,-1,38
 395 662 395 662 347 662 c 0,39,40
 301 662 301 662 265.5 643.5 c 128,-1,41
 230 625 230 625 206 587.5 c 128,-1,42
 182 550 182 550 170 492.5 c 128,-1,43
 158 435 158 435 158 357 c 0,44,45
 158 277 158 277 170 218 c 128,-1,46
 182 159 182 159 206.5 121.5 c 128,-1,47
 231 84 231 84 269 66 c 128,-1,48
 307 48 307 48 358 48 c 0,49,50
 392 48 392 48 420 56.5 c 128,-1,51
 448 65 448 65 469.5 78.5 c 128,-1,52
 491 92 491 92 505 108 c 1,53,-1
 505 234 l 2,54,55
 505 259 505 259 481.5 266.5 c 128,-1,56
 458 274 458 274 426 274 c 2,57,-1
 400 274 l 1,58,-1
 400 347 l 1,59,-1
 682 347 l 1,60,-1
 682 274 l 1,61,-1
 661 274 l 2,62,63
 631 274 631 274 615 266.5 c 128,-1,64
 599 259 599 259 599 234 c 2,10,-1
EndSplineSet
EndChar

StartChar: H
Encoding: 72 72 75
Width: 751
GlyphClass: 2
Flags: W
AnchorPoint: "Anchor-1" 375 0 basechar 0
AnchorPoint: "Anchor-0" 375 741 basechar 0
LayerCount: 2
Fore
SplineSet
196 403 m 1,0,-1
 551 403 l 1,1,-1
 551 329 l 1,2,-1
 196 329 l 1,3,-1
 196 403 l 1,0,-1
52 0 m 1,4,-1
 52 72 l 1,5,-1
 61 72 l 2,6,7
 86 72 86 72 105 79 c 128,-1,8
 124 86 124 86 124 109 c 2,9,-1
 124 601 l 2,10,11
 124 624 124 624 105 631 c 128,-1,12
 86 638 86 638 61 638 c 2,13,-1
 52 638 l 1,14,-1
 52 710 l 1,15,-1
 301 710 l 1,16,-1
 301 638 l 1,17,-1
 293 638 l 2,18,19
 282 638 282 638 269.5 637.5 c 128,-1,20
 257 637 257 637 246.5 635.5 c 128,-1,21
 236 634 236 634 229 632.5 c 128,-1,22
 222 631 222 631 222 628 c 2,23,-1
 222 81 l 2,24,25
 222 79 222 79 229 77.5 c 128,-1,26
 236 76 236 76 246.5 74.5 c 128,-1,27
 257 73 257 73 269.5 72.5 c 128,-1,28
 282 72 282 72 293 72 c 2,29,-1
 301 72 l 1,30,-1
 301 0 l 1,31,-1
 52 0 l 1,4,-1
450 0 m 1,32,-1
 450 72 l 1,33,-1
 458 72 l 2,34,35
 469 72 469 72 481.5 72.5 c 128,-1,36
 494 73 494 73 504.5 74.5 c 128,-1,37
 515 76 515 76 522 77.5 c 128,-1,38
 529 79 529 79 529 82 c 2,39,-1
 529 629 l 2,40,41
 529 631 529 631 522 632.5 c 128,-1,42
 515 634 515 634 504.5 635.5 c 128,-1,43
 494 637 494 637 481.5 637.5 c 128,-1,44
 469 638 469 638 458 638 c 2,45,-1
 450 638 l 1,46,-1
 450 710 l 1,47,-1
 699 710 l 1,48,-1
 699 638 l 1,49,-1
 689 638 l 2,50,51
 665 638 665 638 646 631 c 128,-1,52
 627 624 627 624 627 601 c 2,53,-1
 627 109 l 2,54,55
 627 86 627 86 646 79 c 128,-1,56
 665 72 665 72 689 72 c 2,57,-1
 699 72 l 1,58,-1
 699 0 l 1,59,-1
 450 0 l 1,32,-1
EndSplineSet
EndChar

StartChar: I
Encoding: 73 73 79
Width: 364
GlyphClass: 2
Flags: W
AnchorPoint: "Anchor-2" 239 0 basechar 0
AnchorPoint: "Anchor-1" 182 0 basechar 0
AnchorPoint: "Anchor-0" 182 741 basechar 0
LayerCount: 2
Fore
SplineSet
133 109 m 2,0,-1
 133 601 l 2,1,2
 133 624 133 624 113.5 631 c 128,-1,3
 94 638 94 638 66 638 c 2,4,-1
 50 638 l 1,5,-1
 50 710 l 1,6,-1
 314 710 l 1,7,-1
 314 638 l 1,8,-1
 297 638 l 2,9,10
 270 638 270 638 250.5 631 c 128,-1,11
 231 624 231 624 231 601 c 2,12,-1
 231 109 l 2,13,14
 231 86 231 86 250.5 79 c 128,-1,15
 270 72 270 72 297 72 c 2,16,-1
 314 72 l 1,17,-1
 314 0 l 1,18,-1
 50 0 l 1,19,-1
 50 72 l 1,20,-1
 66 72 l 2,21,22
 94 72 94 72 113.5 79 c 128,-1,23
 133 86 133 86 133 109 c 2,0,-1
EndSplineSet
EndChar

StartChar: Icaron
Encoding: 463 463 89
Width: 364
GlyphClass: 1
Flags: W
LayerCount: 2
Fore
SplineSet
148 806 m 1,0,-1
 217 806 l 1,1,-1
 334 961 l 1,2,-1
 334 981 l 1,3,-1
 286 981 l 1,4,-1
 126 841 l 1,5,-1
 245 844 l 1,6,-1
 87 981 l 1,7,-1
 30 981 l 1,8,-1
 30 961 l 1,9,-1
 148 806 l 1,0,-1
133 109 m 2,10,-1
 133 601 l 2,11,12
 133 624 133 624 113.5 631 c 128,-1,13
 94 638 94 638 66 638 c 2,14,-1
 50 638 l 1,15,-1
 50 710 l 1,16,-1
 314 710 l 1,17,-1
 314 638 l 1,18,-1
 297 638 l 2,19,20
 270 638 270 638 250.5 631 c 128,-1,21
 231 624 231 624 231 601 c 2,22,-1
 231 109 l 2,23,24
 231 86 231 86 250.5 79 c 128,-1,25
 270 72 270 72 297 72 c 2,26,-1
 314 72 l 1,27,-1
 314 0 l 1,28,-1
 50 0 l 1,29,-1
 50 72 l 1,30,-1
 66 72 l 2,31,32
 94 72 94 72 113.5 79 c 128,-1,33
 133 86 133 86 133 109 c 2,10,-1
EndSplineSet
EndChar

StartChar: Idblgrave
Encoding: 520 520 90
Width: 364
GlyphClass: 1
Flags: W
LayerCount: 2
Fore
SplineSet
265 924 m 2,0,-1
 304 824 l 1,1,-1
 304 793 l 1,2,-1
 265 793 l 1,3,-1
 199 859 l 2,4,5
 180 878 180 878 170 895 c 128,-1,6
 160 912 160 912 160 933 c 0,7,8
 160 950 160 950 172 962 c 128,-1,9
 184 974 184 974 206 974 c 0,10,11
 221 974 221 974 232.5 967 c 128,-1,12
 244 960 244 960 251.5 949 c 128,-1,13
 259 938 259 938 265 924 c 2,0,-1
90 924 m 2,14,-1
 127 824 l 1,15,-1
 127 793 l 1,16,-1
 88 793 l 1,17,-1
 22 859 l 2,18,19
 4 878 4 878 -7 895 c 128,-1,20
 -18 912 -18 912 -18 933 c 0,21,22
 -18 950 -18 950 -5 962 c 128,-1,23
 8 974 8 974 29 974 c 0,24,25
 45 974 45 974 57 967.5 c 128,-1,26
 69 961 69 961 77.5 949.5 c 128,-1,27
 86 938 86 938 90 924 c 2,14,-1
133 108 m 2,28,-1
 133 602 l 2,29,30
 133 624 133 624 113.5 631 c 128,-1,31
 94 638 94 638 66 638 c 2,32,-1
 50 638 l 1,33,-1
 50 710 l 1,34,-1
 314 710 l 1,35,-1
 314 638 l 1,36,-1
 297 638 l 2,37,38
 270 638 270 638 250.5 631 c 128,-1,39
 231 624 231 624 231 602 c 2,40,-1
 231 108 l 2,41,42
 231 86 231 86 250.5 79 c 128,-1,43
 270 72 270 72 297 72 c 2,44,-1
 314 72 l 1,45,-1
 314 0 l 1,46,-1
 50 0 l 1,47,-1
 50 72 l 1,48,-1
 66 72 l 2,49,50
 94 72 94 72 113.5 79 c 128,-1,51
 133 86 133 86 133 108 c 2,28,-1
EndSplineSet
EndChar

StartChar: Iinvertedbreve
Encoding: 522 522 91
Width: 364
GlyphClass: 1
Flags: W
LayerCount: 2
Fore
SplineSet
182 929 m 0,0,1
 131 929 131 929 96.5 913 c 128,-1,2
 62 897 62 897 43.5 861 c 128,-1,3
 25 825 25 825 24 765 c 1,4,-1
 93 765 l 1,5,6
 95 801 95 801 103 820.5 c 128,-1,7
 111 840 111 840 130 847.5 c 128,-1,8
 149 855 149 855 183 855 c 0,9,10
 213 855 213 855 231.5 847.5 c 128,-1,11
 250 840 250 840 258.5 820.5 c 128,-1,12
 267 801 267 801 269 765 c 1,13,-1
 342 765 l 1,14,15
 341 825 341 825 321.5 861 c 128,-1,16
 302 897 302 897 267 913 c 128,-1,17
 232 929 232 929 182 929 c 0,0,1
133 109 m 2,18,-1
 133 601 l 2,19,20
 133 624 133 624 113.5 631 c 128,-1,21
 94 638 94 638 66 638 c 2,22,-1
 50 638 l 1,23,-1
 50 710 l 1,24,-1
 314 710 l 1,25,-1
 314 638 l 1,26,-1
 297 638 l 2,27,28
 270 638 270 638 250.5 631 c 128,-1,29
 231 624 231 624 231 601 c 2,30,-1
 231 109 l 2,31,32
 231 86 231 86 250.5 79 c 128,-1,33
 270 72 270 72 297 72 c 2,34,-1
 314 72 l 1,35,-1
 314 0 l 1,36,-1
 50 0 l 1,37,-1
 50 72 l 1,38,-1
 66 72 l 2,39,40
 94 72 94 72 113.5 79 c 128,-1,41
 133 86 133 86 133 109 c 2,18,-1
EndSplineSet
EndChar

StartChar: J
Encoding: 74 74 94
Width: 578
GlyphClass: 2
Flags: W
AnchorPoint: "Anchor-0" 389 741 basechar 0
LayerCount: 2
Fore
SplineSet
269 710 m 1,0,-1
 539 710 l 1,1,-1
 539 638 l 1,2,-1
 522 638 l 2,3,4
 496 638 496 638 477.5 631 c 128,-1,5
 459 624 459 624 459 602 c 2,6,-1
 459 201 l 2,7,8
 459 140 459 140 442 97 c 128,-1,9
 425 54 425 54 395 28 c 128,-1,10
 365 2 365 2 324.5 -10.5 c 128,-1,11
 284 -23 284 -23 237 -23 c 0,12,13
 187 -23 187 -23 149 -11 c 128,-1,14
 111 1 111 1 86 17.5 c 128,-1,15
 61 34 61 34 46 46 c 1,16,-1
 46 214 l 1,17,-1
 150 214 l 1,18,-1
 150 36 l 1,19,20
 136 41 136 41 125 52 c 128,-1,21
 114 63 114 63 107.5 74 c 128,-1,22
 101 85 101 85 102 93 c 128,-1,23
 103 101 103 101 112 101 c 1,24,25
 125 90 125 90 142.5 78 c 128,-1,26
 160 66 160 66 182.5 57.5 c 128,-1,27
 205 49 205 49 236 49 c 0,28,29
 276 49 276 49 304 61.5 c 128,-1,30
 332 74 332 74 346.5 107 c 128,-1,31
 361 140 361 140 361 201 c 2,32,-1
 361 602 l 2,33,34
 361 617 361 617 351.5 624.5 c 128,-1,35
 342 632 342 632 326 635 c 128,-1,36
 310 638 310 638 291 638 c 2,37,-1
 269 638 l 1,38,-1
 269 710 l 1,0,-1
EndSplineSet
EndChar

StartChar: K
Encoding: 75 75 96
Width: 683
GlyphClass: 2
Flags: W
AnchorPoint: "Anchor-1" 352 0 basechar 0
AnchorPoint: "Anchor-0" 352 741 basechar 0
LayerCount: 2
Fore
SplineSet
52 0 m 1,0,-1
 52 72 l 1,1,-1
 61 72 l 2,2,3
 86 72 86 72 105 79 c 128,-1,4
 124 86 124 86 124 109 c 2,5,-1
 124 601 l 2,6,7
 124 624 124 624 105 631 c 128,-1,8
 86 638 86 638 61 638 c 2,9,-1
 52 638 l 1,10,-1
 52 710 l 1,11,-1
 298 710 l 1,12,-1
 298 638 l 1,13,-1
 290 638 l 2,14,15
 280 638 280 638 267.5 637.5 c 128,-1,16
 255 637 255 637 245 635.5 c 128,-1,17
 235 634 235 634 228.5 632.5 c 128,-1,18
 222 631 222 631 222 628 c 2,19,-1
 222 82 l 2,20,21
 222 79 222 79 228 77.5 c 128,-1,22
 234 76 234 76 244.5 74.5 c 128,-1,23
 255 73 255 73 267 72.5 c 128,-1,24
 279 72 279 72 289 72 c 2,25,-1
 296 72 l 1,26,-1
 296 0 l 1,27,-1
 52 0 l 1,0,-1
400 0 m 1,28,-1
 400 72 l 1,29,-1
 407 72 l 2,30,31
 425 72 425 72 440 73 c 128,-1,32
 455 74 455 74 465.5 76.5 c 128,-1,33
 476 79 476 79 476 82 c 2,34,-1
 263 348 l 1,35,-1
 263 371 l 1,36,-1
 487 627 l 2,37,38
 487 631 487 631 477 633 c 128,-1,39
 467 635 467 635 452 636.5 c 128,-1,40
 437 638 437 638 421 638 c 2,41,-1
 413 638 l 1,42,-1
 413 710 l 1,43,-1
 639 710 l 1,44,-1
 639 638 l 1,45,-1
 617 638 l 2,46,47
 607 638 607 638 598.5 635.5 c 128,-1,48
 590 633 590 633 581 627 c 128,-1,49
 572 621 572 621 563 609 c 2,50,-1
 338 354 l 1,51,-1
 342 396 l 1,52,-1
 584 95 l 2,53,54
 592 85 592 85 601 80 c 128,-1,55
 610 75 610 75 620.5 73.5 c 128,-1,56
 631 72 631 72 642 72 c 2,57,-1
 663 72 l 1,58,-1
 663 0 l 1,59,-1
 400 0 l 1,28,-1
EndSplineSet
EndChar

StartChar: L
Encoding: 76 76 98
Width: 577
GlyphClass: 2
Flags: W
AnchorPoint: "Anchor-2" 439 710 basechar 0
AnchorPoint: "Anchor-1" 353 0 basechar 0
AnchorPoint: "Anchor-0" 353 741 basechar 0
LayerCount: 2
Fore
SplineSet
311 710 m 1,0,-1
 52 710 l 1,1,-1
 52 638 l 1,2,-1
 61 638 l 2,3,4
 86 638 86 638 105 631 c 128,-1,5
 124 624 124 624 124 601 c 2,6,-1
 124 109 l 2,7,8
 124 86 124 86 105 79 c 128,-1,9
 86 72 86 72 61 72 c 2,10,-1
 52 72 l 1,11,-1
 52 0 l 1,12,-1
 531 0 l 1,13,-1
 531 234 l 1,14,-1
 458 234 l 1,15,-1
 446 116 l 2,16,17
 445 98 445 98 433.5 88 c 128,-1,18
 422 78 422 78 399.5 74.5 c 128,-1,19
 377 71 377 71 340 71 c 2,20,-1
 222 71 l 1,21,-1
 222 601 l 2,22,23
 222 624 222 624 243.5 631 c 128,-1,24
 265 638 265 638 298 638 c 2,25,-1
 311 638 l 1,26,-1
 311 710 l 1,0,-1
EndSplineSet
EndChar

StartChar: M
Encoding: 77 77 104
Width: 866
GlyphClass: 2
Flags: W
AnchorPoint: "Anchor-1" 423 0 basechar 0
LayerCount: 2
Fore
SplineSet
52 0 m 1,0,-1
 52 72 l 1,1,-1
 61 72 l 2,2,3
 78 72 78 72 92 75 c 128,-1,4
 106 78 106 78 115 86.5 c 128,-1,5
 124 95 124 95 124 109 c 2,6,-1
 124 602 l 2,7,8
 124 617 124 617 115 624.5 c 128,-1,9
 106 632 106 632 92 635 c 128,-1,10
 78 638 78 638 61 638 c 2,11,-1
 52 638 l 1,12,-1
 52 710 l 1,13,-1
 284 710 l 1,14,-1
 452 99 l 1,15,-1
 399 78 l 1,16,-1
 583 710 l 1,17,-1
 814 710 l 1,18,-1
 814 638 l 1,19,-1
 805 638 l 2,20,21
 780 638 780 638 759.5 631 c 128,-1,22
 739 624 739 624 739 601 c 2,23,-1
 739 109 l 2,24,25
 739 86 739 86 759.5 79 c 128,-1,26
 780 72 780 72 805 72 c 2,27,-1
 814 72 l 1,28,-1
 814 0 l 1,29,-1
 574 0 l 1,30,-1
 574 72 l 1,31,-1
 582 72 l 2,32,33
 594 72 594 72 607.5 73 c 128,-1,34
 621 74 621 74 631 76.5 c 128,-1,35
 641 79 641 79 641 82 c 2,36,-1
 641 694 l 1,37,-1
 660 702 l 1,38,-1
 448 -2 l 1,39,-1
 390 -2 l 1,40,-1
 187 704 l 1,41,-1
 203 692 l 1,42,-1
 203 82 l 2,43,44
 203 79 203 79 213 76.5 c 128,-1,45
 223 74 223 74 236 73 c 128,-1,46
 249 72 249 72 255 72 c 2,47,-1
 258 72 l 1,48,-1
 258 0 l 1,49,-1
 52 0 l 1,0,-1
EndSplineSet
EndChar

StartChar: N
Encoding: 78 78 106
Width: 724
GlyphClass: 2
Flags: W
AnchorPoint: "Anchor-1" 370 0 basechar 0
AnchorPoint: "Anchor-0" 370 741 basechar 0
LayerCount: 2
Fore
SplineSet
52 0 m 1,0,-1
 52 72 l 1,1,-1
 61 72 l 2,2,3
 78 72 78 72 92 75 c 128,-1,4
 106 78 106 78 115 86.5 c 128,-1,5
 124 95 124 95 124 109 c 2,6,-1
 124 602 l 2,7,8
 124 617 124 617 115 624.5 c 128,-1,9
 106 632 106 632 92 635 c 128,-1,10
 78 638 78 638 61 638 c 2,11,-1
 52 638 l 1,12,-1
 52 710 l 1,13,-1
 255 710 l 1,14,-1
 564 79 l 1,15,-1
 529 75 l 1,16,-1
 529 627 l 2,17,18
 529 631 529 631 518 633.5 c 128,-1,19
 507 636 507 636 493.5 637 c 128,-1,20
 480 638 480 638 470 638 c 2,21,-1
 458 638 l 1,22,-1
 458 710 l 1,23,-1
 683 710 l 1,24,-1
 683 638 l 1,25,-1
 674 638 l 2,26,27
 657 638 657 638 642.5 634.5 c 128,-1,28
 628 631 628 631 619 624 c 128,-1,29
 610 617 610 617 610 602 c 2,30,-1
 610 0 l 1,31,-1
 506 0 l 1,32,-1
 169 675 l 1,33,-1
 204 674 l 1,34,-1
 204 82 l 2,35,36
 204 79 204 79 214.5 76.5 c 128,-1,37
 225 74 225 74 240 73 c 128,-1,38
 255 72 255 72 264 72 c 2,39,-1
 276 72 l 1,40,-1
 276 0 l 1,41,-1
 52 0 l 1,0,-1
EndSplineSet
EndChar

StartChar: Ncaron
Encoding: 327 327 110
Width: 724
GlyphClass: 1
Flags: W
LayerCount: 2
Fore
SplineSet
336 806 m 1,0,-1
 405 806 l 1,1,-1
 522 961 l 1,2,-1
 522 981 l 1,3,-1
 474 981 l 1,4,-1
 314 841 l 1,5,-1
 433 844 l 1,6,-1
 276 981 l 1,7,-1
 219 981 l 1,8,-1
 219 961 l 1,9,-1
 336 806 l 1,0,-1
52 0 m 1,10,-1
 52 72 l 1,11,-1
 61 72 l 2,12,13
 78 72 78 72 92 75 c 128,-1,14
 106 78 106 78 115 86.5 c 128,-1,15
 124 95 124 95 124 109 c 2,16,-1
 124 602 l 2,17,18
 124 617 124 617 115 624.5 c 128,-1,19
 106 632 106 632 92 635 c 128,-1,20
 78 638 78 638 61 638 c 2,21,-1
 52 638 l 1,22,-1
 52 710 l 1,23,-1
 255 710 l 1,24,-1
 564 79 l 1,25,-1
 529 75 l 1,26,-1
 529 627 l 2,27,28
 529 631 529 631 518 633.5 c 128,-1,29
 507 636 507 636 493.5 637 c 128,-1,30
 480 638 480 638 470 638 c 2,31,-1
 458 638 l 1,32,-1
 458 710 l 1,33,-1
 683 710 l 1,34,-1
 683 638 l 1,35,-1
 674 638 l 2,36,37
 657 638 657 638 642.5 634.5 c 128,-1,38
 628 631 628 631 619 624 c 128,-1,39
 610 617 610 617 610 602 c 2,40,-1
 610 0 l 1,41,-1
 506 0 l 1,42,-1
 169 675 l 1,43,-1
 204 674 l 1,44,-1
 204 82 l 2,45,46
 204 79 204 79 214.5 76.5 c 128,-1,47
 225 74 225 74 240 73 c 128,-1,48
 255 72 255 72 264 72 c 2,49,-1
 276 72 l 1,50,-1
 276 0 l 1,51,-1
 52 0 l 1,10,-1
EndSplineSet
EndChar

StartChar: O
Encoding: 79 79 114
Width: 698
GlyphClass: 2
Flags: W
AnchorPoint: "Anchor-2" 384 0 basechar 0
AnchorPoint: "Anchor-1" 349 0 basechar 0
AnchorPoint: "Anchor-0" 349 741 basechar 0
LayerCount: 2
Fore
SplineSet
350 -23 m 256,0,1
 283 -23 283 -23 228 1.5 c 128,-1,2
 173 26 173 26 134 74 c 128,-1,3
 95 122 95 122 73.5 192.5 c 128,-1,4
 52 263 52 263 52 355 c 0,5,6
 52 448 52 448 73.5 518.5 c 128,-1,7
 95 589 95 589 134 636.5 c 128,-1,8
 173 684 173 684 228 708.5 c 128,-1,9
 283 733 283 733 350 733 c 256,10,11
 417 733 417 733 471.5 708.5 c 128,-1,12
 526 684 526 684 565 636.5 c 128,-1,13
 604 589 604 589 625 518.5 c 128,-1,14
 646 448 646 448 646 355 c 0,15,16
 646 263 646 263 625 192.5 c 128,-1,17
 604 122 604 122 565 74 c 128,-1,18
 526 26 526 26 471.5 1.5 c 128,-1,19
 417 -23 417 -23 350 -23 c 256,0,1
350 49 m 0,20,21
 397 49 397 49 433 67.5 c 128,-1,22
 469 86 469 86 493 123.5 c 128,-1,23
 517 161 517 161 529 218.5 c 128,-1,24
 541 276 541 276 541 355 c 256,25,26
 541 434 541 434 529 491.5 c 128,-1,27
 517 549 517 549 493 586.5 c 128,-1,28
 469 624 469 624 433 642.5 c 128,-1,29
 397 661 397 661 350 661 c 0,30,31
 302 661 302 661 266 642.5 c 128,-1,32
 230 624 230 624 206 586.5 c 128,-1,33
 182 549 182 549 170 491.5 c 128,-1,34
 158 434 158 434 158 355 c 256,35,36
 158 276 158 276 170 218.5 c 128,-1,37
 182 161 182 161 206 123.5 c 128,-1,38
 230 86 230 86 266 67.5 c 128,-1,39
 302 49 302 49 350 49 c 0,20,21
EndSplineSet
EndChar

StartChar: Ohorn
Encoding: 416 416 123
Width: 745
GlyphClass: 2
Flags: W
AnchorPoint: "Anchor-1" 370 -35 basechar 0
AnchorPoint: "Anchor-0" 370 742 basechar 0
LayerCount: 2
Fore
SplineSet
350 49 m 256,0,1
 398 49 398 49 434 67 c 128,-1,2
 470 85 470 85 494 122 c 128,-1,3
 518 159 518 159 529.5 217 c 128,-1,4
 541 275 541 275 541 355 c 0,5,6
 541 436 541 436 529.5 493.5 c 128,-1,7
 518 551 518 551 494 588 c 128,-1,8
 470 625 470 625 434 643 c 128,-1,9
 398 661 398 661 350 661 c 256,10,11
 302 661 302 661 265.5 643 c 128,-1,12
 229 625 229 625 205.5 588 c 128,-1,13
 182 551 182 551 170 493 c 128,-1,14
 158 435 158 435 158 355 c 0,15,16
 158 274 158 274 170 216.5 c 128,-1,17
 182 159 182 159 205.5 122 c 128,-1,18
 229 85 229 85 265.5 67 c 128,-1,19
 302 49 302 49 350 49 c 256,0,1
519 639 m 1,20,-1
 486 678 l 1,21,22
 521 657 521 657 550 627.5 c 128,-1,23
 579 598 579 598 600.5 559.5 c 128,-1,24
 622 521 622 521 634 470 c 128,-1,25
 646 419 646 419 646 355 c 0,26,27
 646 262 646 262 625 191 c 128,-1,28
 604 120 604 120 565 72.5 c 128,-1,29
 526 25 526 25 471.5 1 c 128,-1,30
 417 -23 417 -23 350 -23 c 256,31,32
 283 -23 283 -23 228.5 1 c 128,-1,33
 174 25 174 25 134.5 72.5 c 128,-1,34
 95 120 95 120 73.5 191 c 128,-1,35
 52 262 52 262 52 355 c 0,36,37
 52 449 52 449 73.5 519.5 c 128,-1,38
 95 590 95 590 134.5 637.5 c 128,-1,39
 174 685 174 685 228.5 709 c 128,-1,40
 283 733 283 733 350 733 c 0,41,42
 389 733 389 733 418.5 727.5 c 128,-1,43
 448 722 448 722 471 715 c 128,-1,44
 494 708 494 708 514.5 702 c 128,-1,45
 535 696 535 696 556 696 c 0,46,47
 584 696 584 696 603 709 c 128,-1,48
 622 722 622 722 634.5 747 c 128,-1,49
 647 772 647 772 654.5 810.5 c 128,-1,50
 662 849 662 849 666 899 c 1,51,-1
 757 899 l 1,52,53
 754 825 754 825 740 772.5 c 128,-1,54
 726 720 726 720 704 687.5 c 128,-1,55
 682 655 682 655 654 639.5 c 128,-1,56
 626 624 626 624 596 624 c 0,57,58
 581 624 581 624 566.5 628.5 c 128,-1,59
 552 633 552 633 538 640 c 128,-1,60
 524 647 524 647 509.5 657 c 128,-1,61
 495 667 495 667 479 677 c 1,62,-1
 519 676 l 1,63,-1
 519 639 l 1,20,-1
EndSplineSet
EndChar

StartChar: Ocaron
Encoding: 465 465 124
Width: 698
GlyphClass: 1
Flags: W
LayerCount: 2
Fore
SplineSet
315 806 m 1,0,-1
 384 806 l 1,1,-1
 501 961 l 1,2,-1
 501 981 l 1,3,-1
 453 981 l 1,4,-1
 293 841 l 1,5,-1
 412 844 l 1,6,-1
 255 981 l 1,7,-1
 197 981 l 1,8,-1
 197 961 l 1,9,-1
 315 806 l 1,0,-1
350 -23 m 256,10,11
 283 -23 283 -23 228 1.5 c 128,-1,12
 173 26 173 26 134 74 c 128,-1,13
 95 122 95 122 73.5 192.5 c 128,-1,14
 52 263 52 263 52 355 c 0,15,16
 52 448 52 448 73.5 518.5 c 128,-1,17
 95 589 95 589 134 636.5 c 128,-1,18
 173 684 173 684 228 708.5 c 128,-1,19
 283 733 283 733 350 733 c 256,20,21
 417 733 417 733 471.5 708.5 c 128,-1,22
 526 684 526 684 565 636.5 c 128,-1,23
 604 589 604 589 625 518.5 c 128,-1,24
 646 448 646 448 646 355 c 0,25,26
 646 263 646 263 625 192.5 c 128,-1,27
 604 122 604 122 565 74 c 128,-1,28
 526 26 526 26 471.5 1.5 c 128,-1,29
 417 -23 417 -23 350 -23 c 256,10,11
350 49 m 0,30,31
 397 49 397 49 433 67.5 c 128,-1,32
 469 86 469 86 493 123.5 c 128,-1,33
 517 161 517 161 529 218.5 c 128,-1,34
 541 276 541 276 541 355 c 256,35,36
 541 434 541 434 529 491.5 c 128,-1,37
 517 549 517 549 493 586.5 c 128,-1,38
 469 624 469 624 433 642.5 c 128,-1,39
 397 661 397 661 350 661 c 0,40,41
 302 661 302 661 266 642.5 c 128,-1,42
 230 624 230 624 206 586.5 c 128,-1,43
 182 549 182 549 170 491.5 c 128,-1,44
 158 434 158 434 158 355 c 256,45,46
 158 276 158 276 170 218.5 c 128,-1,47
 182 161 182 161 206 123.5 c 128,-1,48
 230 86 230 86 266 67.5 c 128,-1,49
 302 49 302 49 350 49 c 0,30,31
EndSplineSet
EndChar

StartChar: Oogonek
Encoding: 490 490 125
Width: 698
GlyphClass: 1
Flags: W
LayerCount: 2
Fore
SplineSet
350 49 m 256,0,1
 398 49 398 49 434 67 c 128,-1,2
 470 85 470 85 494 122 c 128,-1,3
 518 159 518 159 529.5 217 c 128,-1,4
 541 275 541 275 541 355 c 256,5,6
 541 435 541 435 529.5 493 c 128,-1,7
 518 551 518 551 494 588 c 128,-1,8
 470 625 470 625 434 643 c 128,-1,9
 398 661 398 661 350 661 c 256,10,11
 302 661 302 661 266 643 c 128,-1,12
 230 625 230 625 206 588 c 128,-1,13
 182 551 182 551 170 493 c 128,-1,14
 158 435 158 435 158 355 c 256,15,16
 158 275 158 275 170 217 c 128,-1,17
 182 159 182 159 206 122 c 128,-1,18
 230 85 230 85 266 67 c 128,-1,19
 302 49 302 49 350 49 c 256,0,1
559 69 m 0,20,21
 541 47 541 47 518 24.5 c 128,-1,22
 495 2 495 2 471 -20 c 128,-1,23
 447 -42 447 -42 427 -64 c 128,-1,24
 407 -86 407 -86 394.5 -107.5 c 128,-1,25
 382 -129 382 -129 382 -150 c 0,26,27
 382 -168 382 -168 391.5 -179 c 128,-1,28
 401 -190 401 -190 422 -190 c 0,29,30
 447 -190 447 -190 464 -174.5 c 128,-1,31
 481 -159 481 -159 491 -143 c 1,32,-1
 535 -180 l 1,33,34
 520 -201 520 -201 501 -217 c 128,-1,35
 482 -233 482 -233 457.5 -242.5 c 128,-1,36
 433 -252 433 -252 399 -252 c 0,37,38
 363 -252 363 -252 334.5 -242.5 c 128,-1,39
 306 -233 306 -233 289.5 -212.5 c 128,-1,40
 273 -192 273 -192 273 -161 c 0,41,42
 273 -138 273 -138 282.5 -118.5 c 128,-1,43
 292 -99 292 -99 313.5 -78 c 128,-1,44
 335 -57 335 -57 371.5 -30 c 128,-1,45
 408 -3 408 -3 462 35 c 1,46,-1
 450 -5 l 1,47,48
 434 -11 434 -11 418 -15 c 128,-1,49
 402 -19 402 -19 385.5 -21 c 128,-1,50
 369 -23 369 -23 350 -23 c 0,51,52
 283 -23 283 -23 228.5 1 c 128,-1,53
 174 25 174 25 134.5 72.5 c 128,-1,54
 95 120 95 120 73.5 191 c 128,-1,55
 52 262 52 262 52 355 c 0,56,57
 52 449 52 449 73.5 519.5 c 128,-1,58
 95 590 95 590 134.5 637.5 c 128,-1,59
 174 685 174 685 228.5 709 c 128,-1,60
 283 733 283 733 350 733 c 0,61,62
 416 733 416 733 470.5 709 c 128,-1,63
 525 685 525 685 564.5 637.5 c 128,-1,64
 604 590 604 590 625 519.5 c 128,-1,65
 646 449 646 449 646 355 c 0,66,67
 646 293 646 293 635.5 240 c 128,-1,68
 625 187 625 187 605.5 144 c 128,-1,69
 586 101 586 101 559 69 c 0,20,21
EndSplineSet
EndChar

StartChar: Odblgrave
Encoding: 524 524 126
Width: 698
GlyphClass: 1
Flags: W
LayerCount: 2
Fore
SplineSet
440 924 m 2,0,-1
 479 824 l 1,1,-1
 479 793 l 1,2,-1
 440 793 l 1,3,-1
 374 859 l 2,4,5
 355 878 355 878 345 895 c 128,-1,6
 335 912 335 912 335 933 c 0,7,8
 335 950 335 950 347.5 962 c 128,-1,9
 360 974 360 974 381 974 c 0,10,11
 397 974 397 974 408 967 c 128,-1,12
 419 960 419 960 426.5 949 c 128,-1,13
 434 938 434 938 440 924 c 2,0,-1
266 924 m 2,14,-1
 302 824 l 1,15,-1
 302 793 l 1,16,-1
 263 793 l 1,17,-1
 198 859 l 2,18,19
 179 878 179 878 168.5 895 c 128,-1,20
 158 912 158 912 158 933 c 0,21,22
 158 950 158 950 170.5 962 c 128,-1,23
 183 974 183 974 205 974 c 0,24,25
 220 974 220 974 232 967.5 c 128,-1,26
 244 961 244 961 252.5 949.5 c 128,-1,27
 261 938 261 938 266 924 c 2,14,-1
350 -23 m 256,28,29
 283 -23 283 -23 228 1.5 c 128,-1,30
 173 26 173 26 134 74 c 128,-1,31
 95 122 95 122 73.5 192.5 c 128,-1,32
 52 263 52 263 52 355 c 0,33,34
 52 448 52 448 73.5 518.5 c 128,-1,35
 95 589 95 589 134 636.5 c 128,-1,36
 173 684 173 684 228 708.5 c 128,-1,37
 283 733 283 733 350 733 c 256,38,39
 417 733 417 733 471.5 708.5 c 128,-1,40
 526 684 526 684 565 636.5 c 128,-1,41
 604 589 604 589 625 518.5 c 128,-1,42
 646 448 646 448 646 355 c 0,43,44
 646 263 646 263 625 192.5 c 128,-1,45
 604 122 604 122 565 74 c 128,-1,46
 526 26 526 26 471.5 1.5 c 128,-1,47
 417 -23 417 -23 350 -23 c 256,28,29
350 49 m 0,48,49
 397 49 397 49 433 67.5 c 128,-1,50
 469 86 469 86 493 123.5 c 128,-1,51
 517 161 517 161 529 218.5 c 128,-1,52
 541 276 541 276 541 355 c 256,53,54
 541 434 541 434 529 491.5 c 128,-1,55
 517 549 517 549 493 586.5 c 128,-1,56
 469 624 469 624 433 642.5 c 128,-1,57
 397 661 397 661 350 661 c 0,58,59
 302 661 302 661 266 642.5 c 128,-1,60
 230 624 230 624 206 586.5 c 128,-1,61
 182 549 182 549 170 491.5 c 128,-1,62
 158 434 158 434 158 355 c 256,63,64
 158 276 158 276 170 218.5 c 128,-1,65
 182 161 182 161 206 123.5 c 128,-1,66
 230 86 230 86 266 67.5 c 128,-1,67
 302 49 302 49 350 49 c 0,48,49
EndSplineSet
EndChar

StartChar: Oinvertedbreve
Encoding: 526 526 127
Width: 698
GlyphClass: 1
Flags: W
LayerCount: 2
Fore
SplineSet
350 929 m 0,0,1
 299 929 299 929 264 913 c 128,-1,2
 229 897 229 897 210.5 861 c 128,-1,3
 192 825 192 825 191 765 c 1,4,-1
 260 765 l 1,5,6
 262 801 262 801 270 820.5 c 128,-1,7
 278 840 278 840 297 847.5 c 128,-1,8
 316 855 316 855 350 855 c 0,9,10
 380 855 380 855 398.5 847.5 c 128,-1,11
 417 840 417 840 426 820.5 c 128,-1,12
 435 801 435 801 436 765 c 1,13,-1
 509 765 l 1,14,15
 508 825 508 825 488.5 861 c 128,-1,16
 469 897 469 897 434 913 c 128,-1,17
 399 929 399 929 350 929 c 0,0,1
350 -23 m 256,18,19
 283 -23 283 -23 228 1.5 c 128,-1,20
 173 26 173 26 134 74 c 128,-1,21
 95 122 95 122 73.5 192.5 c 128,-1,22
 52 263 52 263 52 355 c 0,23,24
 52 448 52 448 73.5 518.5 c 128,-1,25
 95 589 95 589 134 636.5 c 128,-1,26
 173 684 173 684 228 708.5 c 128,-1,27
 283 733 283 733 350 733 c 256,28,29
 417 733 417 733 471.5 708.5 c 128,-1,30
 526 684 526 684 565 636.5 c 128,-1,31
 604 589 604 589 625 518.5 c 128,-1,32
 646 448 646 448 646 355 c 0,33,34
 646 263 646 263 625 192.5 c 128,-1,35
 604 122 604 122 565 74 c 128,-1,36
 526 26 526 26 471.5 1.5 c 128,-1,37
 417 -23 417 -23 350 -23 c 256,18,19
350 49 m 0,38,39
 397 49 397 49 433 67.5 c 128,-1,40
 469 86 469 86 493 123.5 c 128,-1,41
 517 161 517 161 529 218.5 c 128,-1,42
 541 276 541 276 541 355 c 256,43,44
 541 434 541 434 529 491.5 c 128,-1,45
 517 549 517 549 493 586.5 c 128,-1,46
 469 624 469 624 433 642.5 c 128,-1,47
 397 661 397 661 350 661 c 0,48,49
 302 661 302 661 266 642.5 c 128,-1,50
 230 624 230 624 206 586.5 c 128,-1,51
 182 549 182 549 170 491.5 c 128,-1,52
 158 434 158 434 158 355 c 256,53,54
 158 276 158 276 170 218.5 c 128,-1,55
 182 161 182 161 206 123.5 c 128,-1,56
 230 86 230 86 266 67.5 c 128,-1,57
 302 49 302 49 350 49 c 0,38,39
EndSplineSet
EndChar

StartChar: P
Encoding: 80 80 147
Width: 605
GlyphClass: 2
Flags: W
AnchorPoint: "Anchor-0" 319 741 basechar 0
LayerCount: 2
Fore
SplineSet
222 82 m 2,0,-1
 222 639 l 1,1,-1
 332 639 l 2,2,3
 373 639 373 639 400.5 622.5 c 128,-1,4
 428 606 428 606 443 574 c 128,-1,5
 458 542 458 542 458 496 c 256,6,7
 458 450 458 450 443 416.5 c 128,-1,8
 428 383 428 383 400.5 365.5 c 128,-1,9
 373 348 373 348 332 348 c 2,10,-1
 207 348 l 1,11,-1
 207 277 l 1,12,-1
 336 277 l 2,13,14
 400 277 400 277 451 302.5 c 128,-1,15
 502 328 502 328 531 378 c 128,-1,16
 560 428 560 428 560 500 c 0,17,18
 560 604 560 604 498.5 657 c 128,-1,19
 437 710 437 710 336 710 c 2,20,-1
 52 710 l 1,21,-1
 52 638 l 1,22,-1
 61 638 l 2,23,24
 86 638 86 638 105 631 c 128,-1,25
 124 624 124 624 124 601 c 2,26,-1
 124 109 l 2,27,28
 124 86 124 86 105 79 c 128,-1,29
 86 72 86 72 61 72 c 2,30,-1
 52 72 l 1,31,-1
 52 0 l 1,32,-1
 318 0 l 1,33,-1
 318 72 l 1,34,-1
 300 72 l 2,35,36
 285 72 285 72 271 72.5 c 128,-1,37
 257 73 257 73 246 74.5 c 128,-1,38
 235 76 235 76 228.5 77.5 c 128,-1,39
 222 79 222 79 222 82 c 2,0,-1
EndSplineSet
EndChar

StartChar: Q
Encoding: 81 81 148
Width: 698
GlyphClass: 1
Flags: W
LayerCount: 2
Fore
SplineSet
311 -3 m 1,0,-1
 390 10 l 1,1,2
 391 -48 391 -48 403 -83.5 c 128,-1,3
 415 -119 415 -119 439.5 -135 c 128,-1,4
 464 -151 464 -151 504 -151 c 0,5,6
 530 -151 530 -151 553 -147 c 128,-1,7
 576 -143 576 -143 597 -136.5 c 128,-1,8
 618 -130 618 -130 637 -124 c 1,9,-1
 637 -223 l 1,10,11
 612 -229 612 -229 578.5 -234 c 128,-1,12
 545 -239 545 -239 513 -239 c 0,13,14
 445 -239 445 -239 399.5 -212.5 c 128,-1,15
 354 -186 354 -186 332.5 -133 c 128,-1,16
 311 -80 311 -80 311 -3 c 1,0,-1
350 -23 m 256,17,18
 283 -23 283 -23 228 1.5 c 128,-1,19
 173 26 173 26 134 74 c 128,-1,20
 95 122 95 122 73.5 192.5 c 128,-1,21
 52 263 52 263 52 355 c 0,22,23
 52 448 52 448 73.5 518.5 c 128,-1,24
 95 589 95 589 134 636.5 c 128,-1,25
 173 684 173 684 228 708.5 c 128,-1,26
 283 733 283 733 350 733 c 256,27,28
 417 733 417 733 471.5 708.5 c 128,-1,29
 526 684 526 684 565 636.5 c 128,-1,30
 604 589 604 589 625 518.5 c 128,-1,31
 646 448 646 448 646 355 c 0,32,33
 646 263 646 263 625 192.5 c 128,-1,34
 604 122 604 122 565 74 c 128,-1,35
 526 26 526 26 471.5 1.5 c 128,-1,36
 417 -23 417 -23 350 -23 c 256,17,18
350 49 m 0,37,38
 397 49 397 49 434 67.5 c 128,-1,39
 471 86 471 86 496.5 123.5 c 128,-1,40
 522 161 522 161 535 218.5 c 128,-1,41
 548 276 548 276 548 355 c 0,42,43
 549 434 549 434 535.5 491.5 c 128,-1,44
 522 549 522 549 497 586.5 c 128,-1,45
 472 624 472 624 434.5 642.5 c 128,-1,46
 397 661 397 661 350 661 c 0,47,48
 302 661 302 661 266 642.5 c 128,-1,49
 230 624 230 624 206 586.5 c 128,-1,50
 182 549 182 549 170 491.5 c 128,-1,51
 158 434 158 434 158 355 c 256,52,53
 158 276 158 276 170 218.5 c 128,-1,54
 182 161 182 161 206 123.5 c 128,-1,55
 230 86 230 86 266 67.5 c 128,-1,56
 302 49 302 49 350 49 c 0,37,38
EndSplineSet
EndChar

StartChar: R
Encoding: 82 82 149
Width: 661
GlyphClass: 2
Flags: W
AnchorPoint: "Anchor-1" 370 0 basechar 0
AnchorPoint: "Anchor-0" 370 741 basechar 0
LayerCount: 2
Fore
SplineSet
339 323 m 1,0,-1
 496 0 l 1,1,-1
 638 0 l 1,2,-1
 638 72 l 1,3,-1
 629 72 l 2,4,5
 610 72 610 72 594 77 c 128,-1,6
 578 82 578 82 564.5 95.5 c 128,-1,7
 551 109 551 109 537 134 c 2,8,-1
 421 366 l 1,9,-1
 339 323 l 1,0,-1
222 82 m 2,10,-1
 222 639 l 1,11,-1
 337 639 l 2,12,13
 381 639 381 639 409.5 625 c 128,-1,14
 438 611 438 611 452 582 c 128,-1,15
 466 553 466 553 466 510 c 0,16,17
 466 468 466 468 453.5 435 c 128,-1,18
 441 402 441 402 411.5 383 c 128,-1,19
 382 364 382 364 332 364 c 2,20,-1
 211 364 l 1,21,-1
 211 297 l 1,22,-1
 368 297 l 2,23,24
 373 297 373 297 377 298 c 128,-1,25
 381 299 381 299 386.5 302.5 c 128,-1,26
 392 306 392 306 399 311 c 0,27,28
 448 322 448 322 484.5 348.5 c 128,-1,29
 521 375 521 375 540.5 418 c 128,-1,30
 560 461 560 461 560 520 c 0,31,32
 560 583 560 583 534 625.5 c 128,-1,33
 508 668 508 668 459 689 c 128,-1,34
 410 710 410 710 341 710 c 2,35,-1
 52 710 l 1,36,-1
 52 638 l 1,37,-1
 61 638 l 2,38,39
 86 638 86 638 105 631 c 128,-1,40
 124 624 124 624 124 601 c 2,41,-1
 124 109 l 2,42,43
 124 86 124 86 105 79 c 128,-1,44
 86 72 86 72 61 72 c 2,45,-1
 52 72 l 1,46,-1
 52 0 l 1,47,-1
 317 0 l 1,48,-1
 317 72 l 1,49,-1
 300 72 l 2,50,51
 285 72 285 72 271 72.5 c 128,-1,52
 257 73 257 73 246 74.5 c 128,-1,53
 235 76 235 76 228.5 77.5 c 128,-1,54
 222 79 222 79 222 82 c 2,10,-1
EndSplineSet
EndChar

StartChar: Rcaron
Encoding: 344 344 152
Width: 661
GlyphClass: 1
Flags: W
LayerCount: 2
Fore
SplineSet
290 806 m 1,0,-1
 359 806 l 1,1,-1
 476 961 l 1,2,-1
 476 981 l 1,3,-1
 428 981 l 1,4,-1
 268 841 l 1,5,-1
 387 844 l 1,6,-1
 230 981 l 1,7,-1
 173 981 l 1,8,-1
 173 961 l 1,9,-1
 290 806 l 1,0,-1
339 323 m 1,10,-1
 496 0 l 1,11,-1
 638 0 l 1,12,-1
 638 72 l 1,13,-1
 629 72 l 2,14,15
 610 72 610 72 594 77 c 128,-1,16
 578 82 578 82 564.5 95.5 c 128,-1,17
 551 109 551 109 537 134 c 2,18,-1
 421 366 l 1,19,-1
 339 323 l 1,10,-1
222 82 m 2,20,-1
 222 639 l 1,21,-1
 337 639 l 2,22,23
 381 639 381 639 409.5 625 c 128,-1,24
 438 611 438 611 452 582 c 128,-1,25
 466 553 466 553 466 510 c 0,26,27
 466 468 466 468 453.5 435 c 128,-1,28
 441 402 441 402 411.5 383 c 128,-1,29
 382 364 382 364 332 364 c 2,30,-1
 211 364 l 1,31,-1
 211 297 l 1,32,-1
 368 297 l 2,33,34
 373 297 373 297 377 298 c 128,-1,35
 381 299 381 299 386.5 302.5 c 128,-1,36
 392 306 392 306 399 311 c 0,37,38
 448 322 448 322 484.5 348.5 c 128,-1,39
 521 375 521 375 540.5 418 c 128,-1,40
 560 461 560 461 560 520 c 0,41,42
 560 583 560 583 534 625.5 c 128,-1,43
 508 668 508 668 459 689 c 128,-1,44
 410 710 410 710 341 710 c 2,45,-1
 52 710 l 1,46,-1
 52 638 l 1,47,-1
 61 638 l 2,48,49
 86 638 86 638 105 631 c 128,-1,50
 124 624 124 624 124 601 c 2,51,-1
 124 109 l 2,52,53
 124 86 124 86 105 79 c 128,-1,54
 86 72 86 72 61 72 c 2,55,-1
 52 72 l 1,56,-1
 52 0 l 1,57,-1
 317 0 l 1,58,-1
 317 72 l 1,59,-1
 300 72 l 2,60,61
 285 72 285 72 271 72.5 c 128,-1,62
 257 73 257 73 246 74.5 c 128,-1,63
 235 76 235 76 228.5 77.5 c 128,-1,64
 222 79 222 79 222 82 c 2,20,-1
EndSplineSet
EndChar

StartChar: Rdblgrave
Encoding: 528 528 153
Width: 661
GlyphClass: 1
Flags: W
LayerCount: 2
Fore
SplineSet
413 924 m 2,0,-1
 452 824 l 1,1,-1
 452 793 l 1,2,-1
 413 793 l 1,3,-1
 347 859 l 2,4,5
 328 878 328 878 318 895 c 128,-1,6
 308 912 308 912 308 933 c 0,7,8
 308 950 308 950 320.5 962 c 128,-1,9
 333 974 333 974 354 974 c 0,10,11
 370 974 370 974 381 967 c 128,-1,12
 392 960 392 960 399.5 949 c 128,-1,13
 407 938 407 938 413 924 c 2,0,-1
239 924 m 2,14,-1
 275 824 l 1,15,-1
 275 793 l 1,16,-1
 236 793 l 1,17,-1
 171 859 l 2,18,19
 152 878 152 878 141.5 895 c 128,-1,20
 131 912 131 912 131 933 c 0,21,22
 131 950 131 950 143.5 962 c 128,-1,23
 156 974 156 974 178 974 c 0,24,25
 193 974 193 974 205 967.5 c 128,-1,26
 217 961 217 961 225.5 949.5 c 128,-1,27
 234 938 234 938 239 924 c 2,14,-1
339 323 m 1,28,-1
 496 0 l 1,29,-1
 638 0 l 1,30,-1
 638 72 l 1,31,-1
 629 72 l 2,32,33
 610 72 610 72 594 77 c 128,-1,34
 578 82 578 82 564.5 95.5 c 128,-1,35
 551 109 551 109 537 134 c 2,36,-1
 421 366 l 1,37,-1
 339 323 l 1,28,-1
222 82 m 2,38,-1
 222 639 l 1,39,-1
 337 639 l 2,40,41
 381 639 381 639 409.5 625 c 128,-1,42
 438 611 438 611 452 582 c 128,-1,43
 466 553 466 553 466 510 c 256,44,45
 466 467 466 467 453.5 434.5 c 128,-1,46
 441 402 441 402 411.5 383 c 128,-1,47
 382 364 382 364 332 364 c 2,48,-1
 211 364 l 1,49,-1
 211 297 l 1,50,-1
 368 297 l 2,51,52
 373 297 373 297 377 298 c 128,-1,53
 381 299 381 299 386.5 302.5 c 128,-1,54
 392 306 392 306 399 311 c 0,55,56
 448 322 448 322 484.5 348.5 c 128,-1,57
 521 375 521 375 540.5 418 c 128,-1,58
 560 461 560 461 560 520 c 0,59,60
 560 583 560 583 534 625.5 c 128,-1,61
 508 668 508 668 459 689 c 128,-1,62
 410 710 410 710 341 710 c 2,63,-1
 52 710 l 1,64,-1
 52 638 l 1,65,-1
 61 638 l 2,66,67
 86 638 86 638 105 631 c 128,-1,68
 124 624 124 624 124 602 c 2,69,-1
 124 108 l 2,70,71
 124 86 124 86 105 79 c 128,-1,72
 86 72 86 72 61 72 c 2,73,-1
 52 72 l 1,74,-1
 52 0 l 1,75,-1
 317 0 l 1,76,-1
 317 72 l 1,77,-1
 300 72 l 2,78,79
 285 72 285 72 271 72.5 c 128,-1,80
 257 73 257 73 246 74.5 c 128,-1,81
 235 76 235 76 228.5 77.5 c 128,-1,82
 222 79 222 79 222 82 c 2,38,-1
EndSplineSet
EndChar

StartChar: Rinvertedbreve
Encoding: 530 530 154
Width: 661
GlyphClass: 1
Flags: W
LayerCount: 2
Fore
SplineSet
325 929 m 0,0,1
 274 929 274 929 239 913 c 128,-1,2
 204 897 204 897 185.5 861 c 128,-1,3
 167 825 167 825 166 765 c 1,4,-1
 235 765 l 1,5,6
 238 801 238 801 246 820.5 c 128,-1,7
 254 840 254 840 272.5 847.5 c 128,-1,8
 291 855 291 855 325 855 c 0,9,10
 355 855 355 855 373.5 847.5 c 128,-1,11
 392 840 392 840 401 820.5 c 128,-1,12
 410 801 410 801 411 765 c 1,13,-1
 484 765 l 1,14,15
 483 825 483 825 464 861 c 128,-1,16
 445 897 445 897 409.5 913 c 128,-1,17
 374 929 374 929 325 929 c 0,0,1
339 323 m 1,18,-1
 496 0 l 1,19,-1
 638 0 l 1,20,-1
 638 72 l 1,21,-1
 629 72 l 2,22,23
 610 72 610 72 594 77 c 128,-1,24
 578 82 578 82 564.5 95.5 c 128,-1,25
 551 109 551 109 537 134 c 2,26,-1
 421 366 l 1,27,-1
 339 323 l 1,18,-1
222 82 m 2,28,-1
 222 639 l 1,29,-1
 337 639 l 2,30,31
 381 639 381 639 409.5 625 c 128,-1,32
 438 611 438 611 452 582 c 128,-1,33
 466 553 466 553 466 510 c 0,34,35
 466 468 466 468 453.5 435 c 128,-1,36
 441 402 441 402 411.5 383 c 128,-1,37
 382 364 382 364 332 364 c 2,38,-1
 211 364 l 1,39,-1
 211 297 l 1,40,-1
 368 297 l 2,41,42
 373 297 373 297 377 298 c 128,-1,43
 381 299 381 299 386.5 302.5 c 128,-1,44
 392 306 392 306 399 311 c 0,45,46
 448 322 448 322 484.5 348.5 c 128,-1,47
 521 375 521 375 540.5 418 c 128,-1,48
 560 461 560 461 560 520 c 0,49,50
 560 583 560 583 534 625.5 c 128,-1,51
 508 668 508 668 459 689 c 128,-1,52
 410 710 410 710 341 710 c 2,53,-1
 52 710 l 1,54,-1
 52 638 l 1,55,-1
 61 638 l 2,56,57
 86 638 86 638 105 631 c 128,-1,58
 124 624 124 624 124 601 c 2,59,-1
 124 109 l 2,60,61
 124 86 124 86 105 79 c 128,-1,62
 86 72 86 72 61 72 c 2,63,-1
 52 72 l 1,64,-1
 52 0 l 1,65,-1
 317 0 l 1,66,-1
 317 72 l 1,67,-1
 300 72 l 2,68,69
 285 72 285 72 271 72.5 c 128,-1,70
 257 73 257 73 246 74.5 c 128,-1,71
 235 76 235 76 228.5 77.5 c 128,-1,72
 222 79 222 79 222 82 c 2,28,-1
EndSplineSet
EndChar

StartChar: S
Encoding: 83 83 157
Width: 571
GlyphClass: 2
Flags: W
AnchorPoint: "Anchor-1" 314 0 basechar 0
AnchorPoint: "Anchor-0" 314 741 basechar 0
LayerCount: 2
Fore
SplineSet
315 48 m 0,0,1
 357 48 357 48 383 60 c 128,-1,2
 409 72 409 72 422 99 c 128,-1,3
 435 126 435 126 435 172 c 0,4,5
 435 212 435 212 421 237 c 128,-1,6
 407 262 407 262 383 278 c 128,-1,7
 359 294 359 294 329 304.5 c 128,-1,8
 299 315 299 315 265 324 c 0,9,10
 225 336 225 336 189.5 349.5 c 128,-1,11
 154 363 154 363 127 386 c 128,-1,12
 100 409 100 409 85 447.5 c 128,-1,13
 70 486 70 486 70 547 c 0,14,15
 70 606 70 606 92 648 c 128,-1,16
 114 690 114 690 157.5 711.5 c 128,-1,17
 201 733 201 733 264 733 c 0,18,19
 318 733 318 733 356 713 c 128,-1,20
 394 693 394 693 414 650 c 128,-1,21
 434 607 434 607 436 538 c 1,22,-1
 414 585 l 1,23,-1
 428 720 l 1,24,-1
 494 720 l 1,25,-1
 494 510 l 1,26,-1
 424 510 l 1,27,28
 413 559 413 559 393 593 c 128,-1,29
 373 627 373 627 342 645 c 128,-1,30
 311 663 311 663 265 663 c 0,31,32
 230 663 230 663 206 651 c 128,-1,33
 182 639 182 639 170 614 c 128,-1,34
 158 589 158 589 158 550 c 0,35,36
 158 513 158 513 169 490.5 c 128,-1,37
 180 468 180 468 201.5 454 c 128,-1,38
 223 440 223 440 252.5 430 c 128,-1,39
 282 420 282 420 320 408 c 0,40,41
 357 397 357 397 393.5 383 c 128,-1,42
 430 369 430 369 460 345.5 c 128,-1,43
 490 322 490 322 508 283 c 128,-1,44
 526 244 526 244 526 185 c 0,45,46
 526 112 526 112 499.5 66 c 128,-1,47
 473 20 473 20 426 -1.5 c 128,-1,48
 379 -23 379 -23 316 -23 c 0,49,50
 255 -23 255 -23 210 -0.5 c 128,-1,51
 165 22 165 22 139 71.5 c 128,-1,52
 113 121 113 121 107 201 c 1,53,-1
 133 160 l 1,54,-1
 121 -6 l 1,55,-1
 55 -6 l 1,56,-1
 55 229 l 1,57,-1
 129 229 l 1,58,59
 141 168 141 168 164 127.5 c 128,-1,60
 187 87 187 87 224 67.5 c 128,-1,61
 261 48 261 48 315 48 c 0,0,1
EndSplineSet
EndChar

StartChar: Scaron
Encoding: 352 352 161
Width: 571
GlyphClass: 1
Flags: W
LayerCount: 2
Fore
SplineSet
256 806 m 1,0,-1
 325 806 l 1,1,-1
 442 961 l 1,2,-1
 442 981 l 1,3,-1
 394 981 l 1,4,-1
 234 841 l 1,5,-1
 353 844 l 1,6,-1
 195 981 l 1,7,-1
 138 981 l 1,8,-1
 138 961 l 1,9,-1
 256 806 l 1,0,-1
315 48 m 0,10,11
 357 48 357 48 383 60 c 128,-1,12
 409 72 409 72 422 99 c 128,-1,13
 435 126 435 126 435 172 c 0,14,15
 435 212 435 212 421 237 c 128,-1,16
 407 262 407 262 383 278 c 128,-1,17
 359 294 359 294 329 304.5 c 128,-1,18
 299 315 299 315 265 324 c 0,19,20
 225 336 225 336 189.5 349.5 c 128,-1,21
 154 363 154 363 127 386 c 128,-1,22
 100 409 100 409 85 447.5 c 128,-1,23
 70 486 70 486 70 547 c 0,24,25
 70 606 70 606 92 648 c 128,-1,26
 114 690 114 690 157.5 711.5 c 128,-1,27
 201 733 201 733 264 733 c 0,28,29
 318 733 318 733 356 713 c 128,-1,30
 394 693 394 693 414 650 c 128,-1,31
 434 607 434 607 436 538 c 1,32,-1
 414 585 l 1,33,-1
 428 720 l 1,34,-1
 494 720 l 1,35,-1
 494 510 l 1,36,-1
 424 510 l 1,37,38
 413 559 413 559 393 593 c 128,-1,39
 373 627 373 627 342 645 c 128,-1,40
 311 663 311 663 265 663 c 0,41,42
 230 663 230 663 206 651 c 128,-1,43
 182 639 182 639 170 614 c 128,-1,44
 158 589 158 589 158 550 c 0,45,46
 158 513 158 513 169 490.5 c 128,-1,47
 180 468 180 468 201.5 454 c 128,-1,48
 223 440 223 440 252.5 430 c 128,-1,49
 282 420 282 420 320 408 c 0,50,51
 357 397 357 397 393.5 383 c 128,-1,52
 430 369 430 369 460 345.5 c 128,-1,53
 490 322 490 322 508 283 c 128,-1,54
 526 244 526 244 526 185 c 0,55,56
 526 112 526 112 499.5 66 c 128,-1,57
 473 20 473 20 426 -1.5 c 128,-1,58
 379 -23 379 -23 316 -23 c 0,59,60
 255 -23 255 -23 210 -0.5 c 128,-1,61
 165 22 165 22 139 71.5 c 128,-1,62
 113 121 113 121 107 201 c 1,63,-1
 133 160 l 1,64,-1
 121 -6 l 1,65,-1
 55 -6 l 1,66,-1
 55 229 l 1,67,-1
 129 229 l 1,68,69
 141 168 141 168 164 127.5 c 128,-1,70
 187 87 187 87 224 67.5 c 128,-1,71
 261 48 261 48 315 48 c 0,10,11
EndSplineSet
EndChar

StartChar: Scarondotaccent
Encoding: 7782 7782 166
Width: 571
GlyphClass: 1
Flags: W
LayerCount: 2
Fore
SplineSet
255 806 m 1,0,-1
 324 806 l 1,1,-1
 441 961 l 1,2,-1
 441 981 l 1,3,-1
 393 981 l 1,4,-1
 233 841 l 1,5,-1
 352 844 l 1,6,-1
 194 981 l 1,7,-1
 137 981 l 1,8,-1
 137 961 l 1,9,-1
 255 806 l 1,0,-1
315 48 m 0,10,11
 357 48 357 48 383 60 c 128,-1,12
 409 72 409 72 422 99 c 128,-1,13
 435 126 435 126 435 172 c 0,14,15
 435 212 435 212 421 237 c 128,-1,16
 407 262 407 262 383 278 c 128,-1,17
 359 294 359 294 329 304.5 c 128,-1,18
 299 315 299 315 265 324 c 0,19,20
 225 336 225 336 189.5 349.5 c 128,-1,21
 154 363 154 363 127 386 c 128,-1,22
 100 409 100 409 85 447.5 c 128,-1,23
 70 486 70 486 70 547 c 0,24,25
 70 606 70 606 92 648 c 128,-1,26
 114 690 114 690 157.5 711.5 c 128,-1,27
 201 733 201 733 264 733 c 0,28,29
 318 733 318 733 356 713 c 128,-1,30
 394 693 394 693 414 650 c 128,-1,31
 434 607 434 607 436 538 c 1,32,-1
 414 585 l 1,33,-1
 428 720 l 1,34,-1
 494 720 l 1,35,-1
 494 510 l 1,36,-1
 424 510 l 1,37,38
 413 559 413 559 393 593 c 128,-1,39
 373 627 373 627 342 645 c 128,-1,40
 311 663 311 663 265 663 c 0,41,42
 230 663 230 663 206 651 c 128,-1,43
 182 639 182 639 170 614 c 128,-1,44
 158 589 158 589 158 550 c 0,45,46
 158 513 158 513 169 490.5 c 128,-1,47
 180 468 180 468 201.5 454 c 128,-1,48
 223 440 223 440 252.5 430 c 128,-1,49
 282 420 282 420 320 408 c 0,50,51
 357 397 357 397 393.5 383 c 128,-1,52
 430 369 430 369 460 345.5 c 128,-1,53
 490 322 490 322 508 283 c 128,-1,54
 526 244 526 244 526 185 c 0,55,56
 526 112 526 112 499.5 66 c 128,-1,57
 473 20 473 20 426 -1.5 c 128,-1,58
 379 -23 379 -23 316 -23 c 0,59,60
 255 -23 255 -23 210 -0.5 c 128,-1,61
 165 22 165 22 139 71.5 c 128,-1,62
 113 121 113 121 107 201 c 1,63,-1
 133 160 l 1,64,-1
 121 -6 l 1,65,-1
 55 -6 l 1,66,-1
 55 229 l 1,67,-1
 129 229 l 1,68,69
 141 168 141 168 164 127.5 c 128,-1,70
 187 87 187 87 224 67.5 c 128,-1,71
 261 48 261 48 315 48 c 0,10,11
289 1013 m 0,72,73
 256 1013 256 1013 237.5 1030.5 c 128,-1,74
 219 1048 219 1048 219 1083 c 0,75,76
 219 1116 219 1116 237.5 1134.5 c 128,-1,77
 256 1153 256 1153 289 1153 c 0,78,79
 323 1153 323 1153 341.5 1134.5 c 128,-1,80
 360 1116 360 1116 360 1083 c 0,81,82
 360 1048 360 1048 341.5 1030.5 c 128,-1,83
 323 1013 323 1013 289 1013 c 0,72,73
EndSplineSet
EndChar

StartChar: T
Encoding: 84 84 168
Width: 637
GlyphClass: 2
Flags: W
AnchorPoint: "Anchor-1" 323 0 basechar 0
AnchorPoint: "Anchor-0" 323 741 basechar 0
LayerCount: 2
Fore
SplineSet
269 109 m 2,0,-1
 269 639 l 1,1,-1
 217 639 l 2,2,3
 180 639 180 639 161.5 633 c 128,-1,4
 143 627 143 627 136 614.5 c 128,-1,5
 129 602 129 602 126 580 c 2,6,-1
 115 475 l 1,7,-1
 45 475 l 1,8,-1
 45 710 l 1,9,-1
 591 710 l 1,10,-1
 591 475 l 1,11,-1
 522 475 l 1,12,-1
 510 580 l 2,13,14
 509 602 509 602 501.5 614.5 c 128,-1,15
 494 627 494 627 475 633 c 128,-1,16
 456 639 456 639 419 639 c 2,17,-1
 367 639 l 1,18,-1
 367 109 l 2,19,20
 367 86 367 86 389 79 c 128,-1,21
 411 72 411 72 438 72 c 2,22,-1
 455 72 l 1,23,-1
 455 0 l 1,24,-1
 182 0 l 1,25,-1
 182 72 l 1,26,-1
 199 72 l 2,27,28
 226 72 226 72 247.5 79 c 128,-1,29
 269 86 269 86 269 109 c 2,0,-1
EndSplineSet
EndChar

StartChar: Tcaron
Encoding: 356 356 170
Width: 637
GlyphClass: 1
Flags: W
LayerCount: 2
Fore
SplineSet
278 806 m 1,0,-1
 347 806 l 1,1,-1
 464 961 l 1,2,-1
 464 981 l 1,3,-1
 416 981 l 1,4,-1
 256 841 l 1,5,-1
 375 844 l 1,6,-1
 218 981 l 1,7,-1
 160 981 l 1,8,-1
 160 961 l 1,9,-1
 278 806 l 1,0,-1
269 108 m 2,10,-1
 269 639 l 1,11,-1
 217 639 l 2,12,13
 180 639 180 639 161.5 633 c 128,-1,14
 143 627 143 627 136 614.5 c 128,-1,15
 129 602 129 602 126 580 c 2,16,-1
 115 475 l 1,17,-1
 45 475 l 1,18,-1
 45 710 l 1,19,-1
 591 710 l 1,20,-1
 591 475 l 1,21,-1
 522 475 l 1,22,-1
 510 580 l 2,23,24
 509 602 509 602 501.5 614.5 c 128,-1,25
 494 627 494 627 475 633 c 128,-1,26
 456 639 456 639 419 639 c 2,27,-1
 367 639 l 1,28,-1
 367 108 l 2,29,30
 367 86 367 86 389 79 c 128,-1,31
 411 72 411 72 438 72 c 2,32,-1
 455 72 l 1,33,-1
 455 0 l 1,34,-1
 182 0 l 1,35,-1
 182 72 l 1,36,-1
 199 72 l 2,37,38
 226 72 226 72 247.5 79 c 128,-1,39
 269 86 269 86 269 108 c 2,10,-1
EndSplineSet
EndChar

StartChar: U
Encoding: 85 85 174
Width: 708
GlyphClass: 2
Flags: W
AnchorPoint: "Anchor-2" 406 0 basechar 0
AnchorPoint: "Anchor-1" 358 0 basechar 0
AnchorPoint: "Anchor-0" 358 741 basechar 0
LayerCount: 2
Fore
SplineSet
212 232 m 2,0,1
 212 182 212 182 223.5 147 c 128,-1,2
 235 112 235 112 256 91.5 c 128,-1,3
 277 71 277 71 305.5 61.5 c 128,-1,4
 334 52 334 52 367 52 c 256,5,6
 400 52 400 52 427.5 61.5 c 128,-1,7
 455 71 455 71 474.5 91.5 c 128,-1,8
 494 112 494 112 505 147 c 128,-1,9
 516 182 516 182 516 232 c 2,10,-1
 516 618 l 2,11,12
 516 624 516 624 509.5 627.5 c 128,-1,13
 503 631 503 631 493.5 633 c 128,-1,14
 484 635 484 635 473 636.5 c 128,-1,15
 462 638 462 638 452 638 c 2,16,-1
 445 638 l 1,17,-1
 445 710 l 1,18,-1
 665 710 l 1,19,-1
 665 638 l 1,20,-1
 657 638 l 2,21,22
 641 638 641 638 627 634 c 128,-1,23
 613 630 613 630 604.5 620 c 128,-1,24
 596 610 596 610 596 593 c 2,25,-1
 596 220 l 2,26,27
 596 155 596 155 577 108.5 c 128,-1,28
 558 62 558 62 525 33 c 128,-1,29
 492 4 492 4 449 -9.5 c 128,-1,30
 406 -23 406 -23 358 -23 c 0,31,32
 307 -23 307 -23 262.5 -9.5 c 128,-1,33
 218 4 218 4 184.5 33 c 128,-1,34
 151 62 151 62 133 108.5 c 128,-1,35
 115 155 115 155 115 220 c 2,36,-1
 115 602 l 2,37,38
 115 624 115 624 95.5 631 c 128,-1,39
 76 638 76 638 52 638 c 2,40,-1
 42 638 l 1,41,-1
 42 710 l 1,42,-1
 291 710 l 1,43,-1
 291 638 l 1,44,-1
 284 638 l 2,45,46
 273 638 273 638 260 637.5 c 128,-1,47
 247 637 247 637 236 635.5 c 128,-1,48
 225 634 225 634 218.5 632.5 c 128,-1,49
 212 631 212 631 212 628 c 2,50,-1
 212 232 l 2,0,1
EndSplineSet
EndChar

StartChar: Uogonek
Encoding: 370 370 184
Width: 708
GlyphClass: 1
Flags: W
LayerCount: 2
Fore
SplineSet
458 40 m 1,0,-1
 457 -3 l 1,1,2
 436 -14 436 -14 410 -18.5 c 128,-1,3
 384 -23 384 -23 358 -23 c 0,4,5
 305 -23 305 -23 260.5 -9.5 c 128,-1,6
 216 4 216 4 183 33 c 128,-1,7
 150 62 150 62 132.5 108.5 c 128,-1,8
 115 155 115 155 115 220 c 2,9,-1
 115 602 l 2,10,11
 115 624 115 624 98.5 631 c 128,-1,12
 82 638 82 638 52 638 c 2,13,-1
 42 638 l 1,14,-1
 42 710 l 1,15,-1
 291 710 l 1,16,-1
 291 638 l 1,17,-1
 284 638 l 2,18,19
 273 638 273 638 260 637.5 c 128,-1,20
 247 637 247 637 236.5 635.5 c 128,-1,21
 226 634 226 634 219 632.5 c 128,-1,22
 212 631 212 631 212 628 c 2,23,-1
 212 220 l 2,24,25
 212 173 212 173 223.5 141 c 128,-1,26
 235 109 235 109 256 89.5 c 128,-1,27
 277 70 277 70 305.5 62 c 128,-1,28
 334 54 334 54 369 54 c 0,29,30
 403 54 403 54 430 62 c 128,-1,31
 457 70 457 70 476.5 89.5 c 128,-1,32
 496 109 496 109 506.5 141 c 128,-1,33
 517 173 517 173 517 220 c 2,34,-1
 517 619 l 2,35,36
 517 624 517 624 511.5 627.5 c 128,-1,37
 506 631 506 631 497 633 c 128,-1,38
 488 635 488 635 476 636.5 c 128,-1,39
 464 638 464 638 452 638 c 2,40,-1
 445 638 l 1,41,-1
 445 710 l 1,42,-1
 665 710 l 1,43,-1
 665 638 l 1,44,-1
 657 638 l 2,45,46
 637 638 637 638 623 634 c 128,-1,47
 609 630 609 630 601.5 620 c 128,-1,48
 594 610 594 610 594 593 c 2,49,-1
 594 220 l 2,50,51
 594 179 594 179 585.5 145.5 c 128,-1,52
 577 112 577 112 563.5 85.5 c 128,-1,53
 550 59 550 59 533 39 c 0,54,55
 513 16 513 16 487 -6 c 128,-1,56
 461 -28 461 -28 437.5 -50 c 128,-1,57
 414 -72 414 -72 398.5 -96.5 c 128,-1,58
 383 -121 383 -121 383 -150 c 0,59,60
 383 -164 383 -164 391 -175 c 128,-1,61
 399 -186 399 -186 419 -186 c 0,62,63
 446 -186 446 -186 462.5 -172 c 128,-1,64
 479 -158 479 -158 490 -142 c 1,65,-1
 532 -180 l 1,66,67
 509 -211 509 -211 478 -231.5 c 128,-1,68
 447 -252 447 -252 396 -252 c 0,69,70
 363 -252 363 -252 335.5 -242.5 c 128,-1,71
 308 -233 308 -233 292 -212.5 c 128,-1,72
 276 -192 276 -192 276 -161 c 0,73,74
 276 -138 276 -138 284.5 -118 c 128,-1,75
 293 -98 293 -98 313 -77 c 128,-1,76
 333 -56 333 -56 368.5 -28 c 128,-1,77
 404 0 404 0 458 40 c 1,0,-1
EndSplineSet
EndChar

StartChar: Uhorn
Encoding: 431 431 185
Width: 808
GlyphClass: 2
Flags: W
AnchorPoint: "Anchor-1" 407 -35 basechar 0
AnchorPoint: "Anchor-0" 407 663 basechar 0
LayerCount: 2
Fore
SplineSet
115 220 m 2,0,-1
 115 602 l 2,1,2
 115 624 115 624 98.5 631 c 128,-1,3
 82 638 82 638 52 638 c 2,4,-1
 42 638 l 1,5,-1
 42 710 l 1,6,-1
 291 710 l 1,7,-1
 291 638 l 1,8,-1
 284 638 l 2,9,10
 273 638 273 638 260 637.5 c 128,-1,11
 247 637 247 637 236.5 635.5 c 128,-1,12
 226 634 226 634 219 632.5 c 128,-1,13
 212 631 212 631 212 628 c 2,14,-1
 212 221 l 2,15,16
 212 173 212 173 223.5 140.5 c 128,-1,17
 235 108 235 108 256 89 c 128,-1,18
 277 70 277 70 306 61.5 c 128,-1,19
 335 53 335 53 370 53 c 0,20,21
 412 53 412 53 445.5 68.5 c 128,-1,22
 479 84 479 84 498 121 c 128,-1,23
 517 158 517 158 517 221 c 2,24,-1
 517 619 l 2,25,26
 517 624 517 624 511.5 627.5 c 128,-1,27
 506 631 506 631 497 633 c 128,-1,28
 488 635 488 635 476 636.5 c 128,-1,29
 464 638 464 638 452 638 c 2,30,-1
 445 638 l 1,31,-1
 445 710 l 1,32,-1
 644 710 l 2,33,34
 673 710 673 710 693 723 c 128,-1,35
 713 736 713 736 725 760.5 c 128,-1,36
 737 785 737 785 743.5 820 c 128,-1,37
 750 855 750 855 752 899 c 1,38,-1
 844 899 l 1,39,40
 842 846 842 846 835.5 805.5 c 128,-1,41
 829 765 829 765 814.5 735 c 128,-1,42
 800 705 800 705 778 685.5 c 128,-1,43
 756 666 756 666 723.5 654.5 c 128,-1,44
 691 643 691 643 646 638 c 0,45,46
 630 638 630 638 618.5 634 c 128,-1,47
 607 630 607 630 600.5 620.5 c 128,-1,48
 594 611 594 611 594 595 c 2,49,-1
 594 220 l 2,50,51
 594 155 594 155 576 108.5 c 128,-1,52
 558 62 558 62 525.5 33 c 128,-1,53
 493 4 493 4 450 -9.5 c 128,-1,54
 407 -23 407 -23 358 -23 c 0,55,56
 305 -23 305 -23 260.5 -9.5 c 128,-1,57
 216 4 216 4 183 33 c 128,-1,58
 150 62 150 62 132.5 108.5 c 128,-1,59
 115 155 115 155 115 220 c 2,0,-1
EndSplineSet
EndChar

StartChar: Ucaron
Encoding: 467 467 186
Width: 708
GlyphClass: 1
Flags: W
LayerCount: 2
Fore
SplineSet
326 806 m 1,0,-1
 395 806 l 1,1,-1
 511 961 l 1,2,-1
 511 981 l 1,3,-1
 463 981 l 1,4,-1
 304 841 l 1,5,-1
 422 844 l 1,6,-1
 265 981 l 1,7,-1
 208 981 l 1,8,-1
 208 961 l 1,9,-1
 326 806 l 1,0,-1
212 232 m 2,10,11
 212 182 212 182 223.5 147 c 128,-1,12
 235 112 235 112 256 91.5 c 128,-1,13
 277 71 277 71 305.5 61.5 c 128,-1,14
 334 52 334 52 367 52 c 256,15,16
 400 52 400 52 427.5 61.5 c 128,-1,17
 455 71 455 71 474.5 91.5 c 128,-1,18
 494 112 494 112 505 147 c 128,-1,19
 516 182 516 182 516 232 c 2,20,-1
 516 618 l 2,21,22
 516 624 516 624 509.5 627.5 c 128,-1,23
 503 631 503 631 493.5 633 c 128,-1,24
 484 635 484 635 472.5 636.5 c 128,-1,25
 461 638 461 638 452 638 c 2,26,-1
 445 638 l 1,27,-1
 445 710 l 1,28,-1
 665 710 l 1,29,-1
 665 638 l 1,30,-1
 657 638 l 2,31,32
 641 638 641 638 627 634 c 128,-1,33
 613 630 613 630 604.5 620 c 128,-1,34
 596 610 596 610 596 593 c 2,35,-1
 596 220 l 2,36,37
 596 155 596 155 577 108.5 c 128,-1,38
 558 62 558 62 525 33 c 128,-1,39
 492 4 492 4 449 -9.5 c 128,-1,40
 406 -23 406 -23 358 -23 c 0,41,42
 307 -23 307 -23 262.5 -9.5 c 128,-1,43
 218 4 218 4 184.5 33 c 128,-1,44
 151 62 151 62 133 108.5 c 128,-1,45
 115 155 115 155 115 220 c 2,46,-1
 115 602 l 2,47,48
 115 624 115 624 95.5 631 c 128,-1,49
 76 638 76 638 52 638 c 2,50,-1
 42 638 l 1,51,-1
 42 710 l 1,52,-1
 291 710 l 1,53,-1
 291 638 l 1,54,-1
 284 638 l 2,55,56
 273 638 273 638 260 637.5 c 128,-1,57
 247 637 247 637 236.5 635.5 c 128,-1,58
 226 634 226 634 219 632.5 c 128,-1,59
 212 631 212 631 212 628 c 2,60,-1
 212 232 l 2,10,11
EndSplineSet
EndChar

StartChar: Udieresiscaron
Encoding: 473 473 187
Width: 708
GlyphClass: 1
Flags: W
LayerCount: 2
Fore
SplineSet
323 968 m 1,0,-1
 392 968 l 1,1,-1
 509 1123 l 1,2,-1
 509 1143 l 1,3,-1
 461 1143 l 1,4,-1
 301 1003 l 1,5,-1
 420 1006 l 1,6,-1
 263 1143 l 1,7,-1
 205 1143 l 1,8,-1
 205 1123 l 1,9,-1
 323 968 l 1,0,-1
212 232 m 2,10,11
 212 182 212 182 223.5 147 c 128,-1,12
 235 112 235 112 256 91.5 c 128,-1,13
 277 71 277 71 305.5 61.5 c 128,-1,14
 334 52 334 52 367 52 c 256,15,16
 400 52 400 52 427.5 61.5 c 128,-1,17
 455 71 455 71 474.5 91.5 c 128,-1,18
 494 112 494 112 505 147 c 128,-1,19
 516 182 516 182 516 232 c 2,20,-1
 516 618 l 2,21,22
 516 624 516 624 509.5 627.5 c 128,-1,23
 503 631 503 631 493.5 633 c 128,-1,24
 484 635 484 635 472.5 636.5 c 128,-1,25
 461 638 461 638 452 638 c 2,26,-1
 445 638 l 1,27,-1
 445 710 l 1,28,-1
 665 710 l 1,29,-1
 665 638 l 1,30,-1
 657 638 l 2,31,32
 641 638 641 638 627 634 c 128,-1,33
 613 630 613 630 604.5 620 c 128,-1,34
 596 610 596 610 596 593 c 2,35,-1
 596 220 l 2,36,37
 596 155 596 155 577 108.5 c 128,-1,38
 558 62 558 62 525 33 c 128,-1,39
 492 4 492 4 449 -9.5 c 128,-1,40
 406 -23 406 -23 358 -23 c 0,41,42
 307 -23 307 -23 262.5 -9.5 c 128,-1,43
 218 4 218 4 184.5 33 c 128,-1,44
 151 62 151 62 133 108.5 c 128,-1,45
 115 155 115 155 115 220 c 2,46,-1
 115 602 l 2,47,48
 115 624 115 624 95.5 631 c 128,-1,49
 76 638 76 638 52 638 c 2,50,-1
 42 638 l 1,51,-1
 42 710 l 1,52,-1
 291 710 l 1,53,-1
 291 638 l 1,54,-1
 284 638 l 2,55,56
 273 638 273 638 260 637.5 c 128,-1,57
 247 637 247 637 236.5 635.5 c 128,-1,58
 226 634 226 634 219 632.5 c 128,-1,59
 212 631 212 631 212 628 c 2,60,-1
 212 232 l 2,10,11
311 865 m 0,61,62
 311 829 311 829 292 813.5 c 128,-1,63
 273 798 273 798 243 798 c 256,64,65
 213 798 213 798 194.5 813.5 c 128,-1,66
 176 829 176 829 176 865 c 0,67,68
 176 900 176 900 194.5 915.5 c 128,-1,69
 213 931 213 931 243 931 c 256,70,71
 273 931 273 931 292 915.5 c 128,-1,72
 311 900 311 900 311 865 c 0,61,62
537 865 m 0,73,74
 537 829 537 829 518.5 813.5 c 128,-1,75
 500 798 500 798 470 798 c 256,76,77
 440 798 440 798 421.5 813.5 c 128,-1,78
 403 829 403 829 403 865 c 0,79,80
 403 900 403 900 421.5 915.5 c 128,-1,81
 440 931 440 931 470 931 c 256,82,83
 500 931 500 931 518.5 915.5 c 128,-1,84
 537 900 537 900 537 865 c 0,73,74
EndSplineSet
EndChar

StartChar: Udblgrave
Encoding: 532 532 188
Width: 708
GlyphClass: 1
Flags: W
LayerCount: 2
Fore
SplineSet
436 924 m 2,0,-1
 475 824 l 1,1,-1
 475 793 l 1,2,-1
 436 793 l 1,3,-1
 370 859 l 2,4,5
 351 878 351 878 341 895 c 128,-1,6
 331 912 331 912 331 933 c 0,7,8
 331 950 331 950 343.5 962 c 128,-1,9
 356 974 356 974 378 974 c 0,10,11
 393 974 393 974 404 967 c 128,-1,12
 415 960 415 960 423 949 c 128,-1,13
 431 938 431 938 436 924 c 2,0,-1
262 924 m 2,14,-1
 298 824 l 1,15,-1
 298 793 l 1,16,-1
 260 793 l 1,17,-1
 194 859 l 2,18,19
 175 878 175 878 164.5 895 c 128,-1,20
 154 912 154 912 154 933 c 0,21,22
 154 950 154 950 166.5 962 c 128,-1,23
 179 974 179 974 201 974 c 0,24,25
 216 974 216 974 228 967.5 c 128,-1,26
 240 961 240 961 248.5 949.5 c 128,-1,27
 257 938 257 938 262 924 c 2,14,-1
212 232 m 2,28,29
 212 182 212 182 223.5 147 c 128,-1,30
 235 112 235 112 256 91.5 c 128,-1,31
 277 71 277 71 305.5 61.5 c 128,-1,32
 334 52 334 52 367 52 c 256,33,34
 400 52 400 52 427.5 61.5 c 128,-1,35
 455 71 455 71 474.5 91.5 c 128,-1,36
 494 112 494 112 505 147 c 128,-1,37
 516 182 516 182 516 232 c 2,38,-1
 516 618 l 2,39,40
 516 624 516 624 509.5 627.5 c 128,-1,41
 503 631 503 631 493.5 633 c 128,-1,42
 484 635 484 635 472.5 636.5 c 128,-1,43
 461 638 461 638 452 638 c 2,44,-1
 445 638 l 1,45,-1
 445 710 l 1,46,-1
 665 710 l 1,47,-1
 665 638 l 1,48,-1
 657 638 l 2,49,50
 641 638 641 638 627 634 c 128,-1,51
 613 630 613 630 604.5 620 c 128,-1,52
 596 610 596 610 596 593 c 2,53,-1
 596 220 l 2,54,55
 596 155 596 155 577 108.5 c 128,-1,56
 558 62 558 62 525 33 c 128,-1,57
 492 4 492 4 449 -9.5 c 128,-1,58
 406 -23 406 -23 358 -23 c 0,59,60
 307 -23 307 -23 262.5 -9.5 c 128,-1,61
 218 4 218 4 184.5 33 c 128,-1,62
 151 62 151 62 133 108.5 c 128,-1,63
 115 155 115 155 115 220 c 2,64,-1
 115 602 l 2,65,66
 115 624 115 624 95.5 631 c 128,-1,67
 76 638 76 638 52 638 c 2,68,-1
 42 638 l 1,69,-1
 42 710 l 1,70,-1
 291 710 l 1,71,-1
 291 638 l 1,72,-1
 284 638 l 2,73,74
 273 638 273 638 260 637.5 c 128,-1,75
 247 637 247 637 236.5 635.5 c 128,-1,76
 226 634 226 634 219 632.5 c 128,-1,77
 212 631 212 631 212 628 c 2,78,-1
 212 232 l 2,28,29
EndSplineSet
EndChar

StartChar: Uinvertedbreve
Encoding: 534 534 189
Width: 708
GlyphClass: 1
Flags: W
LayerCount: 2
Fore
SplineSet
354 929 m 0,0,1
 303 929 303 929 268 913 c 128,-1,2
 233 897 233 897 214.5 861 c 128,-1,3
 196 825 196 825 195 765 c 1,4,-1
 264 765 l 1,5,6
 267 801 267 801 275 820.5 c 128,-1,7
 283 840 283 840 302 847.5 c 128,-1,8
 321 855 321 855 354 855 c 0,9,10
 384 855 384 855 402.5 847.5 c 128,-1,11
 421 840 421 840 430 820.5 c 128,-1,12
 439 801 439 801 440 765 c 1,13,-1
 513 765 l 1,14,15
 512 825 512 825 493 861 c 128,-1,16
 474 897 474 897 438.5 913 c 128,-1,17
 403 929 403 929 354 929 c 0,0,1
212 232 m 2,18,19
 212 182 212 182 223.5 147 c 128,-1,20
 235 112 235 112 256 91.5 c 128,-1,21
 277 71 277 71 305.5 61.5 c 128,-1,22
 334 52 334 52 367 52 c 256,23,24
 400 52 400 52 427.5 61.5 c 128,-1,25
 455 71 455 71 474.5 91.5 c 128,-1,26
 494 112 494 112 505 147 c 128,-1,27
 516 182 516 182 516 232 c 2,28,-1
 516 618 l 2,29,30
 516 624 516 624 509.5 627.5 c 128,-1,31
 503 631 503 631 493.5 633 c 128,-1,32
 484 635 484 635 472.5 636.5 c 128,-1,33
 461 638 461 638 452 638 c 2,34,-1
 445 638 l 1,35,-1
 445 710 l 1,36,-1
 665 710 l 1,37,-1
 665 638 l 1,38,-1
 657 638 l 2,39,40
 641 638 641 638 627 634 c 128,-1,41
 613 630 613 630 604.5 620 c 128,-1,42
 596 610 596 610 596 593 c 2,43,-1
 596 220 l 2,44,45
 596 155 596 155 577 108.5 c 128,-1,46
 558 62 558 62 525 33 c 128,-1,47
 492 4 492 4 449 -9.5 c 128,-1,48
 406 -23 406 -23 358 -23 c 0,49,50
 307 -23 307 -23 262.5 -9.5 c 128,-1,51
 218 4 218 4 184.5 33 c 128,-1,52
 151 62 151 62 133 108.5 c 128,-1,53
 115 155 115 155 115 220 c 2,54,-1
 115 602 l 2,55,56
 115 624 115 624 95.5 631 c 128,-1,57
 76 638 76 638 52 638 c 2,58,-1
 42 638 l 1,59,-1
 42 710 l 1,60,-1
 291 710 l 1,61,-1
 291 638 l 1,62,-1
 284 638 l 2,63,64
 273 638 273 638 260 637.5 c 128,-1,65
 247 637 247 637 236.5 635.5 c 128,-1,66
 226 634 226 634 219 632.5 c 128,-1,67
 212 631 212 631 212 628 c 2,68,-1
 212 232 l 2,18,19
EndSplineSet
EndChar

StartChar: V
Encoding: 86 86 199
Width: 650
GlyphClass: 2
Flags: W
AnchorPoint: "Anchor-0" 360 741 basechar 0
LayerCount: 2
Fore
SplineSet
349 19 m 1,0,-1
 322 30 l 1,1,-1
 490 615 l 2,2,3
 490 622 490 622 482 627 c 128,-1,4
 474 632 474 632 459 635 c 128,-1,5
 444 638 444 638 425 638 c 2,6,-1
 416 638 l 1,7,-1
 416 710 l 1,8,-1
 632 710 l 1,9,-1
 632 638 l 1,10,-1
 627 638 l 2,11,12
 607 638 607 638 590.5 626 c 128,-1,13
 574 614 574 614 563 574 c 2,14,-1
 387 -12 l 1,15,-1
 264 -12 l 1,16,-1
 88 574 l 2,17,18
 76 614 76 614 59.5 626 c 128,-1,19
 43 638 43 638 22 638 c 2,20,-1
 18 638 l 1,21,-1
 18 710 l 1,22,-1
 257 710 l 1,23,-1
 257 638 l 1,24,-1
 247 638 l 2,25,26
 223 638 223 638 206 636.5 c 128,-1,27
 189 635 189 635 180.5 633 c 128,-1,28
 172 631 172 631 172 627 c 2,29,-1
 349 19 l 1,0,-1
EndSplineSet
EndChar

StartChar: W
Encoding: 87 87 200
Width: 905
GlyphClass: 2
Flags: W
AnchorPoint: "Anchor-0" 465 741 basechar 0
LayerCount: 2
Fore
SplineSet
19 710 m 1,0,-1
 245 710 l 1,1,-1
 245 638 l 1,2,-1
 232 638 l 2,3,4
 220 638 220 638 205.5 636.5 c 128,-1,5
 191 635 191 635 180 633 c 128,-1,6
 169 631 169 631 169 627 c 2,7,-1
 301 33 l 1,8,-1
 258 30 l 1,9,-1
 415 710 l 1,10,-1
 519 710 l 1,11,-1
 674 35 l 1,12,-1
 634 34 l 1,13,-1
 763 615 l 2,14,15
 763 622 763 622 754.5 627 c 128,-1,16
 746 632 746 632 734 635 c 128,-1,17
 722 638 722 638 710 638 c 2,18,-1
 698 638 l 1,19,-1
 698 710 l 1,20,-1
 888 710 l 1,21,-1
 888 638 l 1,22,-1
 882 638 l 2,23,24
 865 638 865 638 851 627 c 128,-1,25
 837 616 837 616 831 586 c 2,26,-1
 699 -5 l 1,27,-1
 594 -5 l 1,28,-1
 439 656 l 1,29,-1
 480 661 l 1,30,-1
 325 -5 l 1,31,-1
 220 -5 l 1,32,-1
 79 594 l 2,33,34
 73 624 73 624 60 631 c 128,-1,35
 47 638 47 638 25 638 c 2,36,-1
 19 638 l 1,37,-1
 19 710 l 1,0,-1
EndSplineSet
EndChar

StartChar: X
Encoding: 88 88 205
Width: 658
GlyphClass: 2
Flags: W
AnchorPoint: "Anchor-1" 355 0 basechar 0
AnchorPoint: "Anchor-0" 378 741 basechar 0
LayerCount: 2
Fore
SplineSet
35 638 m 1,0,-1
 35 710 l 1,1,-1
 284 710 l 1,2,-1
 284 638 l 1,3,-1
 269 638 l 2,4,5
 253 638 253 638 238.5 637 c 128,-1,6
 224 636 224 636 214.5 634 c 128,-1,7
 205 632 205 632 205 628 c 2,8,-1
 362 391 l 1,9,-1
 372 387 l 1,10,-1
 555 106 l 2,11,12
 570 84 570 84 585 78 c 128,-1,13
 600 72 600 72 617 72 c 2,14,-1
 635 72 l 1,15,-1
 635 0 l 1,16,-1
 382 0 l 1,17,-1
 382 72 l 1,18,-1
 397 72 l 2,19,20
 413 72 413 72 427.5 73 c 128,-1,21
 442 74 442 74 451 76.5 c 128,-1,22
 460 79 460 79 460 82 c 2,23,-1
 292 341 l 1,24,-1
 282 346 l 1,25,-1
 111 604 l 2,26,27
 97 627 97 627 81 632.5 c 128,-1,28
 65 638 65 638 47 638 c 2,29,-1
 35 638 l 1,0,-1
24 0 m 1,30,-1
 24 72 l 1,31,-1
 42 72 l 2,32,33
 57 72 57 72 70.5 82 c 128,-1,34
 84 92 84 92 101 118 c 2,35,-1
 270 380 l 1,36,-1
 331 340 l 1,37,-1
 171 89 l 2,38,39
 171 85 171 85 180.5 81 c 128,-1,40
 190 77 190 77 203.5 74.5 c 128,-1,41
 217 72 217 72 229 72 c 2,42,-1
 245 72 l 1,43,-1
 245 0 l 1,44,-1
 24 0 l 1,30,-1
386 355 m 1,45,-1
 325 392 l 1,46,-1
 477 620 l 2,47,48
 477 626 477 626 467 630 c 128,-1,49
 457 634 457 634 443 636 c 128,-1,50
 429 638 429 638 416 638 c 2,51,-1
 403 638 l 1,52,-1
 403 710 l 1,53,-1
 621 710 l 1,54,-1
 621 638 l 1,55,-1
 609 638 l 2,56,57
 593 638 593 638 579 629 c 128,-1,58
 565 620 565 620 546 593 c 2,59,-1
 386 355 l 1,45,-1
EndSplineSet
EndChar

StartChar: Y
Encoding: 89 89 206
Width: 618
GlyphClass: 2
Flags: W
AnchorPoint: "Anchor-1" 312 0 basechar 0
AnchorPoint: "Anchor-0" 312 741 basechar 0
LayerCount: 2
Fore
SplineSet
261 296 m 1,0,-1
 267 262 l 1,1,-1
 89 593 l 2,2,3
 79 611 79 611 71 621 c 128,-1,4
 63 631 63 631 54 634.5 c 128,-1,5
 45 638 45 638 33 638 c 2,6,-1
 23 638 l 1,7,-1
 23 710 l 1,8,-1
 247 710 l 1,9,-1
 247 638 l 1,10,-1
 234 638 l 2,11,12
 219 638 219 638 205.5 636.5 c 128,-1,13
 192 635 192 635 183 633 c 128,-1,14
 174 631 174 631 174 627 c 2,15,-1
 348 299 l 1,16,-1
 297 299 l 1,17,-1
 455 615 l 2,18,19
 455 622 455 622 446.5 627 c 128,-1,20
 438 632 438 632 426.5 635 c 128,-1,21
 415 638 415 638 406 638 c 2,22,-1
 396 638 l 1,23,-1
 396 710 l 1,24,-1
 591 710 l 1,25,-1
 591 638 l 1,26,-1
 581 638 l 2,27,28
 571 638 571 638 561 633 c 128,-1,29
 551 628 551 628 541.5 616.5 c 128,-1,30
 532 605 532 605 522 585 c 2,31,-1
 353 261 l 1,32,-1
 360 296 l 1,33,-1
 360 108 l 2,34,35
 360 86 360 86 380 79 c 128,-1,36
 400 72 400 72 428 72 c 2,37,-1
 446 72 l 1,38,-1
 446 0 l 1,39,-1
 175 0 l 1,40,-1
 175 72 l 1,41,-1
 192 72 l 2,42,43
 221 72 221 72 241 79 c 128,-1,44
 261 86 261 86 261 108 c 2,45,-1
 261 296 l 1,0,-1
EndSplineSet
EndChar

StartChar: Z
Encoding: 90 90 216
Width: 590
GlyphClass: 2
Flags: W
AnchorPoint: "Anchor-1" 312 0 basechar 0
AnchorPoint: "Anchor-0" 312 741 basechar 0
LayerCount: 2
Fore
SplineSet
240 639 m 2,0,1
 213 639 213 639 196.5 637 c 128,-1,2
 180 635 180 635 171 630 c 128,-1,3
 162 625 162 625 157 616.5 c 128,-1,4
 152 608 152 608 151 594 c 2,5,-1
 139 506 l 1,6,-1
 69 506 l 1,7,-1
 69 710 l 1,8,-1
 522 710 l 1,9,-1
 522 634 l 1,10,-1
 129 20 l 1,11,-1
 110 71 l 1,12,-1
 361 71 l 2,13,14
 397 71 397 71 416 74.5 c 128,-1,15
 435 78 435 78 442.5 88 c 128,-1,16
 450 98 450 98 452 116 c 2,17,-1
 465 229 l 1,18,-1
 537 229 l 1,19,-1
 537 0 l 1,20,-1
 55 0 l 1,21,-1
 55 79 l 1,22,-1
 440 679 l 1,23,-1
 461 639 l 1,24,-1
 240 639 l 2,0,1
EndSplineSet
EndChar

StartChar: Zcaron
Encoding: 381 381 219
Width: 590
GlyphClass: 1
Flags: W
LayerCount: 2
Fore
SplineSet
256 806 m 1,0,-1
 325 806 l 1,1,-1
 442 961 l 1,2,-1
 442 981 l 1,3,-1
 394 981 l 1,4,-1
 234 841 l 1,5,-1
 353 844 l 1,6,-1
 196 981 l 1,7,-1
 138 981 l 1,8,-1
 138 961 l 1,9,-1
 256 806 l 1,0,-1
240 639 m 2,10,11
 213 639 213 639 196.5 637 c 128,-1,12
 180 635 180 635 171 630 c 128,-1,13
 162 625 162 625 157 616.5 c 128,-1,14
 152 608 152 608 151 594 c 2,15,-1
 139 506 l 1,16,-1
 69 506 l 1,17,-1
 69 710 l 1,18,-1
 522 710 l 1,19,-1
 522 634 l 1,20,-1
 129 20 l 1,21,-1
 110 71 l 1,22,-1
 361 71 l 2,23,24
 397 71 397 71 416 74.5 c 128,-1,25
 435 78 435 78 442.5 88 c 128,-1,26
 450 98 450 98 452 116 c 2,27,-1
 465 229 l 1,28,-1
 537 229 l 1,29,-1
 537 0 l 1,30,-1
 55 0 l 1,31,-1
 55 79 l 1,32,-1
 440 679 l 1,33,-1
 461 639 l 1,34,-1
 240 639 l 2,10,11
EndSplineSet
EndChar

StartChar: AE
Encoding: 198 198 221
Width: 948
GlyphClass: 2
Flags: W
AnchorPoint: "Anchor-0" 584 741 basechar 0
LayerCount: 2
Fore
SplineSet
208 302 m 1,0,-1
 491 302 l 1,1,-1
 507 229 l 1,2,-1
 192 229 l 1,3,-1
 208 302 l 1,0,-1
540 398 m 1,4,5
 581 401 581 401 622 403 c 128,-1,6
 663 405 663 405 704.5 407.5 c 128,-1,7
 746 410 746 410 787 412 c 1,8,-1
 787 318 l 1,9,10
 746 321 746 321 705 323 c 128,-1,11
 664 325 664 325 623 327.5 c 128,-1,12
 582 330 582 330 540 332 c 1,13,-1
 540 398 l 1,4,5
385 0 m 1,14,-1
 385 72 l 1,15,-1
 393 72 l 2,16,17
 414 72 414 72 428.5 75 c 128,-1,18
 443 78 443 78 451.5 85.5 c 128,-1,19
 460 93 460 93 460 106 c 2,20,-1
 460 660 l 1,21,-1
 438 645 l 1,22,-1
 158 95 l 2,23,24
 158 89 158 89 163.5 83.5 c 128,-1,25
 169 78 169 78 183 75 c 128,-1,26
 197 72 197 72 220 72 c 2,27,-1
 228 72 l 1,28,-1
 228 0 l 1,29,-1
 5 0 l 1,30,-1
 5 72 l 1,31,-1
 10 72 l 2,32,33
 27 72 27 72 40.5 78 c 128,-1,34
 54 84 54 84 66 98.5 c 128,-1,35
 78 113 78 113 90 136 c 2,36,-1
 331 606 l 1,37,38
 331 621 331 621 326 627.5 c 128,-1,39
 321 634 321 634 309.5 636 c 128,-1,40
 298 638 298 638 278 638 c 2,41,-1
 269 638 l 1,42,-1
 269 710 l 1,43,-1
 870 710 l 1,44,-1
 870 511 l 1,45,-1
 799 511 l 1,46,-1
 788 594 l 2,47,48
 786 612 786 612 774.5 622 c 128,-1,49
 763 632 763 632 741 635.5 c 128,-1,50
 719 639 719 639 684 639 c 2,51,-1
 557 639 l 1,52,-1
 557 71 l 1,53,-1
 699 71 l 2,54,55
 726 71 726 71 745.5 73 c 128,-1,56
 765 75 765 75 777.5 80 c 128,-1,57
 790 85 790 85 796 94 c 128,-1,58
 802 103 802 103 804 116 c 2,59,-1
 816 224 l 1,60,-1
 889 224 l 1,61,-1
 889 0 l 1,62,-1
 385 0 l 1,14,-1
EndSplineSet
EndChar

StartChar: Eth
Encoding: 208 208 223
Width: 690
GlyphClass: 1
Flags: W
LayerCount: 2
Fore
SplineSet
44 395 m 1,0,-1
 390 395 l 1,1,-1
 390 325 l 1,2,-1
 44 325 l 1,3,-1
 44 395 l 1,0,-1
52 638 m 1,4,-1
 52 710 l 1,5,-1
 312 710 l 2,6,7
 388 710 388 710 448.5 689 c 128,-1,8
 509 668 509 668 551.5 625 c 128,-1,9
 594 582 594 582 616 515.5 c 128,-1,10
 638 449 638 449 638 359 c 256,11,12
 638 269 638 269 616 201.5 c 128,-1,13
 594 134 594 134 551.5 89.5 c 128,-1,14
 509 45 509 45 448.5 22.5 c 128,-1,15
 388 0 388 0 312 0 c 2,16,-1
 52 0 l 1,17,-1
 52 72 l 1,18,-1
 61 72 l 2,19,20
 86 72 86 72 105 79 c 128,-1,21
 124 86 124 86 124 108 c 2,22,-1
 124 602 l 2,23,24
 124 624 124 624 105 631 c 128,-1,25
 86 638 86 638 61 638 c 2,26,-1
 52 638 l 1,4,-1
308 639 m 2,27,-1
 222 639 l 1,28,-1
 222 71 l 1,29,-1
 308 71 l 2,30,31
 366 71 366 71 408.5 88.5 c 128,-1,32
 451 106 451 106 478.5 141.5 c 128,-1,33
 506 177 506 177 520 231.5 c 128,-1,34
 534 286 534 286 534 359 c 0,35,36
 534 433 534 433 520 486 c 128,-1,37
 506 539 506 539 478.5 573 c 128,-1,38
 451 607 451 607 408.5 623 c 128,-1,39
 366 639 366 639 308 639 c 2,27,-1
EndSplineSet
EndChar

StartChar: Oslash
Encoding: 216 216 224
Width: 698
GlyphClass: 2
Flags: W
AnchorPoint: "Anchor-0" 349 731 basechar 0
LayerCount: 2
Fore
SplineSet
350 661 m 256,0,1
 302 661 302 661 266 642.5 c 128,-1,2
 230 624 230 624 206 586.5 c 128,-1,3
 182 549 182 549 170 491 c 128,-1,4
 158 433 158 433 158 355 c 0,5,6
 158 271 158 271 169.5 212.5 c 128,-1,7
 181 154 181 154 205 118.5 c 128,-1,8
 229 83 229 83 265 66 c 128,-1,9
 301 49 301 49 350 49 c 0,10,11
 397 49 397 49 433 67.5 c 128,-1,12
 469 86 469 86 493 123.5 c 128,-1,13
 517 161 517 161 529 218.5 c 128,-1,14
 541 276 541 276 541 355 c 0,15,16
 541 439 541 439 529 497.5 c 128,-1,17
 517 556 517 556 493 591.5 c 128,-1,18
 469 627 469 627 433.5 644 c 128,-1,19
 398 661 398 661 350 661 c 256,0,1
350 -23 m 0,20,21
 283 -23 283 -23 228 2 c 128,-1,22
 173 27 173 27 134 75.5 c 128,-1,23
 95 124 95 124 73.5 194 c 128,-1,24
 52 264 52 264 52 355 c 0,25,26
 52 449 52 449 73.5 519.5 c 128,-1,27
 95 590 95 590 134.5 637.5 c 128,-1,28
 174 685 174 685 228.5 709 c 128,-1,29
 283 733 283 733 350 733 c 0,30,31
 416 733 416 733 470 708.5 c 128,-1,32
 524 684 524 684 563.5 636 c 128,-1,33
 603 588 603 588 624.5 517.5 c 128,-1,34
 646 447 646 447 646 355 c 0,35,36
 646 262 646 262 625 191 c 128,-1,37
 604 120 604 120 564.5 72.5 c 128,-1,38
 525 25 525 25 470.5 1 c 128,-1,39
 416 -23 416 -23 350 -23 c 0,20,21
-1 -21 m 1,40,-1
 616 731 l 1,41,-1
 699 731 l 1,42,-1
 83 -21 l 1,43,-1
 -1 -21 l 1,40,-1
EndSplineSet
EndChar

StartChar: Thorn
Encoding: 222 222 226
Width: 631
GlyphClass: 1
Flags: W
LayerCount: 2
Fore
SplineSet
318 710 m 1,0,-1
 52 710 l 1,1,-1
 52 638 l 1,2,-1
 61 638 l 2,3,4
 92 638 92 638 108 631 c 128,-1,5
 124 624 124 624 124 601 c 2,6,-1
 124 109 l 2,7,8
 124 86 124 86 108 79 c 128,-1,9
 92 72 92 72 61 72 c 2,10,-1
 52 72 l 1,11,-1
 52 0 l 1,12,-1
 318 0 l 1,13,-1
 318 72 l 1,14,-1
 300 72 l 2,15,16
 285 72 285 72 271 72.5 c 128,-1,17
 257 73 257 73 246 74.5 c 128,-1,18
 235 76 235 76 228.5 77.5 c 128,-1,19
 222 79 222 79 222 82 c 2,20,-1
 222 628 l 2,21,22
 222 631 222 631 228.5 632.5 c 128,-1,23
 235 634 235 634 246 635.5 c 128,-1,24
 257 637 257 637 271 637.5 c 128,-1,25
 285 638 285 638 300 638 c 2,26,-1
 318 638 l 1,27,-1
 318 710 l 1,0,-1
579 367 m 256,28,29
 579 429 579 429 550.5 471 c 128,-1,30
 522 513 522 513 472 534.5 c 128,-1,31
 422 556 422 556 354 556 c 2,32,-1
 192 556 l 1,33,-1
 192 486 l 1,34,-1
 350 486 l 2,35,36
 393 486 393 486 420.5 473 c 128,-1,37
 448 460 448 460 461.5 434 c 128,-1,38
 475 408 475 408 475 366 c 0,39,40
 475 327 475 327 461.5 299 c 128,-1,41
 448 271 448 271 420 257 c 128,-1,42
 392 243 392 243 349 243 c 2,43,-1
 196 243 l 1,44,-1
 196 173 l 1,45,-1
 354 173 l 2,46,47
 419 173 419 173 470 196 c 128,-1,48
 521 219 521 219 550 262 c 128,-1,49
 579 305 579 305 579 367 c 256,28,29
EndSplineSet
EndChar

StartChar: Hbar
Encoding: 294 294 228
Width: 746
GlyphClass: 1
Flags: W
LayerCount: 2
Fore
SplineSet
194 373 m 1,0,-1
 549 373 l 1,1,-1
 549 308 l 1,2,-1
 194 308 l 1,3,-1
 194 373 l 1,0,-1
50 0 m 1,4,-1
 50 72 l 1,5,-1
 59 72 l 2,6,7
 83 72 83 72 102 79 c 128,-1,8
 121 86 121 86 121 109 c 2,9,-1
 121 601 l 2,10,11
 121 624 121 624 102 631 c 128,-1,12
 83 638 83 638 59 638 c 2,13,-1
 50 638 l 1,14,-1
 50 710 l 1,15,-1
 299 710 l 1,16,-1
 299 638 l 1,17,-1
 291 638 l 2,18,19
 279 638 279 638 266.5 637.5 c 128,-1,20
 254 637 254 637 243 635.5 c 128,-1,21
 232 634 232 634 225.5 632.5 c 128,-1,22
 219 631 219 631 219 628 c 2,23,-1
 219 81 l 2,24,25
 219 79 219 79 226 77.5 c 128,-1,26
 233 76 233 76 243.5 74.5 c 128,-1,27
 254 73 254 73 266.5 72.5 c 128,-1,28
 279 72 279 72 291 72 c 2,29,-1
 299 72 l 1,30,-1
 299 0 l 1,31,-1
 50 0 l 1,4,-1
448 0 m 1,32,-1
 448 72 l 1,33,-1
 455 72 l 2,34,35
 467 72 467 72 479.5 72.5 c 128,-1,36
 492 73 492 73 502.5 74.5 c 128,-1,37
 513 76 513 76 519.5 77.5 c 128,-1,38
 526 79 526 79 526 82 c 2,39,-1
 526 629 l 2,40,41
 526 631 526 631 519.5 632.5 c 128,-1,42
 513 634 513 634 502 635.5 c 128,-1,43
 491 637 491 637 479 637.5 c 128,-1,44
 467 638 467 638 456 638 c 2,45,-1
 448 638 l 1,46,-1
 448 710 l 1,47,-1
 696 710 l 1,48,-1
 696 638 l 1,49,-1
 687 638 l 2,50,51
 663 638 663 638 644 631 c 128,-1,52
 625 624 625 624 625 601 c 2,53,-1
 625 109 l 2,54,55
 625 86 625 86 644 79 c 128,-1,56
 663 72 663 72 687 72 c 2,57,-1
 696 72 l 1,58,-1
 696 0 l 1,59,-1
 448 0 l 1,32,-1
41 475 m 1,60,-1
 41 539 l 1,61,-1
 705 539 l 1,62,-1
 705 475 l 1,63,-1
 41 475 l 1,60,-1
EndSplineSet
EndChar

StartChar: Ldot
Encoding: 319 319 230
Width: 577
GlyphClass: 1
Flags: W
LayerCount: 2
Fore
SplineSet
311 710 m 1,0,-1
 52 710 l 1,1,-1
 52 638 l 1,2,-1
 61 638 l 2,3,4
 86 638 86 638 105 631 c 128,-1,5
 124 624 124 624 124 601 c 2,6,-1
 124 109 l 2,7,8
 124 86 124 86 105 79 c 128,-1,9
 86 72 86 72 61 72 c 2,10,-1
 52 72 l 1,11,-1
 52 0 l 1,12,-1
 531 0 l 1,13,-1
 531 221 l 1,14,-1
 458 221 l 1,15,-1
 446 116 l 2,16,17
 444 98 444 98 433 88 c 128,-1,18
 422 78 422 78 399 74.5 c 128,-1,19
 376 71 376 71 340 71 c 2,20,-1
 222 71 l 1,21,-1
 222 601 l 2,22,23
 222 624 222 624 243.5 631 c 128,-1,24
 265 638 265 638 298 638 c 2,25,-1
 311 638 l 1,26,-1
 311 710 l 1,0,-1
475 348 m 0,27,28
 438 348 438 348 413.5 371 c 128,-1,29
 389 394 389 394 389 432 c 0,30,31
 389 471 389 471 413.5 493.5 c 128,-1,32
 438 516 438 516 475 516 c 0,33,34
 513 516 513 516 537 493.5 c 128,-1,35
 561 471 561 471 561 432 c 0,36,37
 561 395 561 395 537 371.5 c 128,-1,38
 513 348 513 348 475 348 c 0,27,28
EndSplineSet
Ligature2: "Ligature Substitution lookup 5 subtable" L periodcentered
EndChar

StartChar: Lslash
Encoding: 321 321 231
Width: 577
GlyphClass: 1
Flags: W
LayerCount: 2
Fore
SplineSet
27 183 m 1,0,-1
 449 473 l 1,1,-1
 449 552 l 1,2,-1
 27 261 l 1,3,-1
 27 183 l 1,0,-1
311 710 m 1,4,-1
 52 710 l 1,5,-1
 52 638 l 1,6,-1
 61 638 l 2,7,8
 86 638 86 638 105 631 c 128,-1,9
 124 624 124 624 124 601 c 2,10,-1
 124 109 l 2,11,12
 124 86 124 86 105 79 c 128,-1,13
 86 72 86 72 61 72 c 2,14,-1
 52 72 l 1,15,-1
 52 0 l 1,16,-1
 531 0 l 1,17,-1
 531 234 l 1,18,-1
 458 234 l 1,19,-1
 446 116 l 2,20,21
 445 98 445 98 433.5 88 c 128,-1,22
 422 78 422 78 399.5 74.5 c 128,-1,23
 377 71 377 71 340 71 c 2,24,-1
 222 71 l 1,25,-1
 222 601 l 2,26,27
 222 624 222 624 243.5 631 c 128,-1,28
 265 638 265 638 298 638 c 2,29,-1
 311 638 l 1,30,-1
 311 710 l 1,4,-1
EndSplineSet
EndChar

StartChar: Eng
Encoding: 330 330 232
Width: 724
GlyphClass: 1
Flags: W
LayerCount: 2
Fore
SplineSet
610 -25 m 2,0,1
 610 -86 610 -86 594 -129.5 c 128,-1,2
 578 -173 578 -173 549.5 -199 c 128,-1,3
 521 -225 521 -225 483 -237.5 c 128,-1,4
 445 -250 445 -250 402 -250 c 0,5,6
 367 -250 367 -250 341 -244.5 c 128,-1,7
 315 -239 315 -239 300 -232 c 1,8,-1
 300 -153 l 1,9,10
 312 -158 312 -158 326.5 -163 c 128,-1,11
 341 -168 341 -168 359.5 -171 c 128,-1,12
 378 -174 378 -174 399 -174 c 0,13,14
 444 -174 444 -174 472.5 -160 c 128,-1,15
 501 -146 501 -146 515 -111.5 c 128,-1,16
 529 -77 529 -77 529 -16 c 2,17,-1
 529 55 l 1,18,-1
 549 -39 l 1,19,-1
 171 673 l 1,20,-1
 204 674 l 1,21,-1
 204 82 l 2,22,23
 204 79 204 79 213 76.5 c 128,-1,24
 222 74 222 74 236.5 73 c 128,-1,25
 251 72 251 72 264 72 c 2,26,-1
 276 72 l 1,27,-1
 276 0 l 1,28,-1
 52 0 l 1,29,-1
 52 72 l 1,30,-1
 61 72 l 2,31,32
 81 72 81 72 95 75 c 128,-1,33
 109 78 109 78 116.5 86.5 c 128,-1,34
 124 95 124 95 124 109 c 2,35,-1
 124 602 l 2,36,37
 124 617 124 617 116.5 624.5 c 128,-1,38
 109 632 109 632 95 635 c 128,-1,39
 81 638 81 638 61 638 c 2,40,-1
 52 638 l 1,41,-1
 52 710 l 1,42,-1
 255 710 l 1,43,-1
 585 72 l 1,44,-1
 529 75 l 1,45,-1
 529 628 l 2,46,47
 529 632 529 632 519.5 634 c 128,-1,48
 510 636 510 636 497 637 c 128,-1,49
 484 638 484 638 470 638 c 2,50,-1
 458 638 l 1,51,-1
 458 710 l 1,52,-1
 683 710 l 1,53,-1
 683 638 l 1,54,-1
 674 638 l 2,55,56
 653 638 653 638 639 635 c 128,-1,57
 625 632 625 632 617.5 624.5 c 128,-1,58
 610 617 610 617 610 602 c 2,59,-1
 610 -25 l 2,0,1
EndSplineSet
Substitution2: "'ss07' Style Set 7 lookup 67 subtable" Eng.afr
EndChar

StartChar: OE
Encoding: 338 338 233
Width: 941
GlyphClass: 1
Flags: W
LayerCount: 2
Fore
SplineSet
534 398 m 1,0,1
 575 401 575 401 616 403 c 128,-1,2
 657 405 657 405 698 407.5 c 128,-1,3
 739 410 739 410 780 412 c 1,4,-1
 780 319 l 1,5,6
 739 321 739 321 698 323 c 128,-1,7
 657 325 657 325 616 327.5 c 128,-1,8
 575 330 575 330 534 332 c 1,9,-1
 534 398 l 1,0,1
370 71 m 2,10,-1
 453 71 l 1,11,-1
 453 639 l 1,12,-1
 370 639 l 2,13,14
 316 639 316 639 276 622.5 c 128,-1,15
 236 606 236 606 210 571.5 c 128,-1,16
 184 537 184 537 171 482 c 128,-1,17
 158 427 158 427 158 351 c 256,18,19
 158 275 158 275 171 221.5 c 128,-1,20
 184 168 184 168 210 134.5 c 128,-1,21
 236 101 236 101 276 86 c 128,-1,22
 316 71 316 71 370 71 c 2,10,-1
367 0 m 2,23,24
 293 0 293 0 234.5 21 c 128,-1,25
 176 42 176 42 135.5 85 c 128,-1,26
 95 128 95 128 73.5 194.5 c 128,-1,27
 52 261 52 261 52 351 c 256,28,29
 52 441 52 441 73.5 508.5 c 128,-1,30
 95 576 95 576 135.5 620.5 c 128,-1,31
 176 665 176 665 234.5 687.5 c 128,-1,32
 293 710 293 710 367 710 c 2,33,-1
 863 710 l 1,34,-1
 863 511 l 1,35,-1
 792 511 l 1,36,-1
 782 594 l 2,37,38
 780 612 780 612 771.5 621.5 c 128,-1,39
 763 631 763 631 743.5 635 c 128,-1,40
 724 639 724 639 688 639 c 2,41,-1
 552 639 l 1,42,-1
 552 71 l 1,43,-1
 702 71 l 2,44,45
 729 71 729 71 747 73 c 128,-1,46
 765 75 765 75 776 80 c 128,-1,47
 787 85 787 85 791.5 94 c 128,-1,48
 796 103 796 103 798 116 c 2,49,-1
 809 224 l 1,50,-1
 882 224 l 1,51,-1
 882 0 l 1,52,-1
 367 0 l 2,23,24
EndSplineSet
EndChar

StartChar: Tbar
Encoding: 358 358 234
Width: 637
GlyphClass: 1
Flags: W
LayerCount: 2
Fore
SplineSet
115 342 m 1,0,-1
 518 342 l 1,1,-1
 518 271 l 1,2,-1
 115 271 l 1,3,-1
 115 342 l 1,0,-1
269 109 m 2,4,-1
 269 639 l 1,5,-1
 217 639 l 2,6,7
 180 639 180 639 161.5 633 c 128,-1,8
 143 627 143 627 136 614.5 c 128,-1,9
 129 602 129 602 126 580 c 2,10,-1
 115 475 l 1,11,-1
 45 475 l 1,12,-1
 45 710 l 1,13,-1
 591 710 l 1,14,-1
 591 475 l 1,15,-1
 522 475 l 1,16,-1
 510 580 l 2,17,18
 509 602 509 602 501.5 614.5 c 128,-1,19
 494 627 494 627 475 633 c 128,-1,20
 456 639 456 639 419 639 c 2,21,-1
 367 639 l 1,22,-1
 367 109 l 2,23,24
 367 86 367 86 389 79 c 128,-1,25
 411 72 411 72 438 72 c 2,26,-1
 455 72 l 1,27,-1
 455 0 l 1,28,-1
 182 0 l 1,29,-1
 182 72 l 1,30,-1
 199 72 l 2,31,32
 226 72 226 72 247.5 79 c 128,-1,33
 269 86 269 86 269 109 c 2,4,-1
EndSplineSet
EndChar

StartChar: Bhook
Encoding: 385 385 235
Width: 705
GlyphClass: 2
Flags: W
AnchorPoint: "Anchor-1" 380 0 basechar 0
AnchorPoint: "Anchor-0" 353 741 basechar 0
LayerCount: 2
Fore
SplineSet
265 406 m 1,0,-1
 408 406 l 2,1,2
 449 406 449 406 474.5 419.5 c 128,-1,3
 500 433 500 433 511.5 460.5 c 128,-1,4
 523 488 523 488 523 529 c 0,5,6
 523 565 523 565 512 589.5 c 128,-1,7
 501 614 501 614 476 626.5 c 128,-1,8
 451 639 451 639 409 639 c 2,9,-1
 302 639 l 1,10,-1
 302 71 l 1,11,-1
 417 71 l 2,12,13
 463 71 463 71 492 85.5 c 128,-1,14
 521 100 521 100 534.5 129.5 c 128,-1,15
 548 159 548 159 548 201 c 0,16,17
 548 245 548 245 533.5 275.5 c 128,-1,18
 519 306 519 306 488 322 c 128,-1,19
 457 338 457 338 407 338 c 2,20,-1
 265 338 l 1,21,-1
 265 406 l 1,0,-1
185 710 m 2,22,-1
 415 710 l 2,23,24
 466 710 466 710 505 699.5 c 128,-1,25
 544 689 544 689 570.5 667 c 128,-1,26
 597 645 597 645 610.5 611.5 c 128,-1,27
 624 578 624 578 624 533 c 0,28,29
 624 489 624 489 605.5 453 c 128,-1,30
 587 417 587 417 550.5 396.5 c 128,-1,31
 514 376 514 376 459 374 c 1,32,-1
 466 389 l 1,33,-1
 466 354 l 1,34,-1
 459 372 l 1,35,36
 521 369 521 369 563.5 346.5 c 128,-1,37
 606 324 606 324 628 286.5 c 128,-1,38
 650 249 650 249 650 197 c 0,39,40
 650 147 650 147 635.5 109.5 c 128,-1,41
 621 72 621 72 592 48 c 128,-1,42
 563 24 563 24 520.5 12 c 128,-1,43
 478 0 478 0 424 0 c 2,44,-1
 132 0 l 1,45,-1
 132 72 l 1,46,-1
 142 72 l 2,47,48
 166 72 166 72 185 79 c 128,-1,49
 204 86 204 86 204 108 c 2,50,-1
 204 639 l 1,51,-1
 187 639 l 2,52,53
 157 639 157 639 137.5 631.5 c 128,-1,54
 118 624 118 624 108 602.5 c 128,-1,55
 98 581 98 581 98 540 c 0,56,57
 98 518 98 518 100.5 499.5 c 128,-1,58
 103 481 103 481 107 468 c 1,59,-1
 11 468 l 1,60,61
 9 479 9 479 7.5 497 c 128,-1,62
 6 515 6 515 6 534 c 0,63,64
 6 597 6 597 26.5 635 c 128,-1,65
 47 673 47 673 86.5 691.5 c 128,-1,66
 126 710 126 710 185 710 c 2,22,-1
EndSplineSet
EndChar

StartChar: Dhook
Encoding: 394 394 236
Width: 771
GlyphClass: 2
Flags: W
AnchorPoint: "Anchor-1" 386 0 basechar 0
AnchorPoint: "Anchor-0" 362 741 basechar 0
LayerCount: 2
Fore
SplineSet
185 710 m 2,0,-1
 392 710 l 2,1,2
 468 710 468 710 529 689 c 128,-1,3
 590 668 590 668 632 625 c 128,-1,4
 674 582 674 582 696 515.5 c 128,-1,5
 718 449 718 449 718 359 c 256,6,7
 718 269 718 269 696 201.5 c 128,-1,8
 674 134 674 134 632 89.5 c 128,-1,9
 590 45 590 45 529 22.5 c 128,-1,10
 468 0 468 0 392 0 c 2,11,-1
 132 0 l 1,12,-1
 132 72 l 1,13,-1
 142 72 l 2,14,15
 166 72 166 72 185 79 c 128,-1,16
 204 86 204 86 204 108 c 2,17,-1
 204 639 l 1,18,-1
 187 639 l 2,19,20
 157 639 157 639 137.5 631.5 c 128,-1,21
 118 624 118 624 108 602.5 c 128,-1,22
 98 581 98 581 98 540 c 0,23,24
 98 518 98 518 100.5 500 c 128,-1,25
 103 482 103 482 107 468 c 1,26,-1
 11 468 l 1,27,28
 9 479 9 479 7.5 497 c 128,-1,29
 6 515 6 515 6 534 c 0,30,31
 6 597 6 597 26.5 635.5 c 128,-1,32
 47 674 47 674 86.5 692 c 128,-1,33
 126 710 126 710 185 710 c 2,0,-1
389 639 m 2,34,-1
 302 639 l 1,35,-1
 302 71 l 1,36,-1
 389 71 l 2,37,38
 446 71 446 71 488.5 88.5 c 128,-1,39
 531 106 531 106 559 141.5 c 128,-1,40
 587 177 587 177 600.5 231.5 c 128,-1,41
 614 286 614 286 614 359 c 0,42,43
 614 433 614 433 600.5 486 c 128,-1,44
 587 539 587 539 559 573 c 128,-1,45
 531 607 531 607 488.5 623 c 128,-1,46
 446 639 446 639 389 639 c 2,34,-1
EndSplineSet
EndChar

StartChar: Schwa
Encoding: 399 399 237
Width: 648
GlyphClass: 1
Flags: W
LayerCount: 2
Fore
SplineSet
311 748 m 0,0,1
 398 748 398 748 462 706 c 128,-1,2
 526 664 526 664 561 580 c 128,-1,3
 596 496 596 496 596 371 c 0,4,5
 596 278 596 278 576.5 205 c 128,-1,6
 557 132 557 132 520.5 81 c 128,-1,7
 484 30 484 30 433 3.5 c 128,-1,8
 382 -23 382 -23 318 -23 c 0,9,10
 224 -23 224 -23 166.5 24 c 128,-1,11
 109 71 109 71 82.5 164.5 c 128,-1,12
 56 258 56 258 54 397 c 1,13,-1
 535 397 l 1,14,-1
 535 322 l 1,15,-1
 137 322 l 1,16,-1
 157 343 l 1,17,18
 161 263 161 263 171 207 c 128,-1,19
 181 151 181 151 200.5 116 c 128,-1,20
 220 81 220 81 249 65 c 128,-1,21
 278 49 278 49 319 49 c 256,22,23
 360 49 360 49 392 67 c 128,-1,24
 424 85 424 85 446 123.5 c 128,-1,25
 468 162 468 162 479.5 223 c 128,-1,26
 491 284 491 284 491 370 c 0,27,28
 491 459 491 459 478 518.5 c 128,-1,29
 465 578 465 578 441 612.5 c 128,-1,30
 417 647 417 647 384 661.5 c 128,-1,31
 351 676 351 676 310 676 c 0,32,33
 262 676 262 676 228 663 c 128,-1,34
 194 650 194 650 167.5 621.5 c 128,-1,35
 141 593 141 593 114 546 c 1,36,-1
 52 588 l 1,37,38
 79 637 79 637 116 673 c 128,-1,39
 153 709 153 709 201.5 728.5 c 128,-1,40
 250 748 250 748 311 748 c 0,0,1
EndSplineSet
EndChar

StartChar: Khook
Encoding: 408 408 238
Width: 688
GlyphClass: 2
Flags: W
AnchorPoint: "Anchor-1" 351 0 basechar 0
AnchorPoint: "Anchor-0" 392 741 basechar 0
LayerCount: 2
Fore
SplineSet
52 0 m 1,0,-1
 52 72 l 1,1,-1
 61 72 l 2,2,3
 86 72 86 72 105 79 c 128,-1,4
 124 86 124 86 124 109 c 2,5,-1
 124 601 l 2,6,7
 124 624 124 624 105 631 c 128,-1,8
 86 638 86 638 61 638 c 2,9,-1
 52 638 l 1,10,-1
 52 710 l 1,11,-1
 298 710 l 1,12,-1
 298 638 l 1,13,-1
 290 638 l 2,14,15
 280 638 280 638 267.5 637.5 c 128,-1,16
 255 637 255 637 245 635.5 c 128,-1,17
 235 634 235 634 228.5 632.5 c 128,-1,18
 222 631 222 631 222 628 c 2,19,-1
 222 82 l 2,20,21
 222 79 222 79 228 77.5 c 128,-1,22
 234 76 234 76 244.5 74.5 c 128,-1,23
 255 73 255 73 267 72.5 c 128,-1,24
 279 72 279 72 289 72 c 2,25,-1
 296 72 l 1,26,-1
 296 0 l 1,27,-1
 52 0 l 1,0,-1
608 719 m 0,28,29
 640 719 640 719 659.5 705 c 128,-1,30
 679 691 679 691 687.5 665 c 128,-1,31
 696 639 696 639 696 602 c 0,32,33
 696 562 696 562 691 525 c 128,-1,34
 686 488 686 488 678 468 c 1,35,-1
 589 468 l 1,36,37
 595 480 595 480 600 501.5 c 128,-1,38
 605 523 605 523 608 549 c 128,-1,39
 611 575 611 575 611 597 c 0,40,41
 611 616 611 616 605.5 624.5 c 128,-1,42
 600 633 600 633 587 633 c 0,43,44
 579 633 579 633 568.5 625 c 128,-1,45
 558 617 558 617 537.5 593.5 c 128,-1,46
 517 570 517 570 477 522 c 2,47,-1
 338 354 l 1,48,-1
 342 396 l 1,49,-1
 584 95 l 2,50,51
 592 85 592 85 601 80 c 128,-1,52
 610 75 610 75 620.5 73.5 c 128,-1,53
 631 72 631 72 642 72 c 2,54,-1
 663 72 l 1,55,-1
 663 0 l 1,56,-1
 400 0 l 1,57,-1
 400 72 l 1,58,-1
 407 72 l 2,59,60
 425 72 425 72 440 73 c 128,-1,61
 455 74 455 74 465.5 76.5 c 128,-1,62
 476 79 476 79 476 82 c 2,63,-1
 263 348 l 1,64,-1
 263 371 l 1,65,-1
 429 572 l 2,66,67
 468 619 468 619 493.5 647.5 c 128,-1,68
 519 676 519 676 537.5 692 c 128,-1,69
 556 708 556 708 573 713.5 c 128,-1,70
 590 719 590 719 608 719 c 0,28,29
EndSplineSet
EndChar

StartChar: Yhook
Encoding: 435 435 239
Width: 657
GlyphClass: 2
Flags: W
AnchorPoint: "Anchor-1" 309 0 basechar 0
AnchorPoint: "Anchor-0" 335 741 basechar 0
LayerCount: 2
Fore
SplineSet
434 572 m 2,0,1
 463 631 463 631 485 662.5 c 128,-1,2
 507 694 507 694 529 706.5 c 128,-1,3
 551 719 551 719 580 719 c 0,4,5
 615 719 615 719 635.5 703.5 c 128,-1,6
 656 688 656 688 665.5 660 c 128,-1,7
 675 632 675 632 675 594 c 0,8,9
 675 558 675 558 669.5 522 c 128,-1,10
 664 486 664 486 657 468 c 1,11,-1
 568 468 l 1,12,13
 574 480 574 480 579 499.5 c 128,-1,14
 584 519 584 519 587 543.5 c 128,-1,15
 590 568 590 568 590 593 c 0,16,17
 590 613 590 613 584.5 622.5 c 128,-1,18
 579 632 579 632 567 632 c 0,19,20
 557 632 557 632 548.5 624 c 128,-1,21
 540 616 540 616 527.5 594 c 128,-1,22
 515 572 515 572 494 531 c 2,23,-1
 353 261 l 1,24,-1
 360 296 l 1,25,-1
 360 108 l 2,26,27
 360 86 360 86 380 79 c 128,-1,28
 400 72 400 72 428 72 c 2,29,-1
 446 72 l 1,30,-1
 446 0 l 1,31,-1
 175 0 l 1,32,-1
 175 72 l 1,33,-1
 192 72 l 2,34,35
 221 72 221 72 241 79 c 128,-1,36
 261 86 261 86 261 108 c 2,37,-1
 261 296 l 1,38,-1
 267 262 l 1,39,-1
 89 593 l 2,40,41
 80 611 80 611 71.5 621 c 128,-1,42
 63 631 63 631 54 634.5 c 128,-1,43
 45 638 45 638 33 638 c 2,44,-1
 23 638 l 1,45,-1
 23 710 l 1,46,-1
 247 710 l 1,47,-1
 247 638 l 1,48,-1
 234 638 l 2,49,50
 219 638 219 638 205.5 636.5 c 128,-1,51
 192 635 192 635 183 633 c 128,-1,52
 174 631 174 631 174 627 c 2,53,-1
 348 299 l 1,54,-1
 297 299 l 1,55,-1
 434 572 l 2,0,1
EndSplineSet
EndChar

StartChar: Germandbls
Encoding: 7838 7838 240
Width: 762
GlyphClass: 1
Flags: W
LayerCount: 2
Fore
SplineSet
525 56 m 0,0,1
 561 56 561 56 579.5 69 c 128,-1,2
 598 82 598 82 605.5 110 c 128,-1,3
 613 138 613 138 613 184 c 256,4,5
 613 230 613 230 603 258 c 128,-1,6
 593 286 593 286 571 303.5 c 128,-1,7
 549 321 549 321 513.5 335.5 c 128,-1,8
 478 350 478 350 426 367 c 1,9,-1
 426 439 l 1,10,-1
 558 679 l 1,11,-1
 583 635 l 1,12,-1
 349 635 l 2,13,14
 312 635 312 635 286.5 624.5 c 128,-1,15
 261 614 261 614 245.5 593 c 128,-1,16
 230 572 230 572 223.5 541.5 c 128,-1,17
 217 511 217 511 217 471 c 2,18,-1
 217 0 l 1,19,-1
 42 0 l 1,20,-1
 42 72 l 1,21,-1
 52 72 l 2,22,23
 82 72 82 72 100.5 79 c 128,-1,24
 119 86 119 86 119 108 c 2,25,-1
 119 464 l 2,26,27
 119 524 119 524 130.5 569.5 c 128,-1,28
 142 615 142 615 168 646.5 c 128,-1,29
 194 678 194 678 236.5 694 c 128,-1,30
 279 710 279 710 340 710 c 2,31,-1
 635 710 l 1,32,-1
 635 641 l 1,33,-1
 504 398 l 1,34,-1
 473 420 l 1,35,36
 526 403 526 403 570 386 c 128,-1,37
 614 369 614 369 645 345 c 128,-1,38
 676 321 676 321 693.5 283 c 128,-1,39
 711 245 711 245 711 187 c 0,40,41
 711 125 711 125 692.5 80 c 128,-1,42
 674 35 674 35 635 10.5 c 128,-1,43
 596 -14 596 -14 536 -14 c 0,44,45
 481 -14 481 -14 445.5 8 c 128,-1,46
 410 30 410 30 392 75 c 128,-1,47
 374 120 374 120 370 190 c 1,48,-1
 386 154 l 1,49,-1
 375 0 l 1,50,-1
 308 0 l 1,51,-1
 308 231 l 1,52,-1
 383 231 l 1,53,54
 393 191 393 191 403.5 159 c 128,-1,55
 414 127 414 127 429 104 c 128,-1,56
 444 81 444 81 467 68.5 c 128,-1,57
 490 56 490 56 525 56 c 0,0,1
EndSplineSet
EndChar

StartChar: Delta
Encoding: 916 916 241
Width: 662
GlyphClass: 1
Flags: W
LayerCount: 2
Fore
SplineSet
46 0 m 1,0,-1
 46 85 l 1,1,-1
 279 710 l 1,2,-1
 383 710 l 1,3,-1
 615 85 l 1,4,-1
 615 0 l 1,5,-1
 46 0 l 1,0,-1
529 55 m 1,6,-1
 294 700 l 1,7,-1
 350 695 l 1,8,-1
 113 50 l 1,9,-1
 73 87 l 1,10,-1
 563 87 l 1,11,-1
 529 55 l 1,6,-1
EndSplineSet
EndChar

StartChar: Omega
Encoding: 937 937 242
Width: 760
GlyphClass: 1
Flags: W
LayerCount: 2
Fore
SplineSet
380 735 m 256,0,1
 315 735 315 735 262 718.5 c 128,-1,2
 209 702 209 702 171.5 669 c 128,-1,3
 134 636 134 636 114 586 c 128,-1,4
 94 536 94 536 94 469 c 0,5,6
 94 431 94 431 100 395.5 c 128,-1,7
 106 360 106 360 120.5 322.5 c 128,-1,8
 135 285 135 285 158.5 243.5 c 128,-1,9
 182 202 182 202 216.5 155 c 128,-1,10
 251 108 251 108 298 53 c 1,11,-1
 305 70 l 1,12,-1
 216 70 l 2,13,14
 181 70 181 70 162 74.5 c 128,-1,15
 143 79 143 79 135 89 c 128,-1,16
 127 99 127 99 125 117 c 2,17,-1
 113 214 l 1,18,-1
 44 214 l 1,19,-1
 44 0 l 1,20,-1
 340 0 l 1,21,-1
 340 115 l 1,22,23
 303 163 303 163 276 205 c 128,-1,24
 249 247 249 247 231.5 287 c 128,-1,25
 214 327 214 327 206 369.5 c 128,-1,26
 198 412 198 412 198 459 c 0,27,28
 198 532 198 532 218 577 c 128,-1,29
 238 622 238 622 278.5 642.5 c 128,-1,30
 319 663 319 663 380 663 c 256,31,32
 441 663 441 663 480.5 642.5 c 128,-1,33
 520 622 520 622 540.5 577 c 128,-1,34
 561 532 561 532 561 459 c 0,35,36
 561 412 561 412 553 369.5 c 128,-1,37
 545 327 545 327 528 287 c 128,-1,38
 511 247 511 247 484.5 205 c 128,-1,39
 458 163 458 163 420 115 c 1,40,-1
 420 0 l 1,41,-1
 716 0 l 1,42,-1
 716 214 l 1,43,-1
 647 214 l 1,44,-1
 635 117 l 2,45,46
 633 99 633 99 624.5 88.5 c 128,-1,47
 616 78 616 78 596.5 74 c 128,-1,48
 577 70 577 70 541 70 c 2,49,-1
 454 70 l 1,50,-1
 462 53 l 1,51,52
 509 108 509 108 543.5 155 c 128,-1,53
 578 202 578 202 601.5 243.5 c 128,-1,54
 625 285 625 285 639 322.5 c 128,-1,55
 653 360 653 360 659 395.5 c 128,-1,56
 665 431 665 431 665 469 c 0,57,58
 665 536 665 536 645 586 c 128,-1,59
 625 636 625 636 587.5 669 c 128,-1,60
 550 702 550 702 497.5 718.5 c 128,-1,61
 445 735 445 735 380 735 c 256,0,1
EndSplineSet
EndChar

StartChar: Djecyr
Encoding: 1026 1026 244
Width: 782
GlyphClass: 2
Flags: W
AnchorPoint: "Anchor-0" 305 741 basechar 0
LayerCount: 2
Fore
SplineSet
732 199 m 0,0,1
 732 146 732 146 717.5 104.5 c 128,-1,2
 703 63 703 63 675.5 34 c 128,-1,3
 648 5 648 5 609 -9 c 128,-1,4
 570 -23 570 -23 520 -23 c 1,5,-1
 520 48 l 1,6,7
 555 48 555 48 579.5 63.5 c 128,-1,8
 604 79 604 79 617 112.5 c 128,-1,9
 630 146 630 146 630 199 c 0,10,11
 630 271 630 271 594 309 c 128,-1,12
 558 347 558 347 493 347 c 0,13,14
 448 347 448 347 406.5 337 c 128,-1,15
 365 327 365 327 326 305 c 1,16,-1
 326 379 l 1,17,18
 365 399 365 399 406.5 409 c 128,-1,19
 448 419 448 419 497 419 c 0,20,21
 578 419 578 419 629.5 391.5 c 128,-1,22
 681 364 681 364 706.5 315 c 128,-1,23
 732 266 732 266 732 199 c 0,0,1
170 0 m 1,24,-1
 170 72 l 1,25,-1
 187 72 l 2,26,27
 215 72 215 72 236 79 c 128,-1,28
 257 86 257 86 257 108 c 2,29,-1
 257 639 l 1,30,-1
 217 639 l 2,31,32
 180 639 180 639 161.5 633 c 128,-1,33
 143 627 143 627 136 614.5 c 128,-1,34
 129 602 129 602 126 580 c 2,35,-1
 115 475 l 1,36,-1
 45 475 l 1,37,-1
 45 710 l 1,38,-1
 595 710 l 1,39,-1
 595 491 l 1,40,-1
 526 491 l 1,41,-1
 514 580 l 2,42,43
 512 602 512 602 505 614.5 c 128,-1,44
 498 627 498 627 479 633 c 128,-1,45
 460 639 460 639 423 639 c 2,46,-1
 355 639 l 1,47,-1
 355 82 l 2,48,49
 355 79 355 79 366 76.5 c 128,-1,50
 377 74 377 74 393.5 73 c 128,-1,51
 410 72 410 72 424 72 c 2,52,-1
 439 72 l 1,53,-1
 439 0 l 1,54,-1
 170 0 l 1,24,-1
EndSplineSet
EndChar

StartChar: Eukrcyr
Encoding: 1028 1028 245
Width: 664
GlyphClass: 2
Flags: W
AnchorPoint: "Anchor-1" 346 0 basechar 0
AnchorPoint: "Anchor-0" 346 741 basechar 0
LayerCount: 2
Fore
SplineSet
132 398 m 1,0,1
 158 399 158 399 183 400 c 128,-1,2
 208 401 208 401 233 402.5 c 128,-1,3
 258 404 258 404 283 405 c 128,-1,4
 308 406 308 406 333 407.5 c 128,-1,5
 358 409 358 409 383 410 c 128,-1,6
 408 411 408 411 433 412 c 1,7,-1
 433 319 l 1,8,9
 408 320 408 320 383 321 c 128,-1,10
 358 322 358 322 333 323 c 128,-1,11
 308 324 308 324 283 325.5 c 128,-1,12
 258 327 258 327 233 328 c 128,-1,13
 208 329 208 329 183 330 c 128,-1,14
 158 331 158 331 132 332 c 1,15,-1
 132 398 l 1,0,1
340 662 m 0,16,17
 293 662 293 662 258.5 643.5 c 128,-1,18
 224 625 224 625 201.5 588 c 128,-1,19
 179 551 179 551 168.5 493 c 128,-1,20
 158 435 158 435 158 357 c 0,21,22
 158 278 158 278 169 219.5 c 128,-1,23
 180 161 180 161 203 123 c 128,-1,24
 226 85 226 85 262.5 66.5 c 128,-1,25
 299 48 299 48 349 48 c 0,26,27
 408 48 408 48 446 74 c 128,-1,28
 484 100 484 100 507 141.5 c 128,-1,29
 530 183 530 183 544 227 c 1,30,-1
 611 199 l 1,31,32
 591 132 591 132 555 82 c 128,-1,33
 519 32 519 32 466.5 4.5 c 128,-1,34
 414 -23 414 -23 344 -23 c 0,35,36
 277 -23 277 -23 223.5 1 c 128,-1,37
 170 25 170 25 131.5 73 c 128,-1,38
 93 121 93 121 72.5 192 c 128,-1,39
 52 263 52 263 52 357 c 0,40,41
 52 450 52 450 73 520.5 c 128,-1,42
 94 591 94 591 132 638.5 c 128,-1,43
 170 686 170 686 222 709.5 c 128,-1,44
 274 733 274 733 336 733 c 0,45,46
 394 733 394 733 436.5 707.5 c 128,-1,47
 479 682 479 682 505 631 c 128,-1,48
 531 580 531 580 537 504 c 1,49,-1
 516 536 l 1,50,-1
 529 720 l 1,51,-1
 601 720 l 1,52,-1
 601 470 l 1,53,-1
 522 470 l 1,54,55
 505 531 505 531 480.5 574 c 128,-1,56
 456 617 456 617 421 639.5 c 128,-1,57
 386 662 386 662 340 662 c 0,16,17
EndSplineSet
Substitution2: "'ss01' Style Set 1 lookup 61 subtable" Ieukran.alt1
EndChar

StartChar: Yukrcyr
Encoding: 1031 1031 248
Width: 364
GlyphClass: 2
Flags: W
AnchorPoint: "Anchor-1" 182 0 basechar 0
AnchorPoint: "Anchor-0" 182 914 basechar 0
LayerCount: 2
Fore
SplineSet
158 858 m 0,0,1
 158 822 158 822 139.5 806.5 c 128,-1,2
 121 791 121 791 90 791 c 0,3,4
 60 791 60 791 42 806.5 c 128,-1,5
 24 822 24 822 24 858 c 0,6,7
 24 893 24 893 42 908.5 c 128,-1,8
 60 924 60 924 90 924 c 0,9,10
 121 924 121 924 139.5 908.5 c 128,-1,11
 158 893 158 893 158 858 c 0,0,1
340 858 m 0,12,13
 340 822 340 822 321.5 806.5 c 128,-1,14
 303 791 303 791 273 791 c 256,15,16
 243 791 243 791 224.5 806.5 c 128,-1,17
 206 822 206 822 206 858 c 0,18,19
 206 893 206 893 224.5 908.5 c 128,-1,20
 243 924 243 924 273 924 c 256,21,22
 303 924 303 924 321.5 908.5 c 128,-1,23
 340 893 340 893 340 858 c 0,12,13
133 109 m 2,24,-1
 133 601 l 2,25,26
 133 624 133 624 113.5 631 c 128,-1,27
 94 638 94 638 66 638 c 2,28,-1
 50 638 l 1,29,-1
 50 710 l 1,30,-1
 314 710 l 1,31,-1
 314 638 l 1,32,-1
 297 638 l 2,33,34
 270 638 270 638 250.5 631 c 128,-1,35
 231 624 231 624 231 601 c 2,36,-1
 231 109 l 2,37,38
 231 86 231 86 250.5 79 c 128,-1,39
 270 72 270 72 297 72 c 2,40,-1
 314 72 l 1,41,-1
 314 0 l 1,42,-1
 50 0 l 1,43,-1
 50 72 l 1,44,-1
 66 72 l 2,45,46
 94 72 94 72 113.5 79 c 128,-1,47
 133 86 133 86 133 109 c 2,24,-1
EndSplineSet
EndChar

StartChar: Ljecyr
Encoding: 1033 1033 250
Width: 941
GlyphClass: 2
Flags: W
AnchorPoint: "Anchor-0" 376 741 basechar 0
LayerCount: 2
Fore
SplineSet
221 710 m 1,0,-1
 511 710 l 1,1,-1
 511 636 l 1,2,-1
 221 636 l 1,3,-1
 221 710 l 1,0,-1
158 274 m 2,4,-1
 180 602 l 2,5,6
 182 624 182 624 164.5 631 c 128,-1,7
 147 638 147 638 122 638 c 2,8,-1
 112 638 l 1,9,-1
 112 710 l 1,10,-1
 269 710 l 1,11,-1
 240 269 l 2,12,13
 233 167 233 167 211.5 104.5 c 128,-1,14
 190 42 190 42 154.5 13.5 c 128,-1,15
 119 -15 119 -15 69 -15 c 0,16,17
 52 -15 52 -15 37.5 -11 c 128,-1,18
 23 -7 23 -7 11 0 c 1,19,-1
 11 91 l 1,20,21
 22 85 22 85 35.5 80.5 c 128,-1,22
 49 76 49 76 64 76 c 0,23,24
 91 76 91 76 110 96 c 128,-1,25
 129 116 129 116 141.5 159 c 128,-1,26
 154 202 154 202 158 274 c 2,4,-1
672 0 m 2,27,-1
 389 0 l 1,28,-1
 389 72 l 1,29,-1
 396 72 l 2,30,31
 412 72 412 72 427.5 73 c 128,-1,32
 443 74 443 74 453 76.5 c 128,-1,33
 463 79 463 79 463 82 c 2,34,-1
 463 710 l 1,35,-1
 639 710 l 1,36,-1
 639 638 l 1,37,-1
 623 638 l 2,38,39
 599 638 599 638 580.5 631 c 128,-1,40
 562 624 562 624 562 602 c 2,41,-1
 562 71 l 1,42,-1
 668 71 l 2,43,44
 710 71 710 71 738 87.5 c 128,-1,45
 766 104 766 104 780 136 c 128,-1,46
 794 168 794 168 794 215 c 0,47,48
 794 265 794 265 780 297.5 c 128,-1,49
 766 330 766 330 738 346 c 128,-1,50
 710 362 710 362 668 362 c 2,51,-1
 514 362 l 1,52,-1
 514 433 l 1,53,-1
 672 433 l 2,54,55
 739 433 739 433 789.5 409.5 c 128,-1,56
 840 386 840 386 868 337.5 c 128,-1,57
 896 289 896 289 896 215 c 0,58,59
 896 147 896 147 867 99 c 128,-1,60
 838 51 838 51 787 25.5 c 128,-1,61
 736 0 736 0 672 0 c 2,27,-1
EndSplineSet
EndChar

StartChar: Njecyr
Encoding: 1034 1034 251
Width: 974
GlyphClass: 2
Flags: W
AnchorPoint: "Anchor-0" 360 741 basechar 0
LayerCount: 2
Fore
SplineSet
196 425 m 1,0,-1
 522 425 l 1,1,-1
 522 354 l 1,2,-1
 196 354 l 1,3,-1
 196 425 l 1,0,-1
52 0 m 1,4,-1
 52 72 l 1,5,-1
 61 72 l 2,6,7
 86 72 86 72 105 79 c 128,-1,8
 124 86 124 86 124 109 c 2,9,-1
 124 601 l 2,10,11
 124 624 124 624 105 631 c 128,-1,12
 86 638 86 638 61 638 c 2,13,-1
 52 638 l 1,14,-1
 52 710 l 1,15,-1
 301 710 l 1,16,-1
 301 638 l 1,17,-1
 293 638 l 2,18,19
 278 638 278 638 261 637 c 128,-1,20
 244 636 244 636 233 634 c 128,-1,21
 222 632 222 632 222 628 c 2,22,-1
 222 82 l 2,23,24
 222 79 222 79 233 76.5 c 128,-1,25
 244 74 244 74 261 73 c 128,-1,26
 278 72 278 72 293 72 c 2,27,-1
 301 72 l 1,28,-1
 301 0 l 1,29,-1
 52 0 l 1,4,-1
421 0 m 1,30,-1
 421 72 l 1,31,-1
 429 72 l 2,32,33
 444 72 444 72 459 73 c 128,-1,34
 474 74 474 74 485 76.5 c 128,-1,35
 496 79 496 79 496 82 c 2,36,-1
 496 628 l 2,37,38
 496 632 496 632 485 634 c 128,-1,39
 474 636 474 636 459 637 c 128,-1,40
 444 638 444 638 429 638 c 2,41,-1
 421 638 l 1,42,-1
 421 710 l 1,43,-1
 674 710 l 1,44,-1
 674 638 l 1,45,-1
 660 638 l 2,46,47
 643 638 643 638 628 635 c 128,-1,48
 613 632 613 632 603.5 624 c 128,-1,49
 594 616 594 616 594 601 c 2,50,-1
 594 71 l 1,51,-1
 701 71 l 2,52,53
 740 71 740 71 768 86.5 c 128,-1,54
 796 102 796 102 811 133.5 c 128,-1,55
 826 165 826 165 826 210 c 0,56,57
 826 258 826 258 811 290 c 128,-1,58
 796 322 796 322 768 338 c 128,-1,59
 740 354 740 354 701 354 c 2,60,-1
 549 354 l 1,61,-1
 549 425 l 1,62,-1
 705 425 l 2,63,64
 772 425 772 425 822 400.5 c 128,-1,65
 872 376 872 376 900.5 328 c 128,-1,66
 929 280 929 280 929 210 c 0,67,68
 929 144 929 144 899.5 97 c 128,-1,69
 870 50 870 50 819.5 25 c 128,-1,70
 769 0 769 0 705 0 c 2,71,-1
 421 0 l 1,30,-1
EndSplineSet
EndChar

StartChar: Tshecyr
Encoding: 1035 1035 252
Width: 823
GlyphClass: 2
Flags: W
AnchorPoint: "Anchor-0" 296 741 basechar 0
LayerCount: 2
Fore
SplineSet
499 419 m 0,0,1
 580 419 580 419 628 398.5 c 128,-1,2
 676 378 676 378 697.5 334.5 c 128,-1,3
 719 291 719 291 719 224 c 2,4,-1
 719 108 l 2,5,6
 719 86 719 86 737 79 c 128,-1,7
 755 72 755 72 782 72 c 2,8,-1
 791 72 l 1,9,-1
 791 0 l 1,10,-1
 621 0 l 1,11,-1
 621 219 l 2,12,13
 621 266 621 266 605.5 293.5 c 128,-1,14
 590 321 590 321 562 333 c 128,-1,15
 534 345 534 345 495 345 c 0,16,17
 453 345 453 345 408.5 336 c 128,-1,18
 364 327 364 327 326 305 c 1,19,-1
 326 379 l 1,20,21
 366 399 366 399 410 409 c 128,-1,22
 454 419 454 419 499 419 c 0,0,1
170 0 m 1,23,-1
 170 72 l 1,24,-1
 187 72 l 2,25,26
 215 72 215 72 236 79 c 128,-1,27
 257 86 257 86 257 108 c 2,28,-1
 257 639 l 1,29,-1
 217 639 l 2,30,31
 180 639 180 639 161.5 633 c 128,-1,32
 143 627 143 627 136 614.5 c 128,-1,33
 129 602 129 602 126 580 c 2,34,-1
 115 475 l 1,35,-1
 45 475 l 1,36,-1
 45 710 l 1,37,-1
 595 710 l 1,38,-1
 595 491 l 1,39,-1
 526 491 l 1,40,-1
 514 580 l 2,41,42
 512 602 512 602 505 615 c 128,-1,43
 498 628 498 628 479 633.5 c 128,-1,44
 460 639 460 639 423 639 c 2,45,-1
 355 639 l 1,46,-1
 355 82 l 2,47,48
 355 79 355 79 366.5 76.5 c 128,-1,49
 378 74 378 74 394.5 73 c 128,-1,50
 411 72 411 72 426 72 c 2,51,-1
 443 72 l 1,52,-1
 443 0 l 1,53,-1
 170 0 l 1,23,-1
EndSplineSet
EndChar

StartChar: Dzhecyr
Encoding: 1039 1039 253
Width: 742
GlyphClass: 2
Flags: W
AnchorPoint: "Anchor-0" 371 741 basechar 0
LayerCount: 2
Fore
SplineSet
52 710 m 1,0,-1
 300 710 l 1,1,-1
 300 638 l 1,2,-1
 292 638 l 2,3,4
 277 638 277 638 261 637 c 128,-1,5
 245 636 245 636 233.5 634 c 128,-1,6
 222 632 222 632 222 628 c 2,7,-1
 222 0 l 1,8,-1
 52 0 l 1,9,-1
 52 72 l 1,10,-1
 61 72 l 2,11,12
 86 72 86 72 105 79 c 128,-1,13
 124 86 124 86 124 109 c 2,14,-1
 124 601 l 2,15,16
 124 624 124 624 105 631 c 128,-1,17
 86 638 86 638 61 638 c 2,18,-1
 52 638 l 1,19,-1
 52 710 l 1,0,-1
441 710 m 1,20,-1
 690 710 l 1,21,-1
 690 638 l 1,22,-1
 681 638 l 2,23,24
 657 638 657 638 638 631 c 128,-1,25
 619 624 619 624 619 601 c 2,26,-1
 619 109 l 2,27,28
 619 86 619 86 638 79 c 128,-1,29
 657 72 657 72 681 72 c 2,30,-1
 690 72 l 1,31,-1
 690 0 l 1,32,-1
 520 0 l 1,33,-1
 520 628 l 2,34,35
 520 632 520 632 509 634 c 128,-1,36
 498 636 498 636 481.5 637 c 128,-1,37
 465 638 465 638 449 638 c 2,38,-1
 441 638 l 1,39,-1
 441 710 l 1,20,-1
172 0 m 1,40,-1
 172 74 l 1,41,-1
 570 74 l 1,42,-1
 570 0 l 1,43,-1
 530 0 l 2,44,45
 489 0 489 0 465 -5.5 c 128,-1,46
 441 -11 441 -11 430 -22.5 c 128,-1,47
 419 -34 419 -34 417 -55 c 2,48,-1
 406 -181 l 1,49,-1
 337 -181 l 1,50,-1
 325 -55 l 2,51,52
 323 -35 323 -35 312 -23 c 128,-1,53
 301 -11 301 -11 277 -5.5 c 128,-1,54
 253 0 253 0 212 0 c 2,55,-1
 172 0 l 1,40,-1
EndSplineSet
EndChar

StartChar: Becyr
Encoding: 1041 1041 257
Width: 610
GlyphClass: 2
Flags: W
AnchorPoint: "Anchor-0" 311 741 basechar 0
LayerCount: 2
Fore
SplineSet
52 710 m 1,0,-1
 518 710 l 1,1,-1
 518 510 l 1,2,-1
 448 510 l 1,3,-1
 437 594 l 2,4,5
 435 612 435 612 423.5 622 c 128,-1,6
 412 632 412 632 390 635.5 c 128,-1,7
 368 639 368 639 332 639 c 2,8,-1
 223 639 l 1,9,-1
 223 71 l 1,10,-1
 332 71 l 2,11,12
 374 71 374 71 402 86.5 c 128,-1,13
 430 102 430 102 444 133 c 128,-1,14
 458 164 458 164 458 210 c 0,15,16
 458 257 458 257 444 288.5 c 128,-1,17
 430 320 430 320 402 336 c 128,-1,18
 374 352 374 352 332 352 c 2,19,-1
 166 352 l 1,20,-1
 166 423 l 1,21,-1
 336 423 l 2,22,23
 403 423 403 423 453.5 400 c 128,-1,24
 504 377 504 377 532 330 c 128,-1,25
 560 283 560 283 560 210 c 0,26,27
 560 143 560 143 531 96 c 128,-1,28
 502 49 502 49 451 24.5 c 128,-1,29
 400 0 400 0 336 0 c 2,30,-1
 52 0 l 1,31,-1
 52 72 l 1,32,-1
 61 72 l 2,33,34
 86 72 86 72 105 79 c 128,-1,35
 124 86 124 86 124 109 c 2,36,-1
 124 603 l 2,37,38
 124 623 124 623 105 630.5 c 128,-1,39
 86 638 86 638 61 638 c 2,40,-1
 52 638 l 1,41,-1
 52 710 l 1,0,-1
EndSplineSet
EndChar

StartChar: Gecyr
Encoding: 1043 1043 259
Width: 576
GlyphClass: 2
Flags: W
AnchorPoint: "Anchor-0" 294 741 basechar 0
LayerCount: 2
Fore
SplineSet
222 639 m 1,0,-1
 222 108 l 2,1,2
 222 94 222 94 232.5 86 c 128,-1,3
 243 78 243 78 261 75 c 128,-1,4
 279 72 279 72 301 72 c 2,5,-1
 318 72 l 1,6,-1
 318 0 l 1,7,-1
 52 0 l 1,8,-1
 52 72 l 1,9,-1
 61 72 l 2,10,11
 86 72 86 72 105 79 c 128,-1,12
 124 86 124 86 124 109 c 2,13,-1
 124 601 l 2,14,15
 124 624 124 624 105 631 c 128,-1,16
 86 638 86 638 61 638 c 2,17,-1
 52 638 l 1,18,-1
 52 710 l 1,19,-1
 531 710 l 1,20,-1
 531 475 l 1,21,-1
 461 475 l 1,22,-1
 450 580 l 2,23,24
 448 604 448 604 437 616.5 c 128,-1,25
 426 629 426 629 404 634 c 128,-1,26
 382 639 382 639 347 639 c 2,27,-1
 222 639 l 1,0,-1
EndSplineSet
EndChar

StartChar: Decyr
Encoding: 1044 1044 261
Width: 728
GlyphClass: 2
Flags: W
AnchorPoint: "Anchor-0" 393 741 basechar 0
LayerCount: 2
Fore
SplineSet
223 710 m 1,0,-1
 542 710 l 1,1,-1
 542 636 l 1,2,-1
 223 636 l 1,3,-1
 223 710 l 1,0,-1
605 2 m 1,4,-1
 507 2 l 1,5,-1
 507 710 l 1,6,-1
 676 710 l 1,7,-1
 676 638 l 1,8,-1
 667 638 l 2,9,10
 640 638 640 638 622.5 631 c 128,-1,11
 605 624 605 624 605 602 c 2,12,-1
 605 2 l 1,4,-1
605 -55 m 2,13,14
 604 -35 604 -35 592.5 -23 c 128,-1,15
 581 -11 581 -11 557 -5.5 c 128,-1,16
 533 0 533 0 492 0 c 2,17,-1
 217 0 l 2,18,19
 176 0 176 0 152 -5.5 c 128,-1,20
 128 -11 128 -11 117 -23 c 128,-1,21
 106 -35 106 -35 104 -55 c 2,22,-1
 93 -181 l 1,23,-1
 23 -181 l 1,24,-1
 23 74 l 1,25,-1
 686 74 l 1,26,-1
 686 -181 l 1,27,-1
 617 -181 l 1,28,-1
 605 -55 l 2,13,14
158 30 m 1,29,-1
 65 30 l 1,30,31
 85 57 85 57 100.5 86.5 c 128,-1,32
 116 116 116 116 127.5 153.5 c 128,-1,33
 139 191 139 191 147 243 c 128,-1,34
 155 295 155 295 161 367 c 2,35,-1
 181 602 l 2,36,37
 183 624 183 624 165.5 631 c 128,-1,38
 148 638 148 638 123 638 c 2,39,-1
 114 638 l 1,40,-1
 114 710 l 1,41,-1
 271 710 l 1,42,-1
 243 363 l 2,43,44
 235 270 235 270 224 208.5 c 128,-1,45
 213 147 213 147 196.5 105 c 128,-1,46
 180 63 180 63 158 30 c 1,29,-1
EndSplineSet
Substitution2: "'locl' Localized Forms in Cyrillic lookup 12 subtable" De.bgr
EndChar

StartChar: Zhecyr
Encoding: 1046 1046 266
Width: 986
GlyphClass: 2
Flags: W
AnchorPoint: "Anchor-1" 483 0 basechar 0
AnchorPoint: "Anchor-0" 483 741 basechar 0
LayerCount: 2
Fore
SplineSet
704 0 m 1,0,-1
 704 72 l 1,1,-1
 712 72 l 2,2,3
 729 72 729 72 744.5 73 c 128,-1,4
 760 74 760 74 770 76.5 c 128,-1,5
 780 79 780 79 780 82 c 2,6,-1
 578 348 l 1,7,-1
 578 371 l 1,8,-1
 790 627 l 2,9,10
 790 631 790 631 780.5 633 c 128,-1,11
 771 635 771 635 755.5 636.5 c 128,-1,12
 740 638 740 638 725 638 c 2,13,-1
 717 638 l 1,14,-1
 717 710 l 1,15,-1
 942 710 l 1,16,-1
 942 638 l 1,17,-1
 919 638 l 2,18,19
 909 638 909 638 900 636 c 128,-1,20
 891 634 891 634 882 627.5 c 128,-1,21
 873 621 873 621 865 609 c 2,22,-1
 652 354 l 1,23,-1
 657 396 l 1,24,-1
 886 95 l 2,25,26
 895 85 895 85 904 80 c 128,-1,27
 913 75 913 75 923.5 73.5 c 128,-1,28
 934 72 934 72 945 72 c 2,29,-1
 965 72 l 1,30,-1
 965 0 l 1,31,-1
 704 0 l 1,0,-1
278 0 m 1,32,-1
 20 0 l 1,33,-1
 20 72 l 1,34,-1
 40 72 l 2,35,36
 52 72 52 72 62.5 73.5 c 128,-1,37
 73 75 73 75 82 80 c 128,-1,38
 91 85 91 85 99 95 c 2,39,-1
 329 396 l 1,40,-1
 328 354 l 1,41,-1
 116 609 l 2,42,43
 107 621 107 621 98 627 c 128,-1,44
 89 633 89 633 80.5 635.5 c 128,-1,45
 72 638 72 638 61 638 c 2,46,-1
 38 638 l 1,47,-1
 38 710 l 1,48,-1
 266 710 l 1,49,-1
 266 638 l 1,50,-1
 257 638 l 2,51,52
 242 638 242 638 226.5 636.5 c 128,-1,53
 211 635 211 635 201.5 633 c 128,-1,54
 192 631 192 631 192 627 c 2,55,-1
 404 371 l 1,56,-1
 404 348 l 1,57,-1
 202 82 l 2,58,59
 202 79 202 79 212.5 76.5 c 128,-1,60
 223 74 223 74 238.5 73 c 128,-1,61
 254 72 254 72 271 72 c 2,62,-1
 278 72 l 1,63,-1
 278 0 l 1,32,-1
371 0 m 1,64,-1
 371 72 l 1,65,-1
 378 72 l 2,66,67
 388 72 388 72 399 72.5 c 128,-1,68
 410 73 410 73 420 74.5 c 128,-1,69
 430 76 430 76 436 77.5 c 128,-1,70
 442 79 442 79 442 82 c 2,71,-1
 442 629 l 2,72,73
 442 631 442 631 436 632.5 c 128,-1,74
 430 634 430 634 419.5 635.5 c 128,-1,75
 409 637 409 637 398 637.5 c 128,-1,76
 387 638 387 638 377 638 c 2,77,-1
 369 638 l 1,78,-1
 369 710 l 1,79,-1
 613 710 l 1,80,-1
 613 638 l 1,81,-1
 606 638 l 2,82,83
 596 638 596 638 584 637.5 c 128,-1,84
 572 637 572 637 562.5 635.5 c 128,-1,85
 553 634 553 634 546.5 632.5 c 128,-1,86
 540 631 540 631 540 628 c 2,87,-1
 540 81 l 2,88,89
 540 79 540 79 546 77.5 c 128,-1,90
 552 76 552 76 562 74.5 c 128,-1,91
 572 73 572 73 583 72.5 c 128,-1,92
 594 72 594 72 605 72 c 2,93,-1
 612 72 l 1,94,-1
 612 0 l 1,95,-1
 371 0 l 1,64,-1
EndSplineSet
EndChar

StartChar: Zecyr
Encoding: 1047 1047 269
Width: 632
GlyphClass: 2
Flags: W
AnchorPoint: "Anchor-1" 341 0 basechar 0
AnchorPoint: "Anchor-0" 341 741 basechar 0
LayerCount: 2
Fore
SplineSet
360 -23 m 0,0,1
 292 -23 292 -23 245 1.5 c 128,-1,2
 198 26 198 26 171 75.5 c 128,-1,3
 144 125 144 125 138 200 c 1,4,-1
 160 169 l 1,5,-1
 146 -10 l 1,6,-1
 74 -10 l 1,7,-1
 74 234 l 1,8,-1
 154 234 l 1,9,10
 171 176 171 176 197 134.5 c 128,-1,11
 223 93 223 93 261.5 71 c 128,-1,12
 300 49 300 49 352 49 c 0,13,14
 395 49 395 49 422 65 c 128,-1,15
 449 81 449 81 462 112.5 c 128,-1,16
 475 144 475 144 475 190 c 0,17,18
 475 230 475 230 462 261 c 128,-1,19
 449 292 449 292 418.5 308.5 c 128,-1,20
 388 325 388 325 333 323 c 0,21,22
 320 322 320 322 305.5 321.5 c 128,-1,23
 291 321 291 321 277 320.5 c 128,-1,24
 263 320 263 320 250 319 c 1,25,-1
 250 411 l 1,26,27
 264 411 264 411 278 410.5 c 128,-1,28
 292 410 292 410 306 409.5 c 128,-1,29
 320 409 320 409 334 408 c 0,30,31
 378 408 378 408 404 423.5 c 128,-1,32
 430 439 430 439 441 469 c 128,-1,33
 452 499 452 499 452 540 c 0,34,35
 452 577 452 577 442.5 604 c 128,-1,36
 433 631 433 631 410.5 646 c 128,-1,37
 388 661 388 661 350 661 c 0,38,39
 303 661 303 661 267 640.5 c 128,-1,40
 231 620 231 620 205.5 579 c 128,-1,41
 180 538 180 538 164 476 c 1,42,-1
 84 476 l 1,43,-1
 84 720 l 1,44,-1
 156 720 l 1,45,-1
 170 541 l 1,46,-1
 148 510 l 1,47,48
 153 565 153 565 169 607 c 128,-1,49
 185 649 185 649 211.5 677 c 128,-1,50
 238 705 238 705 274.5 719 c 128,-1,51
 311 733 311 733 356 733 c 0,52,53
 421 733 421 733 465 709.5 c 128,-1,54
 509 686 509 686 531.5 645 c 128,-1,55
 554 604 554 604 554 549 c 0,56,57
 554 496 554 496 530.5 458 c 128,-1,58
 507 420 507 420 469 397.5 c 128,-1,59
 431 375 431 375 385 371 c 1,60,-1
 391 391 l 1,61,-1
 391 344 l 1,62,-1
 385 368 l 1,63,64
 444 365 444 365 487 342.5 c 128,-1,65
 530 320 530 320 553.5 281.5 c 128,-1,66
 577 243 577 243 577 189 c 0,67,68
 577 140 577 140 562.5 101.5 c 128,-1,69
 548 63 548 63 520.5 35 c 128,-1,70
 493 7 493 7 452.5 -8 c 128,-1,71
 412 -23 412 -23 360 -23 c 0,0,1
EndSplineSet
EndChar

StartChar: Icyr
Encoding: 1048 1048 270
Width: 761
GlyphClass: 2
Flags: W
AnchorPoint: "Anchor-0" 381 741 basechar 0
LayerCount: 2
Fore
SplineSet
174 185 m 1,0,-1
 539 585 l 1,1,-1
 587 535 l 1,2,-1
 222 134 l 1,3,-1
 174 185 l 1,0,-1
52 0 m 1,4,-1
 52 72 l 1,5,-1
 61 72 l 2,6,7
 86 72 86 72 105 79 c 128,-1,8
 124 86 124 86 124 109 c 2,9,-1
 124 601 l 2,10,11
 124 624 124 624 105 631 c 128,-1,12
 86 638 86 638 61 638 c 2,13,-1
 52 638 l 1,14,-1
 52 710 l 1,15,-1
 301 710 l 1,16,-1
 301 638 l 1,17,-1
 293 638 l 2,18,19
 278 638 278 638 261 637 c 128,-1,20
 244 636 244 636 233 634 c 128,-1,21
 222 632 222 632 222 628 c 2,22,-1
 222 82 l 2,23,24
 222 79 222 79 233 76.5 c 128,-1,25
 244 74 244 74 261 73 c 128,-1,26
 278 72 278 72 293 72 c 2,27,-1
 301 72 l 1,28,-1
 301 0 l 1,29,-1
 52 0 l 1,4,-1
460 0 m 1,30,-1
 460 72 l 1,31,-1
 467 72 l 2,32,33
 483 72 483 72 499.5 73 c 128,-1,34
 516 74 516 74 527.5 76.5 c 128,-1,35
 539 79 539 79 539 82 c 2,36,-1
 539 628 l 2,37,38
 539 632 539 632 527.5 634 c 128,-1,39
 516 636 516 636 499.5 637 c 128,-1,40
 483 638 483 638 467 638 c 2,41,-1
 460 638 l 1,42,-1
 460 710 l 1,43,-1
 709 710 l 1,44,-1
 709 638 l 1,45,-1
 700 638 l 2,46,47
 676 638 676 638 656.5 631 c 128,-1,48
 637 624 637 624 637 601 c 2,49,-1
 637 109 l 2,50,51
 637 86 637 86 656.5 79 c 128,-1,52
 676 72 676 72 700 72 c 2,53,-1
 709 72 l 1,54,-1
 709 0 l 1,55,-1
 460 0 l 1,30,-1
EndSplineSet
EndChar

StartChar: Elcyr
Encoding: 1051 1051 276
Width: 717
GlyphClass: 2
Flags: W
AnchorPoint: "Anchor-0" 395 741 basechar 0
LayerCount: 2
Fore
SplineSet
222 710 m 1,0,-1
 542 710 l 1,1,-1
 542 636 l 1,2,-1
 222 636 l 1,3,-1
 222 710 l 1,0,-1
417 0 m 1,4,-1
 417 72 l 1,5,-1
 424 72 l 2,6,7
 440 72 440 72 456.5 73 c 128,-1,8
 473 74 473 74 484 76.5 c 128,-1,9
 495 79 495 79 495 82 c 2,10,-1
 495 710 l 1,11,-1
 665 710 l 1,12,-1
 665 638 l 1,13,-1
 656 638 l 2,14,15
 632 638 632 638 612.5 631 c 128,-1,16
 593 624 593 624 593 601 c 2,17,-1
 593 109 l 2,18,19
 593 86 593 86 612.5 79 c 128,-1,20
 632 72 632 72 655 72 c 2,21,-1
 665 72 l 1,22,-1
 665 0 l 1,23,-1
 417 0 l 1,4,-1
158 274 m 2,24,-1
 180 602 l 2,25,26
 182 624 182 624 164.5 631 c 128,-1,27
 147 638 147 638 122 638 c 2,28,-1
 112 638 l 1,29,-1
 112 710 l 1,30,-1
 269 710 l 1,31,-1
 240 269 l 2,32,33
 233 167 233 167 211.5 104.5 c 128,-1,34
 190 42 190 42 154.5 13.5 c 128,-1,35
 119 -15 119 -15 69 -15 c 0,36,37
 53 -15 53 -15 38 -11 c 128,-1,38
 23 -7 23 -7 11 0 c 1,39,-1
 11 91 l 1,40,41
 22 85 22 85 35.5 80.5 c 128,-1,42
 49 76 49 76 64 76 c 0,43,44
 91 76 91 76 110 96 c 128,-1,45
 129 116 129 116 141.5 159 c 128,-1,46
 154 202 154 202 158 274 c 2,24,-1
EndSplineSet
Substitution2: "'locl' Localized Forms in Cyrillic lookup 12 subtable" El.bgr
EndChar

StartChar: Pecyr
Encoding: 1055 1055 281
Width: 742
GlyphClass: 2
Flags: W
AnchorPoint: "Anchor-0" 371 741 basechar 0
LayerCount: 2
Fore
SplineSet
189 710 m 1,0,-1
 553 710 l 1,1,-1
 553 636 l 1,2,-1
 189 636 l 1,3,-1
 189 710 l 1,0,-1
52 0 m 1,4,-1
 52 72 l 1,5,-1
 61 72 l 2,6,7
 86 72 86 72 105 79 c 128,-1,8
 124 86 124 86 124 109 c 2,9,-1
 124 601 l 2,10,11
 124 624 124 624 105 631 c 128,-1,12
 86 638 86 638 61 638 c 2,13,-1
 52 638 l 1,14,-1
 52 710 l 1,15,-1
 222 710 l 1,16,-1
 222 82 l 2,17,18
 222 79 222 79 233 76.5 c 128,-1,19
 244 74 244 74 261 73 c 128,-1,20
 278 72 278 72 293 72 c 2,21,-1
 301 72 l 1,22,-1
 301 0 l 1,23,-1
 52 0 l 1,4,-1
441 0 m 1,24,-1
 441 72 l 1,25,-1
 449 72 l 2,26,27
 464 72 464 72 480.5 73 c 128,-1,28
 497 74 497 74 508.5 76.5 c 128,-1,29
 520 79 520 79 520 82 c 2,30,-1
 520 710 l 1,31,-1
 690 710 l 1,32,-1
 690 638 l 1,33,-1
 681 638 l 2,34,35
 657 638 657 638 638 631 c 128,-1,36
 619 624 619 624 619 601 c 2,37,-1
 619 109 l 2,38,39
 619 86 619 86 638 79 c 128,-1,40
 657 72 657 72 681 72 c 2,41,-1
 690 72 l 1,42,-1
 690 0 l 1,43,-1
 441 0 l 1,24,-1
EndSplineSet
EndChar

StartChar: Ucyr
Encoding: 1059 1059 285
Width: 614
GlyphClass: 2
Flags: W
AnchorPoint: "Anchor-1" 203 0 basechar 0
AnchorPoint: "Anchor-0" 313 741 basechar 0
LayerCount: 2
Fore
SplineSet
366 200 m 2,0,1
 344 144 344 144 323 102.5 c 128,-1,2
 302 61 302 61 280.5 33.5 c 128,-1,3
 259 6 259 6 234 -7.5 c 128,-1,4
 209 -21 209 -21 178 -21 c 0,5,6
 157 -21 157 -21 141.5 -16.5 c 128,-1,7
 126 -12 126 -12 115 -4 c 1,8,-1
 115 87 l 1,9,10
 125 81 125 81 141.5 75.5 c 128,-1,11
 158 70 158 70 174 70 c 0,12,13
 201 70 201 70 222 84 c 128,-1,14
 243 98 243 98 262.5 131 c 128,-1,15
 282 164 282 164 304 220 c 2,16,-1
 456 615 l 2,17,18
 456 622 456 622 448 627 c 128,-1,19
 440 632 440 632 428 635 c 128,-1,20
 416 638 416 638 405 638 c 2,21,-1
 396 638 l 1,22,-1
 396 710 l 1,23,-1
 591 710 l 1,24,-1
 591 638 l 1,25,-1
 581 638 l 2,26,27
 568 638 568 638 558 633 c 128,-1,28
 548 628 548 628 539 616.5 c 128,-1,29
 530 605 530 605 522 585 c 2,30,-1
 366 200 l 2,0,1
341 218 m 1,31,-1
 281 131 l 1,32,-1
 88 593 l 2,33,34
 81 612 81 612 73.5 621 c 128,-1,35
 66 630 66 630 56.5 634 c 128,-1,36
 47 638 47 638 33 638 c 2,37,-1
 23 638 l 1,38,-1
 23 710 l 1,39,-1
 247 710 l 1,40,-1
 247 638 l 1,41,-1
 234 638 l 2,42,43
 220 638 220 638 205.5 636.5 c 128,-1,44
 191 635 191 635 181.5 633 c 128,-1,45
 172 631 172 631 172 627 c 2,46,-1
 341 218 l 1,31,-1
EndSplineSet
EndChar

StartChar: Efcyr
Encoding: 1060 1060 290
Width: 816
GlyphClass: 2
Flags: W
AnchorPoint: "Anchor-1" 408 0 basechar 0
AnchorPoint: "Anchor-0" 408 741 basechar 0
LayerCount: 2
Fore
SplineSet
363 84 m 2,0,-1
 363 626 l 2,1,2
 363 649 363 649 343 656 c 128,-1,3
 323 663 323 663 292 663 c 2,4,-1
 275 663 l 1,5,-1
 275 735 l 1,6,-1
 540 735 l 1,7,-1
 540 663 l 1,8,-1
 523 663 l 2,9,10
 493 663 493 663 473 656 c 128,-1,11
 453 649 453 649 453 626 c 2,12,-1
 453 84 l 2,13,14
 453 61 453 61 473 54 c 128,-1,15
 493 47 493 47 523 47 c 2,16,-1
 540 47 l 1,17,-1
 540 -25 l 1,18,-1
 275 -25 l 1,19,-1
 275 47 l 1,20,-1
 292 47 l 2,21,22
 323 47 323 47 343 54 c 128,-1,23
 363 61 363 61 363 84 c 2,0,-1
366 617 m 1,24,-1
 366 544 l 1,25,26
 289 544 289 544 241.5 522.5 c 128,-1,27
 194 501 194 501 172.5 460.5 c 128,-1,28
 151 420 151 420 151 360 c 0,29,30
 151 302 151 302 172.5 260.5 c 128,-1,31
 194 219 194 219 241.5 197.5 c 128,-1,32
 289 176 289 176 366 176 c 1,33,-1
 366 103 l 1,34,35
 260 103 260 103 188.5 135 c 128,-1,36
 117 167 117 167 81.5 224.5 c 128,-1,37
 46 282 46 282 46 360 c 256,38,39
 46 438 46 438 82.5 495.5 c 128,-1,40
 119 553 119 553 190 585 c 128,-1,41
 261 617 261 617 366 617 c 1,24,-1
450 103 m 1,42,-1
 450 176 l 1,43,44
 528 176 528 176 575 197.5 c 128,-1,45
 622 219 622 219 643.5 260 c 128,-1,46
 665 301 665 301 665 360 c 256,47,48
 665 419 665 419 643.5 460 c 128,-1,49
 622 501 622 501 575 522.5 c 128,-1,50
 528 544 528 544 450 544 c 1,51,-1
 450 617 l 1,52,53
 557 617 557 617 628 585 c 128,-1,54
 699 553 699 553 734.5 495.5 c 128,-1,55
 770 438 770 438 770 360 c 256,56,57
 770 282 770 282 734 224.5 c 128,-1,58
 698 167 698 167 626.5 135 c 128,-1,59
 555 103 555 103 450 103 c 1,42,-1
EndSplineSet
EndChar

StartChar: Tsecyr
Encoding: 1062 1062 292
Width: 742
GlyphClass: 2
Flags: W
AnchorPoint: "Anchor-0" 371 741 basechar 0
LayerCount: 2
Fore
SplineSet
187 0 m 1,0,-1
 187 74 l 1,1,-1
 548 74 l 1,2,-1
 548 0 l 1,3,-1
 187 0 l 1,0,-1
52 710 m 1,4,-1
 300 710 l 1,5,-1
 300 638 l 1,6,-1
 292 638 l 2,7,8
 277 638 277 638 261 637 c 128,-1,9
 245 636 245 636 233.5 634 c 128,-1,10
 222 632 222 632 222 628 c 2,11,-1
 222 0 l 1,12,-1
 52 0 l 1,13,-1
 52 72 l 1,14,-1
 61 72 l 2,15,16
 86 72 86 72 105 79 c 128,-1,17
 124 86 124 86 124 109 c 2,18,-1
 124 601 l 2,19,20
 124 624 124 624 105 631 c 128,-1,21
 86 638 86 638 61 638 c 2,22,-1
 52 638 l 1,23,-1
 52 710 l 1,4,-1
441 710 m 1,24,-1
 690 710 l 1,25,-1
 690 638 l 1,26,-1
 681 638 l 2,27,28
 657 638 657 638 638 631 c 128,-1,29
 619 624 619 624 619 602 c 2,30,-1
 619 0 l 1,31,-1
 520 0 l 1,32,-1
 520 628 l 2,33,34
 520 632 520 632 509 634 c 128,-1,35
 498 636 498 636 481.5 637 c 128,-1,36
 465 638 465 638 449 638 c 2,37,-1
 441 638 l 1,38,-1
 441 710 l 1,24,-1
485 0 m 1,39,-1
 485 74 l 1,40,-1
 700 74 l 1,41,-1
 700 -181 l 1,42,-1
 631 -181 l 1,43,-1
 619 -55 l 2,44,45
 617 -35 617 -35 606 -23 c 128,-1,46
 595 -11 595 -11 571 -5.5 c 128,-1,47
 547 0 547 0 506 0 c 2,48,-1
 485 0 l 1,39,-1
EndSplineSet
EndChar

StartChar: Checyr
Encoding: 1063 1063 293
Width: 715
GlyphClass: 2
Flags: W
AnchorPoint: "Anchor-0" 350 741 basechar 0
LayerCount: 2
Fore
SplineSet
414 0 m 1,0,-1
 414 72 l 1,1,-1
 422 72 l 2,2,3
 438 72 438 72 454 73 c 128,-1,4
 470 74 470 74 481.5 76.5 c 128,-1,5
 493 79 493 79 493 82 c 2,6,-1
 493 628 l 2,7,8
 493 632 493 632 481.5 634 c 128,-1,9
 470 636 470 636 454 637 c 128,-1,10
 438 638 438 638 422 638 c 2,11,-1
 414 638 l 1,12,-1
 414 710 l 1,13,-1
 663 710 l 1,14,-1
 663 638 l 1,15,-1
 653 638 l 2,16,17
 629 638 629 638 610 631 c 128,-1,18
 591 624 591 624 591 601 c 2,19,-1
 591 109 l 2,20,21
 591 86 591 86 610 79 c 128,-1,22
 629 72 629 72 653 72 c 2,23,-1
 663 72 l 1,24,-1
 663 0 l 1,25,-1
 414 0 l 1,0,-1
334 273 m 0,26,27
 253 273 253 273 202 291.5 c 128,-1,28
 151 310 151 310 127.5 353 c 128,-1,29
 104 396 104 396 104 468 c 2,30,-1
 104 602 l 2,31,32
 104 624 104 624 85 631 c 128,-1,33
 66 638 66 638 41 638 c 2,34,-1
 32 638 l 1,35,-1
 32 710 l 1,36,-1
 281 710 l 1,37,-1
 281 638 l 1,38,-1
 273 638 l 2,39,40
 258 638 258 638 241 637 c 128,-1,41
 224 636 224 636 213 634 c 128,-1,42
 202 632 202 632 202 628 c 2,43,-1
 202 473 l 2,44,45
 202 429 202 429 215.5 401 c 128,-1,46
 229 373 229 373 258.5 359.5 c 128,-1,47
 288 346 288 346 338 346 c 0,48,49
 383 346 383 346 431 355 c 128,-1,50
 479 364 479 364 518 386 c 1,51,-1
 518 312 l 1,52,53
 477 292 477 292 429 282.5 c 128,-1,54
 381 273 381 273 334 273 c 0,26,27
EndSplineSet
EndChar

StartChar: Shacyr
Encoding: 1064 1064 294
Width: 1025
GlyphClass: 2
Flags: W
AnchorPoint: "Anchor-0" 502 741 basechar 0
LayerCount: 2
Fore
SplineSet
832 0 m 1,0,-1
 192 0 l 1,1,-1
 192 74 l 1,2,-1
 832 74 l 1,3,-1
 832 0 l 1,0,-1
973 710 m 1,4,-1
 973 638 l 1,5,-1
 964 638 l 2,6,7
 940 638 940 638 921 631 c 128,-1,8
 902 624 902 624 902 601 c 2,9,-1
 902 109 l 2,10,11
 902 86 902 86 921 79 c 128,-1,12
 940 72 940 72 964 72 c 2,13,-1
 973 72 l 1,14,-1
 973 0 l 1,15,-1
 804 0 l 1,16,-1
 804 628 l 2,17,18
 804 632 804 632 792.5 634 c 128,-1,19
 781 636 781 636 764.5 637 c 128,-1,20
 748 638 748 638 732 638 c 2,21,-1
 724 638 l 1,22,-1
 724 710 l 1,23,-1
 973 710 l 1,4,-1
301 710 m 1,24,-1
 301 638 l 1,25,-1
 293 638 l 2,26,27
 279 638 279 638 262 637 c 128,-1,28
 245 636 245 636 233.5 634 c 128,-1,29
 222 632 222 632 222 628 c 2,30,-1
 222 0 l 1,31,-1
 52 0 l 1,32,-1
 52 72 l 1,33,-1
 61 72 l 2,34,35
 86 72 86 72 105 79 c 128,-1,36
 124 86 124 86 124 109 c 2,37,-1
 124 601 l 2,38,39
 124 624 124 624 105 631 c 128,-1,40
 86 638 86 638 61 638 c 2,41,-1
 52 638 l 1,42,-1
 52 710 l 1,43,-1
 301 710 l 1,24,-1
389 710 m 1,44,-1
 636 710 l 1,45,-1
 636 638 l 1,46,-1
 629 638 l 2,47,48
 614 638 614 638 599 637 c 128,-1,49
 584 636 584 636 573 634 c 128,-1,50
 562 632 562 632 562 628 c 2,51,-1
 562 0 l 1,52,-1
 464 0 l 1,53,-1
 464 628 l 2,54,55
 464 632 464 632 453 634 c 128,-1,56
 442 636 442 636 426.5 637 c 128,-1,57
 411 638 411 638 397 638 c 2,58,-1
 389 638 l 1,59,-1
 389 710 l 1,44,-1
EndSplineSet
EndChar

StartChar: Shchacyr
Encoding: 1065 1065 295
Width: 1025
GlyphClass: 2
Flags: W
AnchorPoint: "Anchor-0" 502 741 basechar 0
LayerCount: 2
Fore
SplineSet
835 0 m 1,0,-1
 192 0 l 1,1,-1
 192 74 l 1,2,-1
 835 74 l 1,3,-1
 835 0 l 1,0,-1
300 710 m 1,4,-1
 300 638 l 1,5,-1
 292 638 l 2,6,7
 277 638 277 638 261 637 c 128,-1,8
 245 636 245 636 233.5 634 c 128,-1,9
 222 632 222 632 222 628 c 2,10,-1
 222 0 l 1,11,-1
 52 0 l 1,12,-1
 52 72 l 1,13,-1
 61 72 l 2,14,15
 86 72 86 72 105 79 c 128,-1,16
 124 86 124 86 124 109 c 2,17,-1
 124 601 l 2,18,19
 124 624 124 624 105 631 c 128,-1,20
 86 638 86 638 61 638 c 2,21,-1
 52 638 l 1,22,-1
 52 710 l 1,23,-1
 300 710 l 1,4,-1
724 710 m 1,24,-1
 973 710 l 1,25,-1
 973 638 l 1,26,-1
 964 638 l 2,27,28
 940 638 940 638 921 631 c 128,-1,29
 902 624 902 624 902 602 c 2,30,-1
 902 0 l 1,31,-1
 804 0 l 1,32,-1
 804 628 l 2,33,34
 804 632 804 632 792.5 634 c 128,-1,35
 781 636 781 636 764.5 637 c 128,-1,36
 748 638 748 638 732 638 c 2,37,-1
 724 638 l 1,38,-1
 724 710 l 1,24,-1
789 0 m 2,39,-1
 768 0 l 1,40,-1
 768 74 l 1,41,-1
 983 74 l 1,42,-1
 983 -181 l 1,43,-1
 914 -181 l 1,44,-1
 902 -55 l 2,45,46
 901 -35 901 -35 889.5 -23 c 128,-1,47
 878 -11 878 -11 854 -5.5 c 128,-1,48
 830 0 830 0 789 0 c 2,39,-1
389 710 m 1,49,-1
 636 710 l 1,50,-1
 636 638 l 1,51,-1
 629 638 l 2,52,53
 614 638 614 638 599 637 c 128,-1,54
 584 636 584 636 573 634 c 128,-1,55
 562 632 562 632 562 628 c 2,56,-1
 562 0 l 1,57,-1
 464 0 l 1,58,-1
 464 628 l 2,59,60
 464 632 464 632 453 634 c 128,-1,61
 442 636 442 636 426.5 637 c 128,-1,62
 411 638 411 638 397 638 c 2,63,-1
 389 638 l 1,64,-1
 389 710 l 1,49,-1
EndSplineSet
EndChar

StartChar: Hardcyr
Encoding: 1066 1066 296
Width: 723
GlyphClass: 2
Flags: W
AnchorPoint: "Anchor-0" 253 741 basechar 0
LayerCount: 2
Fore
SplineSet
454 0 m 2,0,-1
 169 0 l 1,1,-1
 169 72 l 1,2,-1
 179 72 l 2,3,4
 205 72 205 72 224.5 79 c 128,-1,5
 244 86 244 86 244 108 c 2,6,-1
 244 639 l 1,7,-1
 217 639 l 2,8,9
 180 639 180 639 161.5 633 c 128,-1,10
 143 627 143 627 136 614.5 c 128,-1,11
 129 602 129 602 126 580 c 2,12,-1
 115 475 l 1,13,-1
 45 475 l 1,14,-1
 45 710 l 1,15,-1
 435 710 l 1,16,-1
 435 638 l 1,17,-1
 417 638 l 2,18,19
 398 638 398 638 380.5 637 c 128,-1,20
 363 636 363 636 352.5 634 c 128,-1,21
 342 632 342 632 342 628 c 2,22,-1
 342 71 l 1,23,-1
 450 71 l 2,24,25
 491 71 491 71 519 87.5 c 128,-1,26
 547 104 547 104 561 136 c 128,-1,27
 575 168 575 168 575 215 c 0,28,29
 575 265 575 265 561 297.5 c 128,-1,30
 547 330 547 330 519 346 c 128,-1,31
 491 362 491 362 450 362 c 2,32,-1
 282 362 l 1,33,-1
 282 433 l 1,34,-1
 454 433 l 2,35,36
 521 433 521 433 571 409.5 c 128,-1,37
 621 386 621 386 649.5 337.5 c 128,-1,38
 678 289 678 289 678 215 c 0,39,40
 678 147 678 147 648.5 99 c 128,-1,41
 619 51 619 51 568.5 25.5 c 128,-1,42
 518 0 518 0 454 0 c 2,0,-1
EndSplineSet
EndChar

StartChar: Ylongcyr
Encoding: 1067 1067 297
Width: 891
GlyphClass: 2
Flags: W
AnchorPoint: "Anchor-1" 437 0 basechar 0
AnchorPoint: "Anchor-0" 437 741 basechar 0
LayerCount: 2
Fore
SplineSet
669 82 m 2,0,-1
 669 628 l 2,1,2
 669 632 669 632 657.5 634 c 128,-1,3
 646 636 646 636 630 637 c 128,-1,4
 614 638 614 638 599 638 c 2,5,-1
 591 638 l 1,6,-1
 591 710 l 1,7,-1
 839 710 l 1,8,-1
 839 638 l 1,9,-1
 830 638 l 2,10,11
 801 638 801 638 784 631 c 128,-1,12
 767 624 767 624 767 601 c 2,13,-1
 767 109 l 2,14,15
 767 86 767 86 784 79 c 128,-1,16
 801 72 801 72 830 72 c 2,17,-1
 839 72 l 1,18,-1
 839 0 l 1,19,-1
 591 0 l 1,20,-1
 591 72 l 1,21,-1
 598 72 l 2,22,23
 614 72 614 72 630.5 73 c 128,-1,24
 647 74 647 74 658 76.5 c 128,-1,25
 669 79 669 79 669 82 c 2,0,-1
336 0 m 2,26,-1
 52 0 l 1,27,-1
 52 72 l 1,28,-1
 61 72 l 2,29,30
 86 72 86 72 105 79 c 128,-1,31
 124 86 124 86 124 109 c 2,32,-1
 124 601 l 2,33,34
 124 624 124 624 105 631 c 128,-1,35
 86 638 86 638 61 638 c 2,36,-1
 52 638 l 1,37,-1
 52 710 l 1,38,-1
 318 710 l 1,39,-1
 318 638 l 1,40,-1
 300 638 l 2,41,42
 280 638 280 638 262.5 637 c 128,-1,43
 245 636 245 636 234 634 c 128,-1,44
 223 632 223 632 223 628 c 2,45,-1
 223 71 l 1,46,-1
 332 71 l 2,47,48
 374 71 374 71 402 87.5 c 128,-1,49
 430 104 430 104 444 136 c 128,-1,50
 458 168 458 168 458 215 c 0,51,52
 458 265 458 265 444 297.5 c 128,-1,53
 430 330 430 330 402 346 c 128,-1,54
 374 362 374 362 332 362 c 2,55,-1
 181 362 l 1,56,-1
 181 433 l 1,57,-1
 337 433 l 2,58,59
 403 433 403 433 453.5 409.5 c 128,-1,60
 504 386 504 386 532 337.5 c 128,-1,61
 560 289 560 289 560 215 c 0,62,63
 560 147 560 147 531 99 c 128,-1,64
 502 51 502 51 451 25.5 c 128,-1,65
 400 0 400 0 336 0 c 2,26,-1
EndSplineSet
EndChar

StartChar: Softcyr
Encoding: 1068 1068 298
Width: 605
GlyphClass: 2
Flags: W
AnchorPoint: "Anchor-0" 175 741 basechar 0
LayerCount: 2
Fore
SplineSet
336 0 m 2,0,-1
 52 0 l 1,1,-1
 52 72 l 1,2,-1
 61 72 l 2,3,4
 86 72 86 72 105 79 c 128,-1,5
 124 86 124 86 124 109 c 2,6,-1
 124 601 l 2,7,8
 124 624 124 624 105 631 c 128,-1,9
 86 638 86 638 61 638 c 2,10,-1
 52 638 l 1,11,-1
 52 710 l 1,12,-1
 318 710 l 1,13,-1
 318 638 l 1,14,-1
 300 638 l 2,15,16
 280 638 280 638 262.5 637 c 128,-1,17
 245 636 245 636 234 634 c 128,-1,18
 223 632 223 632 223 628 c 2,19,-1
 223 71 l 1,20,-1
 332 71 l 2,21,22
 374 71 374 71 402 87.5 c 128,-1,23
 430 104 430 104 444 136 c 128,-1,24
 458 168 458 168 458 215 c 0,25,26
 458 265 458 265 444 297.5 c 128,-1,27
 430 330 430 330 402 346 c 128,-1,28
 374 362 374 362 332 362 c 2,29,-1
 181 362 l 1,30,-1
 181 433 l 1,31,-1
 337 433 l 2,32,33
 403 433 403 433 453.5 409.5 c 128,-1,34
 504 386 504 386 532 337.5 c 128,-1,35
 560 289 560 289 560 215 c 0,36,37
 560 147 560 147 531 99 c 128,-1,38
 502 51 502 51 451 25.5 c 128,-1,39
 400 0 400 0 336 0 c 2,0,-1
EndSplineSet
EndChar

StartChar: Ereversedcyr
Encoding: 1069 1069 299
Width: 675
GlyphClass: 2
Flags: W
AnchorPoint: "Anchor-1" 324 0 basechar 0
AnchorPoint: "Anchor-0" 324 741 basechar 0
LayerCount: 2
Fore
SplineSet
543 396 m 1,0,-1
 543 331 l 1,1,2
 506 329 506 329 468 327 c 128,-1,3
 430 325 430 325 392.5 323.5 c 128,-1,4
 355 322 355 322 317.5 320.5 c 128,-1,5
 280 319 280 319 243 317 c 1,6,-1
 243 410 l 1,7,8
 278 409 278 409 315.5 407 c 128,-1,9
 353 405 353 405 391 403.5 c 128,-1,10
 429 402 429 402 467.5 400 c 128,-1,11
 506 398 506 398 543 396 c 1,0,-1
345 -23 m 0,12,13
 286 -23 286 -23 241.5 2.5 c 128,-1,14
 197 28 197 28 171 78.5 c 128,-1,15
 145 129 145 129 139 204 c 1,16,-1
 160 173 l 1,17,-1
 146 -10 l 1,18,-1
 74 -10 l 1,19,-1
 74 238 l 1,20,-1
 154 238 l 1,21,22
 170 179 170 179 195 136 c 128,-1,23
 220 93 220 93 255.5 70.5 c 128,-1,24
 291 48 291 48 337 48 c 0,25,26
 384 48 384 48 418 66.5 c 128,-1,27
 452 85 452 85 474 122 c 128,-1,28
 496 159 496 159 507 217.5 c 128,-1,29
 518 276 518 276 518 355 c 0,30,31
 518 436 518 436 505 494 c 128,-1,32
 492 552 492 552 468.5 589 c 128,-1,33
 445 626 445 626 412 644 c 128,-1,34
 379 662 379 662 340 662 c 0,35,36
 291 662 291 662 255 640 c 128,-1,37
 219 618 219 618 194.5 576 c 128,-1,38
 170 534 170 534 154 472 c 1,39,-1
 74 472 l 1,40,-1
 74 720 l 1,41,-1
 146 720 l 1,42,-1
 160 537 l 1,43,-1
 139 506 l 1,44,45
 144 581 144 581 170.5 631.5 c 128,-1,46
 197 682 197 682 241.5 707.5 c 128,-1,47
 286 733 286 733 345 733 c 0,48,49
 406 733 406 733 456.5 709.5 c 128,-1,50
 507 686 507 686 544.5 639 c 128,-1,51
 582 592 582 592 602.5 521 c 128,-1,52
 623 450 623 450 623 355 c 0,53,54
 623 264 623 264 602.5 193.5 c 128,-1,55
 582 123 582 123 545 74.5 c 128,-1,56
 508 26 508 26 457 1.5 c 128,-1,57
 406 -23 406 -23 345 -23 c 0,12,13
EndSplineSet
Substitution2: "'ss01' Style Set 1 lookup 61 subtable" Ecyr.alt1
EndChar

StartChar: Yucyr
Encoding: 1070 1070 300
Width: 967
GlyphClass: 2
Flags: W
AnchorPoint: "Anchor-1" 502 0 basechar 0
AnchorPoint: "Anchor-0" 502 741 basechar 0
LayerCount: 2
Fore
SplineSet
180 403 m 1,0,-1
 383 403 l 1,1,-1
 383 329 l 1,2,-1
 180 329 l 1,3,-1
 180 403 l 1,0,-1
52 0 m 1,4,-1
 52 72 l 1,5,-1
 61 72 l 2,6,7
 86 72 86 72 105 79 c 128,-1,8
 124 86 124 86 124 109 c 2,9,-1
 124 601 l 2,10,11
 124 624 124 624 105 631 c 128,-1,12
 86 638 86 638 61 638 c 2,13,-1
 52 638 l 1,14,-1
 52 710 l 1,15,-1
 301 710 l 1,16,-1
 301 638 l 1,17,-1
 293 638 l 2,18,19
 282 638 282 638 269.5 637.5 c 128,-1,20
 257 637 257 637 246.5 635.5 c 128,-1,21
 236 634 236 634 229 632.5 c 128,-1,22
 222 631 222 631 222 628 c 2,23,-1
 222 81 l 2,24,25
 222 79 222 79 229 77.5 c 128,-1,26
 236 76 236 76 246.5 74.5 c 128,-1,27
 257 73 257 73 269.5 72.5 c 128,-1,28
 282 72 282 72 293 72 c 2,29,-1
 301 72 l 1,30,-1
 301 0 l 1,31,-1
 52 0 l 1,4,-1
625 -23 m 256,32,33
 560 -23 560 -23 507 1.5 c 128,-1,34
 454 26 454 26 416 74 c 128,-1,35
 378 122 378 122 357 192.5 c 128,-1,36
 336 263 336 263 336 356 c 0,37,38
 336 448 336 448 357 518.5 c 128,-1,39
 378 589 378 589 416 636.5 c 128,-1,40
 454 684 454 684 507 708.5 c 128,-1,41
 560 733 560 733 625 733 c 256,42,43
 690 733 690 733 743.5 708.5 c 128,-1,44
 797 684 797 684 835 636.5 c 128,-1,45
 873 589 873 589 893.5 518.5 c 128,-1,46
 914 448 914 448 914 356 c 0,47,48
 914 263 914 263 893.5 192.5 c 128,-1,49
 873 122 873 122 835 74 c 128,-1,50
 797 26 797 26 743.5 1.5 c 128,-1,51
 690 -23 690 -23 625 -23 c 256,32,33
626 49 m 0,52,53
 671 49 671 49 705.5 67.5 c 128,-1,54
 740 86 740 86 763 123.5 c 128,-1,55
 786 161 786 161 797.5 218.5 c 128,-1,56
 809 276 809 276 809 355 c 256,57,58
 809 434 809 434 797.5 491.5 c 128,-1,59
 786 549 786 549 763 586.5 c 128,-1,60
 740 624 740 624 705.5 642.5 c 128,-1,61
 671 661 671 661 625 661 c 0,62,63
 580 661 580 661 545 642.5 c 128,-1,64
 510 624 510 624 487 586.5 c 128,-1,65
 464 549 464 549 452.5 491.5 c 128,-1,66
 441 434 441 434 441 355 c 256,67,68
 441 276 441 276 452.5 218.5 c 128,-1,69
 464 161 464 161 487.5 123.5 c 128,-1,70
 511 86 511 86 545.5 67.5 c 128,-1,71
 580 49 580 49 626 49 c 0,52,53
EndSplineSet
EndChar

StartChar: Yacyr
Encoding: 1071 1071 301
Width: 661
GlyphClass: 2
Flags: W
AnchorPoint: "Anchor-1" 331 0 basechar 0
AnchorPoint: "Anchor-0" 364 741 basechar 0
LayerCount: 2
Fore
SplineSet
323 323 m 1,0,-1
 167 0 l 1,1,-1
 27 0 l 1,2,-1
 27 72 l 1,3,-1
 35 72 l 2,4,5
 55 72 55 72 71 77 c 128,-1,6
 87 82 87 82 101 95.5 c 128,-1,7
 115 109 115 109 128 134 c 2,8,-1
 244 366 l 1,9,-1
 323 323 l 1,0,-1
439 82 m 2,10,-1
 439 639 l 1,11,-1
 325 639 l 2,12,13
 283 639 283 639 255 623.5 c 128,-1,14
 227 608 227 608 214 578 c 128,-1,15
 201 548 201 548 201 505 c 0,16,17
 201 461 201 461 213.5 429 c 128,-1,18
 226 397 226 397 254 380 c 128,-1,19
 282 363 282 363 329 363 c 2,20,-1
 450 363 l 1,21,-1
 450 292 l 1,22,-1
 293 292 l 1,23,-1
 270 302 l 1,24,25
 220 312 220 312 181.5 335 c 128,-1,26
 143 358 143 358 121 399.5 c 128,-1,27
 99 441 99 441 99 505 c 0,28,29
 99 570 99 570 125.5 616 c 128,-1,30
 152 662 152 662 202 686 c 128,-1,31
 252 710 252 710 320 710 c 2,32,-1
 609 710 l 1,33,-1
 609 638 l 1,34,-1
 600 638 l 2,35,36
 575 638 575 638 556 631 c 128,-1,37
 537 624 537 624 537 601 c 2,38,-1
 537 109 l 2,39,40
 537 86 537 86 556 79 c 128,-1,41
 575 72 575 72 600 72 c 2,42,-1
 609 72 l 1,43,-1
 609 0 l 1,44,-1
 344 0 l 1,45,-1
 344 72 l 1,46,-1
 361 72 l 2,47,48
 376 72 376 72 390 72.5 c 128,-1,49
 404 73 404 73 415 74.5 c 128,-1,50
 426 76 426 76 432.5 77.5 c 128,-1,51
 439 79 439 79 439 82 c 2,10,-1
EndSplineSet
EndChar

StartChar: Geupcyr
Encoding: 1168 1168 302
Width: 571
GlyphClass: 2
Flags: W
AnchorPoint: "Anchor-0" 269 741 basechar 0
LayerCount: 2
Fore
SplineSet
222 639 m 1,0,-1
 222 108 l 2,1,2
 222 94 222 94 232.5 86 c 128,-1,3
 243 78 243 78 261 75 c 128,-1,4
 279 72 279 72 301 72 c 2,5,-1
 318 72 l 1,6,-1
 318 0 l 1,7,-1
 52 0 l 1,8,-1
 52 72 l 1,9,-1
 61 72 l 2,10,11
 86 72 86 72 105 79 c 128,-1,12
 124 86 124 86 124 109 c 2,13,-1
 124 601 l 2,14,15
 124 624 124 624 105 631 c 128,-1,16
 86 638 86 638 61 638 c 2,17,-1
 52 638 l 1,18,-1
 52 710 l 1,19,-1
 334 710 l 2,20,21
 375 710 375 710 400 715 c 128,-1,22
 425 720 425 720 436.5 732.5 c 128,-1,23
 448 745 448 745 450 766 c 2,24,-1
 461 891 l 1,25,-1
 531 891 l 1,26,-1
 531 639 l 1,27,-1
 222 639 l 1,0,-1
EndSplineSet
EndChar

StartChar: Gestrokecyr
Encoding: 1170 1170 303
Width: 576
GlyphClass: 2
Flags: W
AnchorPoint: "Anchor-0" 294 741 basechar 0
LayerCount: 2
Fore
SplineSet
46 395 m 1,0,-1
 384 395 l 1,1,-1
 384 325 l 1,2,-1
 46 325 l 1,3,-1
 46 395 l 1,0,-1
222 639 m 1,4,-1
 222 108 l 2,5,6
 222 94 222 94 232.5 86 c 128,-1,7
 243 78 243 78 261 75 c 128,-1,8
 279 72 279 72 301 72 c 2,9,-1
 318 72 l 1,10,-1
 318 0 l 1,11,-1
 52 0 l 1,12,-1
 52 72 l 1,13,-1
 61 72 l 2,14,15
 86 72 86 72 105 79 c 128,-1,16
 124 86 124 86 124 109 c 2,17,-1
 124 601 l 2,18,19
 124 624 124 624 105 631 c 128,-1,20
 86 638 86 638 61 638 c 2,21,-1
 52 638 l 1,22,-1
 52 710 l 1,23,-1
 531 710 l 1,24,-1
 531 481 l 1,25,-1
 461 481 l 1,26,-1
 450 581 l 2,27,28
 447 605 447 605 436.5 617.5 c 128,-1,29
 426 630 426 630 404 634.5 c 128,-1,30
 382 639 382 639 347 639 c 2,31,-1
 222 639 l 1,4,-1
EndSplineSet
EndChar

StartChar: Zhetailcyr
Encoding: 1174 1174 304
Width: 986
GlyphClass: 2
Flags: W
AnchorPoint: "Anchor-0" 483 741 basechar 0
LayerCount: 2
Fore
SplineSet
704 0 m 1,0,-1
 704 72 l 1,1,-1
 711 72 l 2,2,3
 728 72 728 72 744 73 c 128,-1,4
 760 74 760 74 770 76.5 c 128,-1,5
 780 79 780 79 780 82 c 2,6,-1
 578 348 l 1,7,-1
 578 371 l 1,8,-1
 790 627 l 2,9,10
 790 631 790 631 780.5 633 c 128,-1,11
 771 635 771 635 755.5 636.5 c 128,-1,12
 740 638 740 638 725 638 c 2,13,-1
 717 638 l 1,14,-1
 717 710 l 1,15,-1
 942 710 l 1,16,-1
 942 638 l 1,17,-1
 919 638 l 2,18,19
 909 638 909 638 900 636 c 128,-1,20
 891 634 891 634 882 627.5 c 128,-1,21
 873 621 873 621 865 609 c 2,22,-1
 652 354 l 1,23,-1
 657 396 l 1,24,-1
 903 74 l 1,25,-1
 903 0 l 1,26,-1
 704 0 l 1,0,-1
278 0 m 1,27,-1
 20 0 l 1,28,-1
 20 72 l 1,29,-1
 40 72 l 2,30,31
 52 72 52 72 62.5 73.5 c 128,-1,32
 73 75 73 75 82 80 c 128,-1,33
 91 85 91 85 99 95 c 2,34,-1
 329 396 l 1,35,-1
 328 354 l 1,36,-1
 116 609 l 2,37,38
 107 621 107 621 98 627 c 128,-1,39
 89 633 89 633 80.5 635.5 c 128,-1,40
 72 638 72 638 61 638 c 2,41,-1
 38 638 l 1,42,-1
 38 710 l 1,43,-1
 266 710 l 1,44,-1
 266 638 l 1,45,-1
 257 638 l 2,46,47
 242 638 242 638 226.5 636.5 c 128,-1,48
 211 635 211 635 201.5 633 c 128,-1,49
 192 631 192 631 192 627 c 2,50,-1
 404 371 l 1,51,-1
 404 348 l 1,52,-1
 202 82 l 2,53,54
 202 79 202 79 212.5 76.5 c 128,-1,55
 223 74 223 74 238.5 73 c 128,-1,56
 254 72 254 72 271 72 c 2,57,-1
 278 72 l 1,58,-1
 278 0 l 1,27,-1
775 0 m 2,59,-1
 769 0 l 1,60,-1
 784 74 l 1,61,-1
 969 74 l 1,62,-1
 969 -181 l 1,63,-1
 900 -181 l 1,64,-1
 888 -55 l 2,65,66
 886 -35 886 -35 875 -23 c 128,-1,67
 864 -11 864 -11 840 -5.5 c 128,-1,68
 816 0 816 0 775 0 c 2,59,-1
371 0 m 1,69,-1
 371 72 l 1,70,-1
 378 72 l 2,71,72
 388 72 388 72 399 72.5 c 128,-1,73
 410 73 410 73 420 74.5 c 128,-1,74
 430 76 430 76 436 77.5 c 128,-1,75
 442 79 442 79 442 82 c 2,76,-1
 442 629 l 2,77,78
 442 631 442 631 436 632.5 c 128,-1,79
 430 634 430 634 419.5 635.5 c 128,-1,80
 409 637 409 637 398 637.5 c 128,-1,81
 387 638 387 638 377 638 c 2,82,-1
 369 638 l 1,83,-1
 369 710 l 1,84,-1
 613 710 l 1,85,-1
 613 638 l 1,86,-1
 606 638 l 2,87,88
 596 638 596 638 584 637.5 c 128,-1,89
 572 637 572 637 562.5 635.5 c 128,-1,90
 553 634 553 634 546.5 632.5 c 128,-1,91
 540 631 540 631 540 628 c 2,92,-1
 540 81 l 2,93,94
 540 79 540 79 546 77.5 c 128,-1,95
 552 76 552 76 562 74.5 c 128,-1,96
 572 73 572 73 583 72.5 c 128,-1,97
 594 72 594 72 605 72 c 2,98,-1
 612 72 l 1,99,-1
 612 0 l 1,100,-1
 371 0 l 1,69,-1
EndSplineSet
EndChar

StartChar: Katailcyr
Encoding: 1178 1178 306
Width: 683
GlyphClass: 2
Flags: W
AnchorPoint: "Anchor-0" 349 741 basechar 0
LayerCount: 2
Fore
SplineSet
52 0 m 1,0,-1
 52 72 l 1,1,-1
 61 72 l 2,2,3
 86 72 86 72 105 79 c 128,-1,4
 124 86 124 86 124 109 c 2,5,-1
 124 601 l 2,6,7
 124 624 124 624 105 631 c 128,-1,8
 86 638 86 638 61 638 c 2,9,-1
 52 638 l 1,10,-1
 52 710 l 1,11,-1
 298 710 l 1,12,-1
 298 638 l 1,13,-1
 290 638 l 2,14,15
 280 638 280 638 267.5 637.5 c 128,-1,16
 255 637 255 637 245 635.5 c 128,-1,17
 235 634 235 634 228.5 632.5 c 128,-1,18
 222 631 222 631 222 628 c 2,19,-1
 222 82 l 2,20,21
 222 79 222 79 228 77.5 c 128,-1,22
 234 76 234 76 244.5 74.5 c 128,-1,23
 255 73 255 73 267 72.5 c 128,-1,24
 279 72 279 72 289 72 c 2,25,-1
 296 72 l 1,26,-1
 296 0 l 1,27,-1
 52 0 l 1,0,-1
400 0 m 1,28,-1
 400 72 l 1,29,-1
 407 72 l 2,30,31
 424 72 424 72 439.5 73 c 128,-1,32
 455 74 455 74 465.5 76.5 c 128,-1,33
 476 79 476 79 476 82 c 2,34,-1
 263 348 l 1,35,-1
 263 371 l 1,36,-1
 487 627 l 2,37,38
 487 631 487 631 477 633 c 128,-1,39
 467 635 467 635 452 636.5 c 128,-1,40
 437 638 437 638 421 638 c 2,41,-1
 413 638 l 1,42,-1
 413 710 l 1,43,-1
 639 710 l 1,44,-1
 639 638 l 1,45,-1
 617 638 l 2,46,47
 607 638 607 638 598.5 635.5 c 128,-1,48
 590 633 590 633 581.5 627 c 128,-1,49
 573 621 573 621 563 610 c 2,50,-1
 338 354 l 1,51,-1
 342 396 l 1,52,-1
 601 74 l 1,53,-1
 601 0 l 1,54,-1
 400 0 l 1,28,-1
473 0 m 2,55,-1
 467 0 l 1,56,-1
 482 74 l 1,57,-1
 667 74 l 1,58,-1
 667 -181 l 1,59,-1
 597 -181 l 1,60,-1
 586 -55 l 2,61,62
 584 -35 584 -35 573 -23 c 128,-1,63
 562 -11 562 -11 538 -5.5 c 128,-1,64
 514 0 514 0 473 0 c 2,55,-1
EndSplineSet
EndChar

StartChar: Kaverticalstrokecyr
Encoding: 1180 1180 307
Width: 782
GlyphClass: 2
Flags: W
AnchorPoint: "Anchor-0" 406 741 basechar 0
LayerCount: 2
Fore
SplineSet
296 171 m 1,0,-1
 296 544 l 1,1,-1
 370 544 l 1,2,-1
 370 171 l 1,3,-1
 296 171 l 1,0,-1
52 0 m 1,4,-1
 52 72 l 1,5,-1
 61 72 l 2,6,7
 86 72 86 72 105 79 c 128,-1,8
 124 86 124 86 124 109 c 2,9,-1
 124 601 l 2,10,11
 124 624 124 624 105 631 c 128,-1,12
 86 638 86 638 61 638 c 2,13,-1
 52 638 l 1,14,-1
 52 710 l 1,15,-1
 298 710 l 1,16,-1
 298 638 l 1,17,-1
 290 638 l 2,18,19
 280 638 280 638 267.5 637.5 c 128,-1,20
 255 637 255 637 245 635.5 c 128,-1,21
 235 634 235 634 228.5 632.5 c 128,-1,22
 222 631 222 631 222 628 c 2,23,-1
 222 82 l 2,24,25
 222 79 222 79 228 77.5 c 128,-1,26
 234 76 234 76 244.5 74.5 c 128,-1,27
 255 73 255 73 267 72.5 c 128,-1,28
 279 72 279 72 289 72 c 2,29,-1
 296 72 l 1,30,-1
 296 0 l 1,31,-1
 52 0 l 1,4,-1
504 0 m 1,32,-1
 504 72 l 1,33,-1
 511 72 l 2,34,35
 529 72 529 72 544.5 73 c 128,-1,36
 560 74 560 74 569.5 76.5 c 128,-1,37
 579 79 579 79 579 82 c 2,38,-1
 403 348 l 1,39,-1
 403 371 l 1,40,-1
 591 627 l 2,41,42
 592 631 592 631 582 633 c 128,-1,43
 572 635 572 635 556.5 636.5 c 128,-1,44
 541 638 541 638 525 638 c 2,45,-1
 517 638 l 1,46,-1
 517 710 l 1,47,-1
 741 710 l 1,48,-1
 741 638 l 1,49,-1
 717 638 l 2,50,51
 702 638 702 638 689.5 632.5 c 128,-1,52
 677 627 677 627 664 610 c 2,53,-1
 474 354 l 1,54,-1
 482 397 l 1,55,-1
 683 95 l 2,56,57
 690 84 690 84 700 79 c 128,-1,58
 710 74 710 74 721 73 c 128,-1,59
 732 72 732 72 743 72 c 2,60,-1
 762 72 l 1,61,-1
 762 0 l 1,62,-1
 504 0 l 1,32,-1
EndSplineSet
EndChar

StartChar: Kabashkcyr
Encoding: 1184 1184 308
Width: 813
GlyphClass: 2
Flags: W
AnchorPoint: "Anchor-0" 480 741 basechar 0
LayerCount: 2
Fore
SplineSet
529 0 m 1,0,-1
 529 72 l 1,1,-1
 537 72 l 2,2,3
 554 72 554 72 569.5 73 c 128,-1,4
 585 74 585 74 595 76.5 c 128,-1,5
 605 79 605 79 605 82 c 2,6,-1
 392 348 l 1,7,-1
 392 371 l 1,8,-1
 616 627 l 2,9,10
 616 631 616 631 606.5 633 c 128,-1,11
 597 635 597 635 581.5 636.5 c 128,-1,12
 566 638 566 638 551 638 c 2,13,-1
 542 638 l 1,14,-1
 542 710 l 1,15,-1
 769 710 l 1,16,-1
 769 638 l 1,17,-1
 747 638 l 2,18,19
 736 638 736 638 727.5 635.5 c 128,-1,20
 719 633 719 633 710.5 627 c 128,-1,21
 702 621 702 621 692 610 c 2,22,-1
 467 354 l 1,23,-1
 471 396 l 1,24,-1
 714 95 l 2,25,26
 722 85 722 85 731 80 c 128,-1,27
 740 75 740 75 750.5 73.5 c 128,-1,28
 761 72 761 72 771 72 c 2,29,-1
 792 72 l 1,30,-1
 792 0 l 1,31,-1
 529 0 l 1,0,-1
181 0 m 1,32,-1
 181 72 l 1,33,-1
 191 72 l 2,34,35
 215 72 215 72 234 79 c 128,-1,36
 253 86 253 86 253 109 c 2,37,-1
 253 639 l 1,38,-1
 217 639 l 2,39,40
 180 639 180 639 161.5 633 c 128,-1,41
 143 627 143 627 136 614.5 c 128,-1,42
 129 602 129 602 126 580 c 2,43,-1
 115 475 l 1,44,-1
 45 475 l 1,45,-1
 45 710 l 1,46,-1
 427 710 l 1,47,-1
 427 638 l 1,48,-1
 419 638 l 2,49,50
 406 638 406 638 390 637 c 128,-1,51
 374 636 374 636 362.5 634 c 128,-1,52
 351 632 351 632 351 628 c 2,53,-1
 351 82 l 2,54,55
 351 79 351 79 362 76.5 c 128,-1,56
 373 74 373 74 389 73.5 c 128,-1,57
 405 73 405 73 418 73 c 2,58,-1
 425 73 l 1,59,-1
 425 0 l 1,60,-1
 181 0 l 1,32,-1
EndSplineSet
EndChar

StartChar: Entailcyr
Encoding: 1186 1186 309
Width: 751
GlyphClass: 2
Flags: W
AnchorPoint: "Anchor-0" 375 741 basechar 0
LayerCount: 2
Fore
SplineSet
196 403 m 1,0,-1
 551 403 l 1,1,-1
 551 329 l 1,2,-1
 196 329 l 1,3,-1
 196 403 l 1,0,-1
52 0 m 1,4,-1
 52 72 l 1,5,-1
 61 72 l 2,6,7
 86 72 86 72 105 79 c 128,-1,8
 124 86 124 86 124 109 c 2,9,-1
 124 601 l 2,10,11
 124 624 124 624 105 631 c 128,-1,12
 86 638 86 638 61 638 c 2,13,-1
 52 638 l 1,14,-1
 52 710 l 1,15,-1
 301 710 l 1,16,-1
 301 638 l 1,17,-1
 293 638 l 2,18,19
 282 638 282 638 269.5 637.5 c 128,-1,20
 257 637 257 637 246.5 635.5 c 128,-1,21
 236 634 236 634 229 632.5 c 128,-1,22
 222 631 222 631 222 628 c 2,23,-1
 222 81 l 2,24,25
 222 79 222 79 229 77.5 c 128,-1,26
 236 76 236 76 246.5 74.5 c 128,-1,27
 257 73 257 73 269.5 72.5 c 128,-1,28
 282 72 282 72 293 72 c 2,29,-1
 301 72 l 1,30,-1
 301 0 l 1,31,-1
 52 0 l 1,4,-1
450 0 m 1,32,-1
 450 72 l 1,33,-1
 457 72 l 2,34,35
 469 72 469 72 481.5 72.5 c 128,-1,36
 494 73 494 73 505 74.5 c 128,-1,37
 516 76 516 76 522.5 77.5 c 128,-1,38
 529 79 529 79 529 82 c 2,39,-1
 529 629 l 2,40,41
 529 631 529 631 522.5 632.5 c 128,-1,42
 516 634 516 634 505 635.5 c 128,-1,43
 494 637 494 637 481.5 637.5 c 128,-1,44
 469 638 469 638 458 638 c 2,45,-1
 450 638 l 1,46,-1
 450 710 l 1,47,-1
 699 710 l 1,48,-1
 699 638 l 1,49,-1
 689 638 l 2,50,51
 665 638 665 638 646 631 c 128,-1,52
 627 624 627 624 627 602 c 2,53,-1
 627 0 l 1,54,-1
 450 0 l 1,32,-1
515 0 m 2,55,-1
 510 0 l 1,56,-1
 525 74 l 1,57,-1
 709 74 l 1,58,-1
 709 -181 l 1,59,-1
 639 -181 l 1,60,-1
 628 -55 l 2,61,62
 626 -35 626 -35 615 -23 c 128,-1,63
 604 -11 604 -11 579.5 -5.5 c 128,-1,64
 555 0 555 0 515 0 c 2,55,-1
EndSplineSet
EndChar

StartChar: Tetailcyr
Encoding: 1196 1196 311
Width: 637
GlyphClass: 2
Flags: W
AnchorPoint: "Anchor-0" 312 741 basechar 0
LayerCount: 2
Fore
SplineSet
269 108 m 2,0,-1
 269 639 l 1,1,-1
 217 639 l 2,2,3
 180 639 180 639 161.5 633 c 128,-1,4
 143 627 143 627 136 614.5 c 128,-1,5
 129 602 129 602 126 580 c 2,6,-1
 115 475 l 1,7,-1
 45 475 l 1,8,-1
 45 710 l 1,9,-1
 591 710 l 1,10,-1
 591 475 l 1,11,-1
 522 475 l 1,12,-1
 510 580 l 2,13,14
 509 602 509 602 501.5 614.5 c 128,-1,15
 494 627 494 627 475 633 c 128,-1,16
 456 639 456 639 419 639 c 2,17,-1
 367 639 l 1,18,-1
 367 0 l 1,19,-1
 182 0 l 1,20,-1
 182 72 l 1,21,-1
 199 72 l 2,22,23
 226 72 226 72 247.5 79 c 128,-1,24
 269 86 269 86 269 108 c 2,0,-1
270 0 m 2,25,-1
 259 0 l 1,26,-1
 264 74 l 1,27,-1
 464 74 l 1,28,-1
 464 -181 l 1,29,-1
 394 -181 l 1,30,-1
 383 -55 l 2,31,32
 381 -35 381 -35 370 -23 c 128,-1,33
 359 -11 359 -11 335 -5.5 c 128,-1,34
 311 0 311 0 270 0 c 2,25,-1
EndSplineSet
EndChar

StartChar: Ustraightstrokecyr
Encoding: 1200 1200 313
Width: 618
GlyphClass: 2
Flags: W
AnchorPoint: "Anchor-1" 309 0 basechar 0
AnchorPoint: "Anchor-0" 309 741 basechar 0
LayerCount: 2
Fore
SplineSet
135 277 m 1,0,-1
 484 277 l 1,1,-1
 484 203 l 1,2,-1
 135 203 l 1,3,-1
 135 277 l 1,0,-1
261 296 m 1,4,-1
 266 266 l 1,5,-1
 89 593 l 2,6,7
 80 611 80 611 71.5 621 c 128,-1,8
 63 631 63 631 54 634.5 c 128,-1,9
 45 638 45 638 33 638 c 2,10,-1
 23 638 l 1,11,-1
 23 710 l 1,12,-1
 247 710 l 1,13,-1
 247 638 l 1,14,-1
 234 638 l 2,15,16
 219 638 219 638 205.5 636.5 c 128,-1,17
 192 635 192 635 183 633 c 128,-1,18
 174 631 174 631 174 627 c 2,19,-1
 347 303 l 1,20,-1
 297 303 l 1,21,-1
 455 615 l 2,22,23
 455 622 455 622 446.5 627 c 128,-1,24
 438 632 438 632 426.5 635 c 128,-1,25
 415 638 415 638 406 638 c 2,26,-1
 396 638 l 1,27,-1
 396 710 l 1,28,-1
 591 710 l 1,29,-1
 591 638 l 1,30,-1
 581 638 l 2,31,32
 571 638 571 638 561.5 633 c 128,-1,33
 552 628 552 628 542 616.5 c 128,-1,34
 532 605 532 605 522 585 c 2,35,-1
 353 266 l 1,36,-1
 359 296 l 1,37,-1
 359 108 l 2,38,39
 359 86 359 86 379 79 c 128,-1,40
 399 72 399 72 428 72 c 2,41,-1
 445 72 l 1,42,-1
 445 0 l 1,43,-1
 174 0 l 1,44,-1
 174 72 l 1,45,-1
 192 72 l 2,46,47
 221 72 221 72 241 79 c 128,-1,48
 261 86 261 86 261 108 c 2,49,-1
 261 296 l 1,4,-1
EndSplineSet
EndChar

StartChar: Xatailcyr
Encoding: 1202 1202 314
Width: 663
GlyphClass: 2
Flags: W
AnchorPoint: "Anchor-0" 338 741 basechar 0
LayerCount: 2
Fore
SplineSet
35 638 m 1,0,-1
 35 710 l 1,1,-1
 284 710 l 1,2,-1
 284 638 l 1,3,-1
 269 638 l 2,4,5
 253 638 253 638 238.5 637 c 128,-1,6
 224 636 224 636 214.5 634 c 128,-1,7
 205 632 205 632 205 628 c 2,8,-1
 362 391 l 1,9,-1
 372 387 l 1,10,-1
 577 74 l 1,11,-1
 577 0 l 1,12,-1
 382 0 l 1,13,-1
 382 72 l 1,14,-1
 397 72 l 2,15,16
 413 72 413 72 427.5 73 c 128,-1,17
 442 74 442 74 451 76.5 c 128,-1,18
 460 79 460 79 460 82 c 2,19,-1
 292 341 l 1,20,-1
 282 346 l 1,21,-1
 111 604 l 2,22,23
 97 627 97 627 81 632.5 c 128,-1,24
 65 638 65 638 47 638 c 2,25,-1
 35 638 l 1,0,-1
24 0 m 1,26,-1
 24 72 l 1,27,-1
 41 72 l 2,28,29
 57 72 57 72 70.5 82 c 128,-1,30
 84 92 84 92 101 118 c 2,31,-1
 270 380 l 1,32,-1
 331 340 l 1,33,-1
 171 89 l 2,34,35
 171 85 171 85 180.5 81 c 128,-1,36
 190 77 190 77 203.5 74.5 c 128,-1,37
 217 72 217 72 229 72 c 2,38,-1
 245 72 l 1,39,-1
 245 0 l 1,40,-1
 24 0 l 1,26,-1
386 355 m 1,41,-1
 325 392 l 1,42,-1
 477 620 l 2,43,44
 477 626 477 626 466.5 630 c 128,-1,45
 456 634 456 634 442.5 636 c 128,-1,46
 429 638 429 638 416 638 c 2,47,-1
 403 638 l 1,48,-1
 403 710 l 1,49,-1
 621 710 l 1,50,-1
 621 638 l 1,51,-1
 609 638 l 2,52,53
 593 638 593 638 579 629 c 128,-1,54
 565 620 565 620 546 593 c 2,55,-1
 386 355 l 1,41,-1
453 0 m 2,56,-1
 448 0 l 1,57,-1
 463 74 l 1,58,-1
 647 74 l 1,59,-1
 647 -181 l 1,60,-1
 577 -181 l 1,61,-1
 566 -55 l 2,62,63
 564 -35 564 -35 553 -23 c 128,-1,64
 542 -11 542 -11 518 -5.5 c 128,-1,65
 494 0 494 0 453 0 c 2,56,-1
EndSplineSet
EndChar

StartChar: Chetailcyr
Encoding: 1206 1206 315
Width: 715
GlyphClass: 2
Flags: W
AnchorPoint: "Anchor-0" 350 741 basechar 0
LayerCount: 2
Fore
SplineSet
334 273 m 0,0,1
 253 273 253 273 202 291.5 c 128,-1,2
 151 310 151 310 127.5 353 c 128,-1,3
 104 396 104 396 104 468 c 2,4,-1
 104 602 l 2,5,6
 104 624 104 624 85 631 c 128,-1,7
 66 638 66 638 41 638 c 2,8,-1
 32 638 l 1,9,-1
 32 710 l 1,10,-1
 281 710 l 1,11,-1
 281 638 l 1,12,-1
 273 638 l 2,13,14
 258 638 258 638 241 637 c 128,-1,15
 224 636 224 636 213 634 c 128,-1,16
 202 632 202 632 202 628 c 2,17,-1
 202 473 l 2,18,19
 202 429 202 429 215.5 401 c 128,-1,20
 229 373 229 373 259 359.5 c 128,-1,21
 289 346 289 346 338 346 c 0,22,23
 382 346 382 346 430.5 355 c 128,-1,24
 479 364 479 364 518 386 c 1,25,-1
 518 312 l 1,26,27
 477 293 477 293 429 283 c 128,-1,28
 381 273 381 273 334 273 c 0,0,1
414 0 m 1,29,-1
 414 72 l 1,30,-1
 421 72 l 2,31,32
 437 72 437 72 453.5 73 c 128,-1,33
 470 74 470 74 481.5 76.5 c 128,-1,34
 493 79 493 79 493 82 c 2,35,-1
 493 628 l 2,36,37
 493 632 493 632 481.5 634 c 128,-1,38
 470 636 470 636 454 637 c 128,-1,39
 438 638 438 638 422 638 c 2,40,-1
 414 638 l 1,41,-1
 414 710 l 1,42,-1
 663 710 l 1,43,-1
 663 638 l 1,44,-1
 653 638 l 2,45,46
 629 638 629 638 610 631 c 128,-1,47
 591 624 591 624 591 602 c 2,48,-1
 591 0 l 1,49,-1
 414 0 l 1,29,-1
479 0 m 2,50,-1
 474 0 l 1,51,-1
 491 74 l 1,52,-1
 673 74 l 1,53,-1
 673 -181 l 1,54,-1
 603 -181 l 1,55,-1
 592 -55 l 2,56,57
 590 -35 590 -35 579 -23 c 128,-1,58
 568 -11 568 -11 544 -5.5 c 128,-1,59
 520 0 520 0 479 0 c 2,50,-1
EndSplineSet
EndChar

StartChar: Chevertcyr
Encoding: 1208 1208 316
Width: 734
GlyphClass: 2
Flags: W
AnchorPoint: "Anchor-0" 359 741 basechar 0
LayerCount: 2
Fore
SplineSet
434 0 m 1,0,-1
 434 72 l 1,1,-1
 441 72 l 2,2,3
 457 72 457 72 473 73 c 128,-1,4
 489 74 489 74 500.5 76.5 c 128,-1,5
 512 79 512 79 512 82 c 2,6,-1
 512 628 l 2,7,8
 512 632 512 632 500.5 634 c 128,-1,9
 489 636 489 636 473 637 c 128,-1,10
 457 638 457 638 441 638 c 2,11,-1
 434 638 l 1,12,-1
 434 710 l 1,13,-1
 682 710 l 1,14,-1
 682 638 l 1,15,-1
 672 638 l 2,16,17
 648 638 648 638 629 631 c 128,-1,18
 610 624 610 624 610 601 c 2,19,-1
 610 109 l 2,20,21
 610 86 610 86 629 79 c 128,-1,22
 648 72 648 72 672 72 c 2,23,-1
 682 72 l 1,24,-1
 682 0 l 1,25,-1
 434 0 l 1,0,-1
343 273 m 0,26,27
 258 273 258 273 205 291.5 c 128,-1,28
 152 310 152 310 128 353 c 128,-1,29
 104 396 104 396 104 468 c 2,30,-1
 104 602 l 2,31,32
 104 624 104 624 85 631 c 128,-1,33
 66 638 66 638 41 638 c 2,34,-1
 32 638 l 1,35,-1
 32 710 l 1,36,-1
 281 710 l 1,37,-1
 281 638 l 1,38,-1
 273 638 l 2,39,40
 258 638 258 638 241 637 c 128,-1,41
 224 636 224 636 213 634 c 128,-1,42
 202 632 202 632 202 628 c 2,43,-1
 202 473 l 2,44,45
 202 429 202 429 216.5 401 c 128,-1,46
 231 373 231 373 263 359.5 c 128,-1,47
 295 346 295 346 347 346 c 0,48,49
 394 346 394 346 445.5 354.5 c 128,-1,50
 497 363 497 363 537 386 c 1,51,-1
 537 312 l 1,52,53
 494 291 494 291 443.5 282 c 128,-1,54
 393 273 393 273 343 273 c 0,26,27
324 158 m 1,55,-1
 324 531 l 1,56,-1
 398 531 l 1,57,-1
 398 158 l 1,58,-1
 324 158 l 1,55,-1
EndSplineSet
EndChar

StartChar: Shhacyr
Encoding: 1210 1210 317
Width: 715
GlyphClass: 1
Flags: W
LayerCount: 2
Fore
SplineSet
300 710 m 1,0,-1
 300 638 l 1,1,-1
 292 638 l 2,2,3
 277 638 277 638 261 637 c 128,-1,4
 245 636 245 636 233.5 634 c 128,-1,5
 222 632 222 632 222 628 c 2,6,-1
 222 82 l 2,7,8
 222 79 222 79 233.5 76.5 c 128,-1,9
 245 74 245 74 261 73 c 128,-1,10
 277 72 277 72 292 72 c 2,11,-1
 300 72 l 1,12,-1
 300 0 l 1,13,-1
 52 0 l 1,14,-1
 52 72 l 1,15,-1
 61 72 l 2,16,17
 86 72 86 72 105 79 c 128,-1,18
 124 86 124 86 124 109 c 2,19,-1
 124 601 l 2,20,21
 124 624 124 624 105 631 c 128,-1,22
 86 638 86 638 61 638 c 2,23,-1
 52 638 l 1,24,-1
 52 710 l 1,25,-1
 300 710 l 1,0,-1
381 438 m 0,26,27
 461 438 461 438 512 419 c 128,-1,28
 563 400 563 400 587 357 c 128,-1,29
 611 314 611 314 611 242 c 2,30,-1
 611 108 l 2,31,32
 611 86 611 86 630 79 c 128,-1,33
 649 72 649 72 673 72 c 2,34,-1
 683 72 l 1,35,-1
 683 0 l 1,36,-1
 434 0 l 1,37,-1
 434 72 l 1,38,-1
 441 72 l 2,39,40
 458 72 458 72 474.5 73 c 128,-1,41
 491 74 491 74 502 76.5 c 128,-1,42
 513 79 513 79 513 82 c 2,43,-1
 513 237 l 2,44,45
 513 282 513 282 499.5 309.5 c 128,-1,46
 486 337 486 337 456 350.5 c 128,-1,47
 426 364 426 364 376 364 c 0,48,49
 333 364 333 364 284 355.5 c 128,-1,50
 235 347 235 347 196 324 c 1,51,-1
 196 398 l 1,52,53
 238 418 238 418 286 428 c 128,-1,54
 334 438 334 438 381 438 c 0,26,27
EndSplineSet
EndChar

StartChar: Obarcyr
Encoding: 1256 1256 320
Width: 698
GlyphClass: 2
Flags: W
AnchorPoint: "Anchor-1" 342 0 basechar 0
AnchorPoint: "Anchor-0" 342 741 basechar 0
LayerCount: 2
Fore
SplineSet
101 403 m 1,0,-1
 598 403 l 1,1,-1
 598 329 l 1,2,-1
 101 329 l 1,3,-1
 101 403 l 1,0,-1
350 -23 m 256,4,5
 283 -23 283 -23 228 1.5 c 128,-1,6
 173 26 173 26 134 74 c 128,-1,7
 95 122 95 122 73.5 192.5 c 128,-1,8
 52 263 52 263 52 355 c 0,9,10
 52 448 52 448 73.5 518.5 c 128,-1,11
 95 589 95 589 134 636.5 c 128,-1,12
 173 684 173 684 228 708.5 c 128,-1,13
 283 733 283 733 350 733 c 256,14,15
 417 733 417 733 471.5 708.5 c 128,-1,16
 526 684 526 684 565 636.5 c 128,-1,17
 604 589 604 589 625 518.5 c 128,-1,18
 646 448 646 448 646 355 c 0,19,20
 646 263 646 263 625 192.5 c 128,-1,21
 604 122 604 122 565 74 c 128,-1,22
 526 26 526 26 471.5 1.5 c 128,-1,23
 417 -23 417 -23 350 -23 c 256,4,5
350 49 m 0,24,25
 397 49 397 49 433 67.5 c 128,-1,26
 469 86 469 86 493 123.5 c 128,-1,27
 517 161 517 161 529 218.5 c 128,-1,28
 541 276 541 276 541 355 c 256,29,30
 541 434 541 434 529 491.5 c 128,-1,31
 517 549 517 549 493 586.5 c 128,-1,32
 469 624 469 624 433 642.5 c 128,-1,33
 397 661 397 661 350 661 c 0,34,35
 302 661 302 661 266 642.5 c 128,-1,36
 230 624 230 624 206 586.5 c 128,-1,37
 182 549 182 549 170 491.5 c 128,-1,38
 158 434 158 434 158 355 c 256,39,40
 158 276 158 276 170 218.5 c 128,-1,41
 182 161 182 161 206 123.5 c 128,-1,42
 230 86 230 86 266 67.5 c 128,-1,43
 302 49 302 49 350 49 c 0,24,25
EndSplineSet
EndChar

StartChar: Hastrokecyr
Encoding: 1278 1278 321
Width: 658
GlyphClass: 2
Flags: W
AnchorPoint: "Anchor-1" 309 0 basechar 0
AnchorPoint: "Anchor-0" 336 741 basechar 0
LayerCount: 2
Fore
SplineSet
144 404 m 1,0,-1
 510 404 l 1,1,-1
 510 330 l 1,2,-1
 144 330 l 1,3,-1
 144 404 l 1,0,-1
35 638 m 1,4,-1
 35 710 l 1,5,-1
 284 710 l 1,6,-1
 284 638 l 1,7,-1
 269 638 l 2,8,9
 253 638 253 638 238.5 637 c 128,-1,10
 224 636 224 636 214.5 634 c 128,-1,11
 205 632 205 632 205 628 c 2,12,-1
 362 391 l 1,13,-1
 371 387 l 1,14,-1
 556 106 l 2,15,16
 570 84 570 84 585 78 c 128,-1,17
 600 72 600 72 617 72 c 2,18,-1
 635 72 l 1,19,-1
 635 0 l 1,20,-1
 382 0 l 1,21,-1
 382 72 l 1,22,-1
 397 72 l 2,23,24
 413 72 413 72 427.5 73 c 128,-1,25
 442 74 442 74 451 76.5 c 128,-1,26
 460 79 460 79 460 82 c 2,27,-1
 292 341 l 1,28,-1
 283 346 l 1,29,-1
 111 604 l 2,30,31
 97 627 97 627 81 632.5 c 128,-1,32
 65 638 65 638 47 638 c 2,33,-1
 35 638 l 1,4,-1
24 0 m 1,34,-1
 24 72 l 1,35,-1
 41 72 l 2,36,37
 57 72 57 72 70.5 82 c 128,-1,38
 84 92 84 92 101 118 c 2,39,-1
 271 380 l 1,40,-1
 331 340 l 1,41,-1
 171 89 l 2,42,43
 171 85 171 85 180.5 81 c 128,-1,44
 190 77 190 77 203.5 74.5 c 128,-1,45
 217 72 217 72 229 72 c 2,46,-1
 245 72 l 1,47,-1
 245 0 l 1,48,-1
 24 0 l 1,34,-1
385 355 m 1,49,-1
 325 392 l 1,50,-1
 477 620 l 2,51,52
 477 626 477 626 466.5 630 c 128,-1,53
 456 634 456 634 442.5 636 c 128,-1,54
 429 638 429 638 416 638 c 2,55,-1
 403 638 l 1,56,-1
 403 710 l 1,57,-1
 621 710 l 1,58,-1
 621 638 l 1,59,-1
 609 638 l 2,60,61
 593 638 593 638 579 629 c 128,-1,62
 565 620 565 620 546 593 c 2,63,-1
 385 355 l 1,49,-1
EndSplineSet
EndChar

StartChar: a
Encoding: 97 97 322
Width: 537
GlyphClass: 2
Flags: W
AnchorPoint: "Anchor-2" 403 -10 basechar 0
AnchorPoint: "Anchor-1" 276 0 basechar 0
AnchorPoint: "Anchor-0" 248 565 basechar 0
LayerCount: 2
Fore
SplineSet
361 347 m 1,0,-1
 361 288 l 1,1,2
 303 278 303 278 264.5 266.5 c 128,-1,3
 226 255 226 255 202.5 242 c 128,-1,4
 179 229 179 229 167.5 213.5 c 128,-1,5
 156 198 156 198 152.5 179.5 c 128,-1,6
 149 161 149 161 149 138 c 0,7,8
 149 107 149 107 157.5 89 c 128,-1,9
 166 71 166 71 181.5 64 c 128,-1,10
 197 57 197 57 217 57 c 0,11,12
 240 57 240 57 263.5 66.5 c 128,-1,13
 287 76 287 76 311 99.5 c 128,-1,14
 335 123 335 123 360 164 c 1,15,-1
 363 104 l 1,16,17
 345 67 345 67 321 41 c 128,-1,18
 297 15 297 15 267 1.5 c 128,-1,19
 237 -12 237 -12 201 -12 c 0,20,21
 154 -12 154 -12 121.5 4.5 c 128,-1,22
 89 21 89 21 71.5 54 c 128,-1,23
 54 87 54 87 54 138 c 0,24,25
 54 182 54 182 68 215 c 128,-1,26
 82 248 82 248 116 272 c 128,-1,27
 150 296 150 296 209.5 314 c 128,-1,28
 269 332 269 332 361 347 c 1,0,-1
379 0 m 1,29,-1
 356 116 l 1,30,-1
 355 123 l 1,31,-1
 355 414 l 2,32,33
 355 445 355 445 348.5 465 c 128,-1,34
 342 485 342 485 321.5 495 c 128,-1,35
 301 505 301 505 259 505 c 0,36,37
 202 505 202 505 165 491.5 c 128,-1,38
 128 478 128 478 111 465 c 1,39,40
 111 470 111 470 116 479.5 c 128,-1,41
 121 489 121 489 129.5 498.5 c 128,-1,42
 138 508 138 508 149 514 c 128,-1,43
 160 520 160 520 173 520 c 1,44,-1
 173 394 l 1,45,-1
 83 394 l 1,46,-1
 83 528 l 1,47,48
 96 539 96 539 120.5 549.5 c 128,-1,49
 145 560 145 560 180.5 567.5 c 128,-1,50
 216 575 216 575 262 575 c 0,51,52
 304 575 304 575 338.5 567.5 c 128,-1,53
 373 560 373 560 397.5 543.5 c 128,-1,54
 422 527 422 527 435.5 499.5 c 128,-1,55
 449 472 449 472 449 434 c 2,56,-1
 449 111 l 2,57,58
 449 97 449 97 454.5 88.5 c 128,-1,59
 460 80 460 80 473 75 c 128,-1,60
 486 70 486 70 507 65 c 2,61,-1
 516 63 l 1,62,-1
 516 0 l 1,63,-1
 379 0 l 1,29,-1
EndSplineSet
Substitution2: "'ss06' Style Set 6 lookup 66 subtable" a.alt
EndChar

StartChar: aogonek
Encoding: 261 261 331
Width: 537
GlyphClass: 1
Flags: W
LayerCount: 2
Fore
SplineSet
226 -161 m 0,0,1
 226 -137 226 -137 234 -118.5 c 128,-1,2
 242 -100 242 -100 261.5 -80 c 128,-1,3
 281 -60 281 -60 315.5 -32.5 c 128,-1,4
 350 -5 350 -5 403 36 c 1,5,-1
 431 3 l 1,6,7
 399 -27 399 -27 378 -49 c 128,-1,8
 357 -71 357 -71 346 -88 c 128,-1,9
 335 -105 335 -105 330 -120 c 128,-1,10
 325 -135 325 -135 325 -152 c 0,11,12
 325 -170 325 -170 335 -182 c 128,-1,13
 345 -194 345 -194 364 -194 c 0,14,15
 389 -194 389 -194 406.5 -178 c 128,-1,16
 424 -162 424 -162 436 -146 c 1,17,-1
 473 -182 l 1,18,19
 450 -213 450 -213 419.5 -232.5 c 128,-1,20
 389 -252 389 -252 340 -252 c 256,21,22
 291 -252 291 -252 258.5 -229.5 c 128,-1,23
 226 -207 226 -207 226 -161 c 0,0,1
516 0 m 1,24,-1
 380 0 l 1,25,-1
 357 116 l 1,26,-1
 352 123 l 1,27,-1
 352 416 l 2,28,29
 352 446 352 446 345.5 465.5 c 128,-1,30
 339 485 339 485 319.5 495.5 c 128,-1,31
 300 506 300 506 259 506 c 0,32,33
 202 506 202 506 163.5 495.5 c 128,-1,34
 125 485 125 485 111 473 c 1,35,36
 111 478 111 478 115.5 485.5 c 128,-1,37
 120 493 120 493 128 501.5 c 128,-1,38
 136 510 136 510 147 515 c 128,-1,39
 158 520 158 520 170 520 c 1,40,-1
 170 394 l 1,41,-1
 80 394 l 1,42,-1
 80 528 l 1,43,44
 94 539 94 539 118 549.5 c 128,-1,45
 142 560 142 560 178.5 567.5 c 128,-1,46
 215 575 215 575 262 575 c 0,47,48
 304 575 304 575 337.5 567.5 c 128,-1,49
 371 560 371 560 395.5 543.5 c 128,-1,50
 420 527 420 527 433 499.5 c 128,-1,51
 446 472 446 472 446 434 c 2,52,-1
 446 110 l 2,53,54
 446 96 446 96 452 88 c 128,-1,55
 458 80 458 80 471.5 75.5 c 128,-1,56
 485 71 485 71 507 65 c 2,57,-1
 516 63 l 1,58,-1
 516 0 l 1,24,-1
50 138 m 0,59,60
 50 183 50 183 64 215.5 c 128,-1,61
 78 248 78 248 112 272 c 128,-1,62
 146 296 146 296 206.5 314 c 128,-1,63
 267 332 267 332 360 348 c 1,64,-1
 360 289 l 1,65,66
 302 278 302 278 262.5 266.5 c 128,-1,67
 223 255 223 255 199.5 242 c 128,-1,68
 176 229 176 229 164 213.5 c 128,-1,69
 152 198 152 198 148 179.5 c 128,-1,70
 144 161 144 161 144 138 c 0,71,72
 144 107 144 107 153 89 c 128,-1,73
 162 71 162 71 177.5 64 c 128,-1,74
 193 57 193 57 213 57 c 0,75,76
 237 57 237 57 261.5 66.5 c 128,-1,77
 286 76 286 76 310.5 99 c 128,-1,78
 335 122 335 122 359 162 c 1,79,-1
 362 102 l 1,80,81
 345 66 345 66 320 40 c 128,-1,82
 295 14 295 14 264 1 c 128,-1,83
 233 -12 233 -12 197 -12 c 0,84,85
 150 -12 150 -12 117 4.5 c 128,-1,86
 84 21 84 21 67 54 c 128,-1,87
 50 87 50 87 50 138 c 0,59,60
EndSplineSet
Substitution2: "'ss06' Style Set 6 lookup 66 subtable" aogonek.alt
EndChar

StartChar: acaron
Encoding: 462 462 332
Width: 537
GlyphClass: 1
Flags: W
LayerCount: 2
Fore
SplineSet
224 657 m 1,0,-1
 289 657 l 1,1,-1
 409 824 l 1,2,-1
 409 844 l 1,3,-1
 358 844 l 1,4,-1
 201 700 l 1,5,-1
 314 704 l 1,6,-1
 159 844 l 1,7,-1
 103 844 l 1,8,-1
 103 824 l 1,9,-1
 224 657 l 1,0,-1
361 347 m 1,10,-1
 361 288 l 1,11,12
 303 278 303 278 264.5 266.5 c 128,-1,13
 226 255 226 255 202.5 242 c 128,-1,14
 179 229 179 229 167.5 213.5 c 128,-1,15
 156 198 156 198 152.5 179.5 c 128,-1,16
 149 161 149 161 149 138 c 0,17,18
 149 107 149 107 157.5 89 c 128,-1,19
 166 71 166 71 181.5 64 c 128,-1,20
 197 57 197 57 217 57 c 0,21,22
 240 57 240 57 263.5 66.5 c 128,-1,23
 287 76 287 76 311 99.5 c 128,-1,24
 335 123 335 123 360 164 c 1,25,-1
 363 104 l 1,26,27
 345 67 345 67 321 41 c 128,-1,28
 297 15 297 15 267 1.5 c 128,-1,29
 237 -12 237 -12 201 -12 c 0,30,31
 154 -12 154 -12 121.5 4.5 c 128,-1,32
 89 21 89 21 71.5 54 c 128,-1,33
 54 87 54 87 54 138 c 0,34,35
 54 182 54 182 68 215 c 128,-1,36
 82 248 82 248 116 272 c 128,-1,37
 150 296 150 296 209.5 314 c 128,-1,38
 269 332 269 332 361 347 c 1,10,-1
379 0 m 1,39,-1
 356 116 l 1,40,-1
 355 123 l 1,41,-1
 355 414 l 2,42,43
 355 445 355 445 348.5 465 c 128,-1,44
 342 485 342 485 321.5 495 c 128,-1,45
 301 505 301 505 259 505 c 0,46,47
 202 505 202 505 165 491.5 c 128,-1,48
 128 478 128 478 111 465 c 1,49,50
 111 470 111 470 116 479.5 c 128,-1,51
 121 489 121 489 129.5 498.5 c 128,-1,52
 138 508 138 508 149 514 c 128,-1,53
 160 520 160 520 173 520 c 1,54,-1
 173 394 l 1,55,-1
 83 394 l 1,56,-1
 83 528 l 1,57,58
 96 539 96 539 120.5 549.5 c 128,-1,59
 145 560 145 560 180.5 567.5 c 128,-1,60
 216 575 216 575 262 575 c 0,61,62
 304 575 304 575 338.5 567.5 c 128,-1,63
 373 560 373 560 397.5 543.5 c 128,-1,64
 422 527 422 527 435.5 499.5 c 128,-1,65
 449 472 449 472 449 434 c 2,66,-1
 449 111 l 2,67,68
 449 97 449 97 454.5 88.5 c 128,-1,69
 460 80 460 80 473 75 c 128,-1,70
 486 70 486 70 507 65 c 2,71,-1
 516 63 l 1,72,-1
 516 0 l 1,73,-1
 379 0 l 1,39,-1
EndSplineSet
Substitution2: "'ss06' Style Set 6 lookup 66 subtable" acaron.alt
EndChar

StartChar: adblgrave
Encoding: 513 513 334
Width: 537
GlyphClass: 1
Flags: W
LayerCount: 2
Fore
SplineSet
356 804 m 2,0,-1
 384 690 l 1,1,-1
 382 661 l 1,2,-1
 347 661 l 1,3,-1
 276 746 l 2,4,5
 260 766 260 766 251 782.5 c 128,-1,6
 242 799 242 799 242 818 c 0,7,8
 242 840 242 840 255.5 854.5 c 128,-1,9
 269 869 269 869 291 869 c 0,10,11
 318 869 318 869 334 850.5 c 128,-1,12
 350 832 350 832 356 804 c 2,0,-1
182 804 m 2,13,-1
 207 690 l 1,14,-1
 207 661 l 1,15,-1
 171 661 l 1,16,-1
 102 746 l 2,17,18
 85 766 85 766 76 782.5 c 128,-1,19
 67 799 67 799 67 818 c 0,20,21
 67 840 67 840 80.5 854.5 c 128,-1,22
 94 869 94 869 117 869 c 0,23,24
 142 869 142 869 158.5 850.5 c 128,-1,25
 175 832 175 832 182 804 c 2,13,-1
361 347 m 1,26,-1
 361 288 l 1,27,28
 303 278 303 278 264.5 266.5 c 128,-1,29
 226 255 226 255 202.5 242 c 128,-1,30
 179 229 179 229 167.5 213.5 c 128,-1,31
 156 198 156 198 152.5 179.5 c 128,-1,32
 149 161 149 161 149 138 c 0,33,34
 149 107 149 107 157.5 89 c 128,-1,35
 166 71 166 71 181.5 64 c 128,-1,36
 197 57 197 57 217 57 c 0,37,38
 240 57 240 57 263.5 66.5 c 128,-1,39
 287 76 287 76 311 99.5 c 128,-1,40
 335 123 335 123 360 164 c 1,41,-1
 363 104 l 1,42,43
 345 67 345 67 321 41 c 128,-1,44
 297 15 297 15 267 1.5 c 128,-1,45
 237 -12 237 -12 201 -12 c 0,46,47
 154 -12 154 -12 121.5 4.5 c 128,-1,48
 89 21 89 21 71.5 54 c 128,-1,49
 54 87 54 87 54 138 c 0,50,51
 54 182 54 182 68 215 c 128,-1,52
 82 248 82 248 116 272 c 128,-1,53
 150 296 150 296 209.5 314 c 128,-1,54
 269 332 269 332 361 347 c 1,26,-1
379 0 m 1,55,-1
 356 116 l 1,56,-1
 355 123 l 1,57,-1
 355 414 l 2,58,59
 355 445 355 445 348.5 465 c 128,-1,60
 342 485 342 485 321.5 495 c 128,-1,61
 301 505 301 505 259 505 c 0,62,63
 202 505 202 505 165 491.5 c 128,-1,64
 128 478 128 478 111 465 c 1,65,66
 111 470 111 470 116 479.5 c 128,-1,67
 121 489 121 489 129.5 498.5 c 128,-1,68
 138 508 138 508 149 514 c 128,-1,69
 160 520 160 520 173 520 c 1,70,-1
 173 394 l 1,71,-1
 83 394 l 1,72,-1
 83 528 l 1,73,74
 96 539 96 539 120.5 549.5 c 128,-1,75
 145 560 145 560 180.5 567.5 c 128,-1,76
 216 575 216 575 262 575 c 0,77,78
 304 575 304 575 338.5 567.5 c 128,-1,79
 373 560 373 560 397.5 543.5 c 128,-1,80
 422 527 422 527 435.5 499.5 c 128,-1,81
 449 472 449 472 449 434 c 2,82,-1
 449 111 l 2,83,84
 449 97 449 97 454.5 88.5 c 128,-1,85
 460 80 460 80 473 75 c 128,-1,86
 486 70 486 70 507 65 c 2,87,-1
 516 63 l 1,88,-1
 516 0 l 1,89,-1
 379 0 l 1,55,-1
EndSplineSet
Substitution2: "'ss06' Style Set 6 lookup 66 subtable" adblgrave.alt
EndChar

StartChar: ainvertedbreve
Encoding: 515 515 335
Width: 537
GlyphClass: 1
Flags: W
LayerCount: 2
Fore
SplineSet
252 830 m 0,0,1
 201 830 201 830 169 815 c 128,-1,2
 137 800 137 800 122 765 c 128,-1,3
 107 730 107 730 107 667 c 1,4,-1
 178 667 l 1,5,6
 180 706 180 706 185 725.5 c 128,-1,7
 190 745 190 745 205 752.5 c 128,-1,8
 220 760 220 760 249 760 c 0,9,10
 279 760 279 760 294 752.5 c 128,-1,11
 309 745 309 745 315 725.5 c 128,-1,12
 321 706 321 706 321 667 c 1,13,-1
 397 667 l 1,14,15
 398 730 398 730 382.5 765 c 128,-1,16
 367 800 367 800 334.5 815 c 128,-1,17
 302 830 302 830 252 830 c 0,0,1
361 347 m 1,18,-1
 361 288 l 1,19,20
 303 278 303 278 264.5 266.5 c 128,-1,21
 226 255 226 255 202.5 242 c 128,-1,22
 179 229 179 229 167.5 213.5 c 128,-1,23
 156 198 156 198 152.5 179.5 c 128,-1,24
 149 161 149 161 149 138 c 0,25,26
 149 107 149 107 157.5 89 c 128,-1,27
 166 71 166 71 181.5 64 c 128,-1,28
 197 57 197 57 217 57 c 0,29,30
 240 57 240 57 263.5 66.5 c 128,-1,31
 287 76 287 76 311 99.5 c 128,-1,32
 335 123 335 123 360 164 c 1,33,-1
 363 104 l 1,34,35
 345 67 345 67 321 41 c 128,-1,36
 297 15 297 15 267 1.5 c 128,-1,37
 237 -12 237 -12 201 -12 c 0,38,39
 154 -12 154 -12 121.5 4.5 c 128,-1,40
 89 21 89 21 71.5 54 c 128,-1,41
 54 87 54 87 54 138 c 0,42,43
 54 182 54 182 68 215 c 128,-1,44
 82 248 82 248 116 272 c 128,-1,45
 150 296 150 296 209.5 314 c 128,-1,46
 269 332 269 332 361 347 c 1,18,-1
379 0 m 1,47,-1
 356 116 l 1,48,-1
 355 123 l 1,49,-1
 355 414 l 2,50,51
 355 445 355 445 348.5 465 c 128,-1,52
 342 485 342 485 321.5 495 c 128,-1,53
 301 505 301 505 259 505 c 0,54,55
 202 505 202 505 165 491.5 c 128,-1,56
 128 478 128 478 111 465 c 1,57,58
 111 470 111 470 116 479.5 c 128,-1,59
 121 489 121 489 129.5 498.5 c 128,-1,60
 138 508 138 508 149 514 c 128,-1,61
 160 520 160 520 173 520 c 1,62,-1
 173 394 l 1,63,-1
 83 394 l 1,64,-1
 83 528 l 1,65,66
 96 539 96 539 120.5 549.5 c 128,-1,67
 145 560 145 560 180.5 567.5 c 128,-1,68
 216 575 216 575 262 575 c 0,69,70
 304 575 304 575 338.5 567.5 c 128,-1,71
 373 560 373 560 397.5 543.5 c 128,-1,72
 422 527 422 527 435.5 499.5 c 128,-1,73
 449 472 449 472 449 434 c 2,74,-1
 449 111 l 2,75,76
 449 97 449 97 454.5 88.5 c 128,-1,77
 460 80 460 80 473 75 c 128,-1,78
 486 70 486 70 507 65 c 2,79,-1
 516 63 l 1,80,-1
 516 0 l 1,81,-1
 379 0 l 1,47,-1
EndSplineSet
Substitution2: "'ss06' Style Set 6 lookup 66 subtable" ainvertedbreve.alt
EndChar

StartChar: b
Encoding: 98 98 348
Width: 589
GlyphClass: 2
Flags: W
AnchorPoint: "Anchor-1" 349 0 basechar 0
AnchorPoint: "Anchor-0" 329 755 basechar 0
LayerCount: 2
Fore
SplineSet
335 -13 m 0,0,1
 298 -13 298 -13 266 0.5 c 128,-1,2
 234 14 234 14 208.5 42.5 c 128,-1,3
 183 71 183 71 162 113 c 1,4,-1
 166 168 l 1,5,6
 189 131 189 131 214.5 108 c 128,-1,7
 240 85 240 85 267.5 74 c 128,-1,8
 295 63 295 63 326 63 c 0,9,10
 356 63 356 63 379 76.5 c 128,-1,11
 402 90 402 90 417.5 117 c 128,-1,12
 433 144 433 144 440.5 186 c 128,-1,13
 448 228 448 228 448 285 c 0,14,15
 448 344 448 344 440.5 385 c 128,-1,16
 433 426 433 426 418 451 c 128,-1,17
 403 476 403 476 381 487.5 c 128,-1,18
 359 499 359 499 331 499 c 0,19,20
 298 499 298 499 270 487.5 c 128,-1,21
 242 476 242 476 216 451 c 128,-1,22
 190 426 190 426 164 385 c 1,23,-1
 162 440 l 1,24,25
 182 483 182 483 209 513.5 c 128,-1,26
 236 544 236 544 270 559.5 c 128,-1,27
 304 575 304 575 344 575 c 0,28,29
 411 575 411 575 456 538.5 c 128,-1,30
 501 502 501 502 524 437 c 128,-1,31
 547 372 547 372 547 285 c 256,32,33
 547 198 547 198 522 130.5 c 128,-1,34
 497 63 497 63 450 25 c 128,-1,35
 403 -13 403 -13 335 -13 c 0,0,1
87 664 m 2,36,37
 87 679 87 679 80 687 c 128,-1,38
 73 695 73 695 59.5 700 c 128,-1,39
 46 705 46 705 28 709 c 2,40,-1
 19 711 l 1,41,-1
 19 780 l 1,42,-1
 181 780 l 1,43,-1
 181 122 l 1,44,-1
 181 120 l 1,45,-1
 151 -15 l 1,46,-1
 87 -15 l 1,47,-1
 87 664 l 2,36,37
EndSplineSet
EndChar

StartChar: c
Encoding: 99 99 349
Width: 508
GlyphClass: 2
Flags: W
AnchorPoint: "Anchor-1" 281 0 basechar 0
AnchorPoint: "Anchor-0" 271 565 basechar 0
LayerCount: 2
Fore
SplineSet
281 60 m 0,0,1
 315 60 315 60 338.5 69 c 128,-1,2
 362 78 362 78 379.5 97 c 128,-1,3
 397 116 397 116 410 144 c 1,4,-1
 465 111 l 1,5,6
 449 72 449 72 422 44.5 c 128,-1,7
 395 17 395 17 359 2 c 128,-1,8
 323 -13 323 -13 280 -13 c 0,9,10
 205 -13 205 -13 152 21 c 128,-1,11
 99 55 99 55 70.5 121 c 128,-1,12
 42 187 42 187 42 282 c 0,13,14
 42 374 42 374 70 439.5 c 128,-1,15
 98 505 98 505 151.5 540 c 128,-1,16
 205 575 205 575 281 575 c 0,17,18
 327 575 327 575 360.5 569 c 128,-1,19
 394 563 394 563 416 555.5 c 128,-1,20
 438 548 438 548 447 543 c 1,21,-1
 447 375 l 1,22,-1
 353 375 l 1,23,-1
 353 516 l 1,24,25
 362 516 362 516 371 511 c 128,-1,26
 380 506 380 506 387 499 c 128,-1,27
 394 492 394 492 398.5 485.5 c 128,-1,28
 403 479 403 479 404 474 c 1,29,30
 384 485 384 485 353.5 493.5 c 128,-1,31
 323 502 323 502 284 502 c 0,32,33
 231 502 231 502 199 477.5 c 128,-1,34
 167 453 167 453 153.5 404 c 128,-1,35
 140 355 140 355 140 282 c 0,36,37
 140 223 140 223 147.5 181 c 128,-1,38
 155 139 155 139 171 112 c 128,-1,39
 187 85 187 85 214.5 72.5 c 128,-1,40
 242 60 242 60 281 60 c 0,0,1
EndSplineSet
EndChar

StartChar: ccaron
Encoding: 269 269 354
Width: 508
GlyphClass: 1
Flags: W
LayerCount: 2
Fore
SplineSet
237 657 m 1,0,-1
 302 657 l 1,1,-1
 421 824 l 1,2,-1
 421 844 l 1,3,-1
 371 844 l 1,4,-1
 213 700 l 1,5,-1
 326 704 l 1,6,-1
 171 844 l 1,7,-1
 116 844 l 1,8,-1
 116 824 l 1,9,-1
 237 657 l 1,0,-1
281 60 m 0,10,11
 315 60 315 60 338.5 69 c 128,-1,12
 362 78 362 78 379.5 97 c 128,-1,13
 397 116 397 116 410 144 c 1,14,-1
 465 111 l 1,15,16
 449 72 449 72 422 44.5 c 128,-1,17
 395 17 395 17 359 2 c 128,-1,18
 323 -13 323 -13 280 -13 c 0,19,20
 205 -13 205 -13 152 21 c 128,-1,21
 99 55 99 55 70.5 121 c 128,-1,22
 42 187 42 187 42 282 c 0,23,24
 42 374 42 374 70 439.5 c 128,-1,25
 98 505 98 505 151.5 540 c 128,-1,26
 205 575 205 575 281 575 c 0,27,28
 327 575 327 575 360.5 569 c 128,-1,29
 394 563 394 563 416 555.5 c 128,-1,30
 438 548 438 548 447 543 c 1,31,-1
 447 375 l 1,32,-1
 353 375 l 1,33,-1
 353 516 l 1,34,35
 362 516 362 516 371 511 c 128,-1,36
 380 506 380 506 387 499 c 128,-1,37
 394 492 394 492 398.5 485.5 c 128,-1,38
 403 479 403 479 404 474 c 1,39,40
 384 485 384 485 353.5 493.5 c 128,-1,41
 323 502 323 502 284 502 c 0,42,43
 231 502 231 502 199 477.5 c 128,-1,44
 167 453 167 453 153.5 404 c 128,-1,45
 140 355 140 355 140 282 c 0,46,47
 140 223 140 223 147.5 181 c 128,-1,48
 155 139 155 139 171 112 c 128,-1,49
 187 85 187 85 214.5 72.5 c 128,-1,50
 242 60 242 60 281 60 c 0,10,11
EndSplineSet
EndChar

StartChar: d
Encoding: 100 100 356
Width: 595
GlyphClass: 2
Flags: W
AnchorPoint: "Anchor-2" 563 735 basechar 0
AnchorPoint: "Anchor-1" 278 0 basechar 0
LayerCount: 2
Fore
SplineSet
502 110 m 2,0,1
 502 88 502 88 517 80.5 c 128,-1,2
 532 73 532 73 560 65 c 2,3,-1
 569 63 l 1,4,-1
 569 0 l 1,5,-1
 437 0 l 1,6,-1
 415 121 l 1,7,-1
 408 121 l 1,8,-1
 408 664 l 2,9,10
 408 679 408 679 400.5 686.5 c 128,-1,11
 393 694 393 694 378 699 c 128,-1,12
 363 704 363 704 341 709 c 2,13,-1
 334 711 l 1,14,-1
 334 780 l 1,15,-1
 502 780 l 1,16,-1
 502 110 l 2,0,1
254 575 m 0,17,18
 291 575 291 575 323 561.5 c 128,-1,19
 355 548 355 548 381 520 c 128,-1,20
 407 492 407 492 427 449 c 1,21,-1
 423 394 l 1,22,23
 400 431 400 431 374.5 454 c 128,-1,24
 349 477 349 477 321.5 488 c 128,-1,25
 294 499 294 499 262 499 c 0,26,27
 232 499 232 499 209.5 485.5 c 128,-1,28
 187 472 187 472 171.5 445 c 128,-1,29
 156 418 156 418 148 376 c 128,-1,30
 140 334 140 334 140 277 c 0,31,32
 140 218 140 218 148.5 177 c 128,-1,33
 157 136 157 136 172 111 c 128,-1,34
 187 86 187 86 208.5 74.5 c 128,-1,35
 230 63 230 63 258 63 c 0,36,37
 290 63 290 63 318.5 74.5 c 128,-1,38
 347 86 347 86 373.5 111.5 c 128,-1,39
 400 137 400 137 425 177 c 1,40,-1
 427 122 l 1,41,42
 407 79 407 79 379.5 48.5 c 128,-1,43
 352 18 352 18 318.5 2.5 c 128,-1,44
 285 -13 285 -13 245 -13 c 0,45,46
 179 -13 179 -13 133.5 23.5 c 128,-1,47
 88 60 88 60 65 125.5 c 128,-1,48
 42 191 42 191 42 277 c 0,49,50
 42 364 42 364 67 431 c 128,-1,51
 92 498 92 498 139.5 536.5 c 128,-1,52
 187 575 187 575 254 575 c 0,17,18
EndSplineSet
EndChar

StartChar: e
Encoding: 101 101 360
Width: 513
GlyphClass: 2
Flags: W
AnchorPoint: "Anchor-2" 405 1 basechar 0
AnchorPoint: "Anchor-1" 281 0 basechar 0
AnchorPoint: "Anchor-0" 262 565 basechar 0
LayerCount: 2
Fore
SplineSet
137 276 m 0,0,1
 137 211 137 211 148 169 c 128,-1,2
 159 127 159 127 179.5 103 c 128,-1,3
 200 79 200 79 227 69.5 c 128,-1,4
 254 60 254 60 286 60 c 0,5,6
 320 60 320 60 344 70 c 128,-1,7
 368 80 368 80 385.5 99 c 128,-1,8
 403 118 403 118 416 144 c 1,9,-1
 471 111 l 1,10,11
 455 73 455 73 427 45 c 128,-1,12
 399 17 399 17 362 2 c 128,-1,13
 325 -13 325 -13 281 -13 c 0,14,15
 212 -13 212 -13 158 18.5 c 128,-1,16
 104 50 104 50 73 114.5 c 128,-1,17
 42 179 42 179 42 276 c 0,18,19
 42 370 42 370 69.5 437 c 128,-1,20
 97 504 97 504 148 539.5 c 128,-1,21
 199 575 199 575 267 575 c 0,22,23
 319 575 319 575 357 555.5 c 128,-1,24
 395 536 395 536 420 496.5 c 128,-1,25
 445 457 445 457 457.5 395.5 c 128,-1,26
 470 334 470 334 471 251 c 1,27,-1
 110 251 l 1,28,-1
 110 321 l 1,29,-1
 401 321 l 1,30,-1
 378 293 l 1,31,32
 377 353 377 353 370 393.5 c 128,-1,33
 363 434 363 434 349.5 457.5 c 128,-1,34
 336 481 336 481 316 491.5 c 128,-1,35
 296 502 296 502 268 502 c 0,36,37
 237 502 237 502 212.5 490.5 c 128,-1,38
 188 479 188 479 171.5 452.5 c 128,-1,39
 155 426 155 426 146 382 c 128,-1,40
 137 338 137 338 137 276 c 0,0,1
EndSplineSet
EndChar

StartChar: eogonek
Encoding: 281 281 368
Width: 513
GlyphClass: 1
Flags: W
LayerCount: 2
Fore
SplineSet
353 38 m 1,0,-1
 352 1 l 1,1,2
 335 -5 335 -5 318 -9 c 128,-1,3
 301 -13 301 -13 282 -13 c 0,4,5
 213 -13 213 -13 158.5 18.5 c 128,-1,6
 104 50 104 50 73 114.5 c 128,-1,7
 42 179 42 179 42 276 c 0,8,9
 42 370 42 370 69.5 437 c 128,-1,10
 97 504 97 504 148 539.5 c 128,-1,11
 199 575 199 575 268 575 c 0,12,13
 320 575 320 575 357.5 555.5 c 128,-1,14
 395 536 395 536 420 496.5 c 128,-1,15
 445 457 445 457 457.5 396.5 c 128,-1,16
 470 336 470 336 471 253 c 1,17,-1
 106 253 l 1,18,-1
 106 321 l 1,19,-1
 398 321 l 1,20,-1
 378 293 l 1,21,22
 377 353 377 353 370 393.5 c 128,-1,23
 363 434 363 434 350 457.5 c 128,-1,24
 337 481 337 481 316.5 491.5 c 128,-1,25
 296 502 296 502 269 502 c 0,26,27
 237 502 237 502 212.5 490.5 c 128,-1,28
 188 479 188 479 171.5 452.5 c 128,-1,29
 155 426 155 426 146 382 c 128,-1,30
 137 338 137 338 137 276 c 0,31,32
 137 211 137 211 148 169 c 128,-1,33
 159 127 159 127 179 103 c 128,-1,34
 199 79 199 79 226.5 69.5 c 128,-1,35
 254 60 254 60 286 60 c 0,36,37
 321 60 321 60 345.5 70 c 128,-1,38
 370 80 370 80 387 100 c 128,-1,39
 404 120 404 120 418 146 c 1,40,-1
 471 111 l 1,41,42
 461 87 461 87 444.5 65.5 c 128,-1,43
 428 44 428 44 395 17 c 0,44,45
 359 -13 359 -13 335.5 -37.5 c 128,-1,46
 312 -62 312 -62 299 -83 c 128,-1,47
 286 -104 286 -104 280.5 -121 c 128,-1,48
 275 -138 275 -138 275 -153 c 0,49,50
 275 -171 275 -171 284.5 -182.5 c 128,-1,51
 294 -194 294 -194 311 -194 c 0,52,53
 333 -194 333 -194 350 -178.5 c 128,-1,54
 367 -163 367 -163 378 -147 c 1,55,-1
 415 -183 l 1,56,57
 393 -213 393 -213 363 -232.5 c 128,-1,58
 333 -252 333 -252 288 -252 c 0,59,60
 256 -252 256 -252 230.5 -242 c 128,-1,61
 205 -232 205 -232 190 -211.5 c 128,-1,62
 175 -191 175 -191 175 -161 c 0,63,64
 175 -137 175 -137 183.5 -118 c 128,-1,65
 192 -99 192 -99 211.5 -78 c 128,-1,66
 231 -57 231 -57 265.5 -29.5 c 128,-1,67
 300 -2 300 -2 353 38 c 1,0,-1
EndSplineSet
EndChar

